<?xml version="1.0" standalone="no"?><!DOCTYPE svg PUBLIC "-//W3C//DTD SVG 1.1//EN" "http://www.w3.org/Graphics/SVG/1.1/DTD/svg11.dtd" ><svg version="1.1" xmlns="http://www.w3.org/2000/svg"><defs><font horiz-adv-x="0" id="font"><font-face ascent="780" bbox="-137 -283 1329 982" cap-height="780" descent="-220" font-family="Copyright House Industries" font-stretch="normal" font-style="italic" font-weight="700" units-per-em="1000" x-height="426" /><missing-glyph d="M202 680H711L591 0H82ZM518 159 578 507 447 334ZM256 95H451L382 261ZM213 181 344 354 272 524ZM408 427 528 585H342Z" horiz-adv-x="695" /><glyph glyph-name=".null" horiz-adv-x="0" /><glyph d="M399 686H410L594 0H455L430 96H179L122 0H-15ZM403 205 376 311Q371 329 368 348Q365 367 363 383.5Q361 400 360 411Q359 422 359 423Q359 422 354.5 411Q350 400 343 384.5Q336 369 326.5 350Q317 331 307 313L244 205Z" glyph-name="A" horiz-adv-x="651" unicode="A" /><glyph d="M309 152 304 173Q298 197 293.5 221Q289 245 286.5 264Q284 283 282.5 295Q281 307 281 308Q271 283 262.5 264Q254 245 243 223Q232 201 219 179L203 152ZM309 528H320L478 0H343L329 62H151L116 0H-16Z" glyph-name="A.sc" horiz-adv-x="534" /><glyph d="M557 680H985L964 560H659L631 400H898L877 282H610L581 120H900L878 0H423L440 96H211L132 0H-20ZM460 209 490 379Q493 393 497 411Q501 429 520 489Q485 432 474 415.5Q463 399 454 388L305 209Z" glyph-name="AE" horiz-adv-x="967" unicode="&#198;" /><glyph d="M445 522H797L777 408H548L532 317H725L706 209H513L496 114H738L718 0H342L353 64H184L130 0H-21ZM371 162 386 247Q388 259 393 278Q398 297 403 315Q408 336 415 359L392 320Q381 303 370.5 287Q360 271 346 254L268 162Z" glyph-name="AE.sc" horiz-adv-x="790" /><glyph d="M399 686H410L594 0H455L430 96H179L122 0H-15ZM403 205 376 311Q371 329 368 348Q365 367 363 383.5Q361 400 360 411Q359 422 359 423Q359 422 354.5 411Q350 400 343 384.5Q336 369 326.5 350Q317 331 307 313L244 205ZM425 926H583L447 738H345Z" glyph-name="Aacute" horiz-adv-x="651" unicode="&#193;" /><glyph d="M309 152 304 173Q298 197 293.5 221Q289 245 286.5 264Q284 283 282.5 295Q281 307 281 308Q271 283 262.5 264Q254 245 243 223Q232 201 219 179L203 152ZM309 528H320L478 0H343L329 62H151L116 0H-16ZM336 773H494L358 585H256Z" glyph-name="Aacute.sc" horiz-adv-x="534" /><glyph d="M399 686H410L594 0H455L430 96H179L122 0H-15ZM403 205 376 311Q371 329 368 348Q365 367 363 383.5Q361 400 360 411Q359 422 359 423Q359 422 354.5 411Q350 400 343 384.5Q336 369 326.5 350Q317 331 307 313L244 205ZM417 737Q346 737 306 777Q266 817 263 877L364 892Q366 866 378.5 850.5Q391 835 418 835Q445 835 459 850.5Q473 866 478 892L577 877Q568 817 527 777Q486 737 417 737Z" glyph-name="Abreve" horiz-adv-x="651" unicode="&#258;" /><glyph d="M309 152 304 173Q298 197 293.5 221Q289 245 286.5 264Q284 283 282.5 295Q281 307 281 308Q271 283 262.5 264Q254 245 243 223Q232 201 219 179L203 152ZM309 528H320L478 0H343L329 62H151L116 0H-16ZM327 580Q256 580 216 620Q176 660 173 720L274 735Q276 709 288.5 693.5Q301 678 328 678Q355 678 369 693.5Q383 709 388 735L487 720Q478 660 437 620Q396 580 327 580Z" glyph-name="Abreve.sc" horiz-adv-x="534" /><glyph d="M399 686H410L594 0H455L430 96H179L122 0H-15ZM403 205 376 311Q371 329 368 348Q365 367 363 383.5Q361 400 360 411Q359 422 359 423Q359 422 354.5 411Q350 400 343 384.5Q336 369 326.5 350Q317 331 307 313L244 205ZM436 954H447L564 738H462L419 810L352 738H243Z" glyph-name="Acircumflex" horiz-adv-x="651" unicode="&#194;" /><glyph d="M309 152 304 173Q298 197 293.5 221Q289 245 286.5 264Q284 283 282.5 295Q281 307 281 308Q271 283 262.5 264Q254 245 243 223Q232 201 219 179L203 152ZM309 528H320L478 0H343L329 62H151L116 0H-16ZM345 791H356L473 575H371L328 647L261 575H152Z" glyph-name="Acircumflex.sc" horiz-adv-x="534" /><glyph d="M399 686H410L594 0H455L430 96H179L122 0H-15ZM403 205 376 311Q371 329 368 348Q365 367 363 383.5Q361 400 360 411Q359 422 359 423Q359 422 354.5 411Q350 400 343 384.5Q336 369 326.5 350Q317 331 307 313L244 205ZM516 741Q488 741 465.5 762.5Q443 784 443 815Q443 846 465.5 867.5Q488 889 516 889Q545 889 566.5 867.5Q588 846 588 815Q588 784 566.5 762.5Q545 741 516 741ZM316 741Q288 741 266 762.5Q244 784 244 815Q244 846 266 867.5Q288 889 316 889Q345 889 367 867.5Q389 846 389 815Q389 784 367 762.5Q345 741 316 741Z" glyph-name="Adieresis" horiz-adv-x="651" unicode="&#196;" /><glyph d="M309 152 304 173Q298 197 293.5 221Q289 245 286.5 264Q284 283 282.5 295Q281 307 281 308Q271 283 262.5 264Q254 245 243 223Q232 201 219 179L203 152ZM309 528H320L478 0H343L329 62H151L116 0H-16ZM426 583Q398 583 375.5 604.5Q353 626 353 657Q353 688 375.5 709.5Q398 731 426 731Q455 731 476.5 709.5Q498 688 498 657Q498 626 476.5 604.5Q455 583 426 583ZM226 583Q198 583 176 604.5Q154 626 154 657Q154 688 176 709.5Q198 731 226 731Q255 731 277 709.5Q299 688 299 657Q299 626 277 604.5Q255 583 226 583Z" glyph-name="Adieresis.sc" horiz-adv-x="534" /><glyph d="M399 686H410L594 0H455L430 96H179L122 0H-15ZM403 205 376 311Q371 329 368 348Q365 367 363 383.5Q361 400 360 411Q359 422 359 423Q359 422 354.5 411Q350 400 343 384.5Q336 369 326.5 350Q317 331 307 313L244 205ZM265 926H417L456 738H356Z" glyph-name="Agrave" horiz-adv-x="651" unicode="&#192;" /><glyph d="M309 152 304 173Q298 197 293.5 221Q289 245 286.5 264Q284 283 282.5 295Q281 307 281 308Q271 283 262.5 264Q254 245 243 223Q232 201 219 179L203 152ZM309 528H320L478 0H343L329 62H151L116 0H-16ZM166 773H318L357 585H257Z" glyph-name="Agrave.sc" horiz-adv-x="534" /><glyph d="M399 686H410L594 0H455L430 96H179L122 0H-15ZM403 205 376 311Q371 329 368 348Q365 367 363 383.5Q361 400 360 411Q359 422 359 423Q359 422 354.5 411Q350 400 343 384.5Q336 369 326.5 350Q317 331 307 313L244 205ZM292 846H552L535 750H275Z" glyph-name="Amacron" horiz-adv-x="651" unicode="&#256;" /><glyph d="M309 152 304 173Q298 197 293.5 221Q289 245 286.5 264Q284 283 282.5 295Q281 307 281 308Q271 283 262.5 264Q254 245 243 223Q232 201 219 179L203 152ZM309 528H320L478 0H343L329 62H151L116 0H-16ZM204 698H464L447 602H187Z" glyph-name="Amacron.sc" horiz-adv-x="534" /><glyph d="M508 -240Q487 -240 467.5 -234.5Q448 -229 433 -217Q418 -205 409 -187.5Q400 -170 400 -146Q400 -112 415 -85.5Q430 -59 453 -39L496 0H455L430 96H179L122 0H-15L399 686H410L589 20L518 -70Q500 -93 493 -107Q486 -121 486 -140Q486 -169 514 -169Q528 -169 537 -160.5Q546 -152 554 -141L619 -179Q604 -205 578.5 -222.5Q553 -240 508 -240ZM403 205 376 311Q371 329 368 348Q365 367 363 383.5Q361 400 360 411Q359 422 359 423Q359 422 354.5 411Q350 400 343 384.5Q336 369 326.5 350Q317 331 307 313L244 205Z" glyph-name="Aogonek" horiz-adv-x="651" unicode="&#260;" /><glyph d="M397 -240Q376 -240 356.5 -234.5Q337 -229 322 -217Q307 -205 298 -187.5Q289 -170 289 -146Q289 -112 304 -85.5Q319 -59 342 -39L385 0H343L329 62H151L116 0H-16L309 528H320L474 15L407 -70Q389 -93 382 -107Q375 -121 375 -140Q375 -169 403 -169Q417 -169 426 -160.5Q435 -152 443 -141L508 -179Q493 -205 467.5 -222.5Q442 -240 397 -240ZM309 152 304 173Q298 197 293.5 221Q289 245 286.5 264Q284 283 282.5 295Q281 307 281 308Q271 283 263 265Q255 247 243.5 224Q232 201 219 179L203 152Z" glyph-name="Aogonek.sc" horiz-adv-x="534" /><glyph d="M399 686H410L594 0H455L430 96H179L122 0H-15ZM403 205 376 311Q371 329 368 348Q365 367 363 383.5Q361 400 360 411Q359 422 359 423Q359 422 354.5 411Q350 400 343 384.5Q336 369 326.5 350Q317 331 307 313L244 205ZM413 732Q386 732 363.5 741.5Q341 751 324 767.5Q307 784 297.5 805.5Q288 827 288 851Q288 875 297.5 897Q307 919 324 935Q341 951 363.5 960.5Q386 970 413 970Q440 970 462.5 960.5Q485 951 502 935Q519 919 528.5 897Q538 875 538 851Q538 827 528.5 805.5Q519 784 502 767.5Q485 751 462.5 741.5Q440 732 413 732ZM413 805Q430 805 442.5 817Q455 829 455 851Q455 873 442.5 885Q430 897 413 897Q396 897 383.5 885Q371 873 371 851Q371 829 383.5 817Q396 805 413 805Z" glyph-name="Aring" horiz-adv-x="651" unicode="&#197;" /><glyph d="M309 152 304 173Q298 197 293.5 221Q289 245 286.5 264Q284 283 282.5 295Q281 307 281 308Q271 283 262.5 264Q254 245 243 223Q232 201 219 179L203 152ZM309 528H320L478 0H343L329 62H151L116 0H-16ZM320 559Q293 559 270.5 568.5Q248 578 231 594.5Q214 611 204.5 632.5Q195 654 195 678Q195 702 204.5 724Q214 746 231 762Q248 778 270.5 787.5Q293 797 320 797Q347 797 369.5 787.5Q392 778 409 762Q426 746 435.5 724Q445 702 445 678Q445 654 435.5 632.5Q426 611 409 594.5Q392 578 369.5 568.5Q347 559 320 559ZM320 632Q337 632 349.5 644Q362 656 362 678Q362 700 349.5 712Q337 724 320 724Q303 724 290.5 712Q278 700 278 678Q278 656 290.5 644Q303 632 320 632Z" glyph-name="Aring.sc" horiz-adv-x="534" /><glyph d="M399 686H410L594 0H455L430 96H179L122 0H-15ZM403 205 376 311Q371 329 368 348Q365 367 363 383.5Q361 400 360 411Q359 422 359 423Q359 422 354.5 411Q350 400 343 384.5Q336 369 326.5 350Q317 331 307 313L244 205ZM222 752Q233 823 268 857.5Q303 892 349 892Q372 892 389 885.5Q406 879 420 871Q437 860 449 853Q461 846 472 846Q487 846 495 857.5Q503 869 507 892L600 883Q592 812 555.5 777.5Q519 743 473 743Q450 743 433 749.5Q416 756 402 764Q385 775 373.5 782Q362 789 350 789Q323 789 315 743Z" glyph-name="Atilde" horiz-adv-x="651" unicode="&#195;" /><glyph d="M309 152 304 173Q298 197 293.5 221Q289 245 286.5 264Q284 283 282.5 295Q281 307 281 308Q271 283 262.5 264Q254 245 243 223Q232 201 219 179L203 152ZM309 528H320L478 0H343L329 62H151L116 0H-16ZM154 601Q163 672 194.5 706.5Q226 741 268 741Q289 741 304 735Q319 729 331 721Q347 710 356.5 703Q366 696 376 696Q390 696 396.5 707Q403 718 407 741L494 732Q486 661 454 626.5Q422 592 380 592Q360 592 344.5 598Q329 604 317 612Q301 623 292 630Q283 637 272 637Q248 637 241 592Z" glyph-name="Atilde.sc" horiz-adv-x="534" /><glyph d="M151 680H389Q437 680 472.5 667Q508 654 532 631Q556 608 567.5 577.5Q579 547 579 512Q579 455 549.5 414Q520 373 454 355Q505 338 532.5 301Q560 264 560 209Q560 163 544 124.5Q528 86 497.5 58.5Q467 31 423 15.5Q379 0 324 0H32ZM328 119Q370 119 396 146.5Q422 174 422 216Q422 251 399.5 272.5Q377 294 336 294H221L190 119ZM350 409Q397 409 419.5 432Q442 455 442 494Q442 524 425 542.5Q408 561 370 561H269L242 409Z" glyph-name="B" horiz-adv-x="607" unicode="B" /><glyph d="M114 522H311Q350 522 379 511.5Q408 501 427.5 483.5Q447 466 457 442Q467 418 467 391Q467 346 440.5 316Q414 286 372 275Q412 263 436 236Q460 209 460 164Q460 89 408.5 44.5Q357 0 269 0H21ZM273 106Q299 106 315.5 124.5Q332 143 332 167Q332 193 319 208Q306 223 280 223H192L172 106ZM290 317Q312 317 326.5 332Q341 347 341 371Q341 392 328.5 404.5Q316 417 293 417H226L210 317Z" glyph-name="B.sc" horiz-adv-x="497" /><glyph d="M393 -9Q323 -9 263.5 17Q204 43 160.5 88Q117 133 92.5 194Q68 255 68 326Q68 405 97 471.5Q126 538 175 586Q224 634 289.5 661Q355 688 427 688Q477 688 516.5 679Q556 670 588.5 652.5Q621 635 647.5 609Q674 583 698 548L586 475Q561 515 522 540.5Q483 566 423 566Q376 566 337 547Q298 528 270 495.5Q242 463 226.5 419Q211 375 211 325Q211 278 225.5 239Q240 200 265 172Q290 144 324.5 128.5Q359 113 398 113Q457 113 497.5 135Q538 157 565 191L668 112Q622 58 557.5 24.5Q493 -9 393 -9Z" glyph-name="C" horiz-adv-x="707" unicode="C" /><glyph d="M306 -9Q249 -9 201.5 11Q154 31 120 66.5Q86 102 67 149.5Q48 197 48 253Q48 314 69 365Q90 416 127.5 453Q165 490 217 510.5Q269 531 330 531Q408 531 460.5 500.5Q513 470 547 417L438 347Q419 379 393 397.5Q367 416 325 416Q293 416 267.5 402.5Q242 389 224.5 366Q207 343 197.5 313Q188 283 188 250Q188 214 198 187.5Q208 161 225 143Q242 125 264 116Q286 107 311 107Q353 107 380.5 124.5Q408 142 424 163L525 88Q508 69 488 51.5Q468 34 442 20.5Q416 7 382.5 -1Q349 -9 306 -9Z" glyph-name="C.sc" horiz-adv-x="565" /><glyph d="M393 -9Q323 -9 263.5 17Q204 43 160.5 88Q117 133 92.5 194Q68 255 68 326Q68 405 97 471.5Q126 538 175 586Q224 634 289.5 661Q355 688 427 688Q477 688 516.5 679Q556 670 588.5 652.5Q621 635 647.5 609Q674 583 698 548L586 475Q561 515 522 540.5Q483 566 423 566Q376 566 337 547Q298 528 270 495.5Q242 463 226.5 419Q211 375 211 325Q211 278 225.5 239Q240 200 265 172Q290 144 324.5 128.5Q359 113 398 113Q457 113 497.5 135Q538 157 565 191L668 112Q622 58 557.5 24.5Q493 -9 393 -9ZM466 926H624L488 738H386Z" glyph-name="Cacute" horiz-adv-x="707" unicode="&#262;" /><glyph d="M306 -9Q249 -9 201.5 11Q154 31 120 66.5Q86 102 67 149.5Q48 197 48 253Q48 314 69 365Q90 416 127.5 453Q165 490 217 510.5Q269 531 330 531Q408 531 460.5 500.5Q513 470 547 417L438 347Q419 379 393 397.5Q367 416 325 416Q293 416 267.5 402.5Q242 389 224.5 366Q207 343 197.5 313Q188 283 188 250Q188 214 198 187.5Q208 161 225 143Q242 125 264 116Q286 107 311 107Q353 107 380.5 124.5Q408 142 424 163L525 88Q508 69 488 51.5Q468 34 442 20.5Q416 7 382.5 -1Q349 -9 306 -9ZM369 773H527L391 585H289Z" glyph-name="Cacute.sc" horiz-adv-x="565" /><glyph d="M393 -9Q323 -9 263.5 17Q204 43 160.5 88Q117 133 92.5 194Q68 255 68 326Q68 405 97 471.5Q126 538 175 586Q224 634 289.5 661Q355 688 427 688Q477 688 516.5 679Q556 670 588.5 652.5Q621 635 647.5 609Q674 583 698 548L586 475Q561 515 522 540.5Q483 566 423 566Q376 566 337 547Q298 528 270 495.5Q242 463 226.5 419Q211 375 211 325Q211 278 225.5 239Q240 200 265 172Q290 144 324.5 128.5Q359 113 398 113Q457 113 497.5 135Q538 157 565 191L668 112Q622 58 557.5 24.5Q493 -9 393 -9ZM318 945H420L463 872L530 945H639L446 728H435Z" glyph-name="Ccaron" horiz-adv-x="707" unicode="&#268;" /><glyph d="M306 -9Q249 -9 201.5 11Q154 31 120 66.5Q86 102 67 149.5Q48 197 48 253Q48 314 69 365Q90 416 127.5 453Q165 490 217 510.5Q269 531 330 531Q408 531 460.5 500.5Q513 470 547 417L438 347Q419 379 393 397.5Q367 416 325 416Q293 416 267.5 402.5Q242 389 224.5 366Q207 343 197.5 313Q188 283 188 250Q188 214 198 187.5Q208 161 225 143Q242 125 264 116Q286 107 311 107Q353 107 380.5 124.5Q408 142 424 163L525 88Q508 69 488 51.5Q468 34 442 20.5Q416 7 382.5 -1Q349 -9 306 -9ZM219 782H321L364 709L431 782H540L347 565H336Z" glyph-name="Ccaron.sc" horiz-adv-x="565" /><glyph d="M316 -240Q268 -240 240.5 -222.5Q213 -205 199 -178L264 -142Q270 -153 279.5 -161.5Q289 -170 308 -170Q325 -170 335.5 -161Q346 -152 346 -134Q346 -117 336 -107Q326 -97 304 -97H269L287 8Q238 24 197.5 54.5Q157 85 128.5 126.5Q100 168 84 218.5Q68 269 68 326Q68 405 97 471.5Q126 538 175 586Q224 634 289.5 661Q355 688 427 688Q477 688 516.5 679Q556 670 588.5 652.5Q621 635 647.5 609Q674 583 698 548L586 475Q561 515 522 540.5Q483 566 423 566Q376 566 337 547Q298 528 270 495.5Q242 463 226.5 419Q211 375 211 325Q211 278 225.5 239Q240 200 265 172Q290 144 324.5 128.5Q359 113 398 113Q457 113 497.5 135Q538 157 565 191L668 112Q622 58 557.5 24.5Q493 -9 393 -9Q383 -9 374 -8.5Q365 -8 356 -7L350 -41Q378 -46 401.5 -69.5Q425 -93 425 -135Q425 -161 416 -180.5Q407 -200 392 -213Q377 -226 357 -233Q337 -240 316 -240Z" glyph-name="Ccedilla" horiz-adv-x="707" unicode="&#199;" /><glyph d="M245 -240Q197 -240 169.5 -222.5Q142 -205 128 -178L193 -142Q199 -153 208.5 -161.5Q218 -170 237 -170Q254 -170 264.5 -161Q275 -152 275 -134Q275 -117 265 -107Q255 -97 233 -97H198L215 6Q177 19 146 43Q115 67 93 99Q71 131 59.5 170Q48 209 48 253Q48 314 69 365Q90 416 127.5 453Q165 490 217 510.5Q269 531 330 531Q408 531 460.5 500.5Q513 470 547 417L438 347Q419 379 393 397.5Q367 416 325 416Q293 416 267.5 402.5Q242 389 224.5 366Q207 343 197.5 313Q188 283 188 250Q188 216 198 189.5Q208 163 225 144.5Q242 126 264 116.5Q286 107 311 107Q353 107 380.5 124.5Q408 142 424 163L525 88Q508 69 488 51.5Q468 34 442 20.5Q416 7 382.5 -1Q349 -9 306 -9Q300 -9 294.5 -8.5Q289 -8 284 -8L279 -41Q307 -46 330.5 -69.5Q354 -93 354 -135Q354 -161 345 -180.5Q336 -200 321 -213Q306 -226 286 -233Q266 -240 245 -240Z" glyph-name="Ccedilla.sc" horiz-adv-x="565" /><glyph d="M393 -9Q323 -9 263.5 17Q204 43 160.5 88Q117 133 92.5 194Q68 255 68 326Q68 405 97 471.5Q126 538 175 586Q224 634 289.5 661Q355 688 427 688Q477 688 516.5 679Q556 670 588.5 652.5Q621 635 647.5 609Q674 583 698 548L586 475Q561 515 522 540.5Q483 566 423 566Q376 566 337 547Q298 528 270 495.5Q242 463 226.5 419Q211 375 211 325Q211 278 225.5 239Q240 200 265 172Q290 144 324.5 128.5Q359 113 398 113Q457 113 497.5 135Q538 157 565 191L668 112Q622 58 557.5 24.5Q493 -9 393 -9ZM476 954H487L604 738H502L459 810L392 738H283Z" glyph-name="Ccircumflex" horiz-adv-x="707" unicode="&#264;" /><glyph d="M306 -9Q249 -9 201.5 11Q154 31 120 66.5Q86 102 67 149.5Q48 197 48 253Q48 314 69 365Q90 416 127.5 453Q165 490 217 510.5Q269 531 330 531Q408 531 460.5 500.5Q513 470 547 417L438 347Q419 379 393 397.5Q367 416 325 416Q293 416 267.5 402.5Q242 389 224.5 366Q207 343 197.5 313Q188 283 188 250Q188 214 198 187.5Q208 161 225 143Q242 125 264 116Q286 107 311 107Q353 107 380.5 124.5Q408 142 424 163L525 88Q508 69 488 51.5Q468 34 442 20.5Q416 7 382.5 -1Q349 -9 306 -9ZM377 791H388L505 575H403L360 647L293 575H184Z" glyph-name="Ccircumflex.sc" horiz-adv-x="565" /><glyph d="M393 -9Q323 -9 263.5 17Q204 43 160.5 88Q117 133 92.5 194Q68 255 68 326Q68 405 97 471.5Q126 538 175 586Q224 634 289.5 661Q355 688 427 688Q477 688 516.5 679Q556 670 588.5 652.5Q621 635 647.5 609Q674 583 698 548L586 475Q561 515 522 540.5Q483 566 423 566Q376 566 337 547Q298 528 270 495.5Q242 463 226.5 419Q211 375 211 325Q211 278 225.5 239Q240 200 265 172Q290 144 324.5 128.5Q359 113 398 113Q457 113 497.5 135Q538 157 565 191L668 112Q622 58 557.5 24.5Q493 -9 393 -9ZM457 733Q424 733 399.5 755.5Q375 778 375 815Q375 851 399 873.5Q423 896 456 896Q490 896 514.5 873.5Q539 851 539 815Q539 778 515 755.5Q491 733 457 733Z" glyph-name="Cdotaccent" horiz-adv-x="707" unicode="&#266;" /><glyph d="M306 -9Q249 -9 201.5 11Q154 31 120 66.5Q86 102 67 149.5Q48 197 48 253Q48 314 69 365Q90 416 127.5 453Q165 490 217 510.5Q269 531 330 531Q408 531 460.5 500.5Q513 470 547 417L438 347Q419 379 393 397.5Q367 416 325 416Q293 416 267.5 402.5Q242 389 224.5 366Q207 343 197.5 313Q188 283 188 250Q188 214 198 187.5Q208 161 225 143Q242 125 264 116Q286 107 311 107Q353 107 380.5 124.5Q408 142 424 163L525 88Q508 69 488 51.5Q468 34 442 20.5Q416 7 382.5 -1Q349 -9 306 -9ZM359 575Q326 575 301.5 597.5Q277 620 277 657Q277 693 301 715.5Q325 738 358 738Q392 738 416.5 715.5Q441 693 441 657Q441 620 417 597.5Q393 575 359 575Z" glyph-name="Cdotaccent.sc" horiz-adv-x="565" /><glyph d="M152 680H330Q405 680 464.5 657.5Q524 635 565 594Q606 553 627.5 495Q649 437 649 366Q649 280 620.5 212Q592 144 541 97Q490 50 419 25Q348 0 264 0H32ZM267 120Q328 120 373 139Q418 158 448 192Q478 226 492.5 272Q507 318 507 372Q507 415 495.5 449.5Q484 484 460 508.5Q436 533 399.5 546.5Q363 560 313 560H268L190 120Z" glyph-name="D" horiz-adv-x="667" unicode="D" /><glyph d="M113 522H277Q331 522 376.5 504.5Q422 487 455 454.5Q488 422 506.5 376.5Q525 331 525 274Q525 209 502.5 158Q480 107 441 72Q402 37 348.5 18.5Q295 0 234 0H21ZM240 116Q276 116 303.5 129Q331 142 349.5 164.5Q368 187 377.5 216.5Q387 246 387 280Q387 340 355.5 373Q324 406 259 406H227L175 116Z" glyph-name="D.sc" horiz-adv-x="552" /><glyph d="M152 680H330Q405 680 464.5 657.5Q524 635 565 594Q606 553 627.5 495Q649 437 649 366Q649 280 620.5 212Q592 144 541 97Q490 50 419 25Q348 0 264 0H32ZM267 120Q328 120 373 139Q418 158 448 192Q478 226 492.5 272Q507 318 507 372Q507 415 495.5 449.5Q484 484 460 508.5Q436 533 399.5 546.5Q363 560 313 560H268L190 120ZM255 945H357L400 872L467 945H576L383 728H372Z" glyph-name="Dcaron" horiz-adv-x="667" unicode="&#270;" /><glyph d="M113 522H277Q331 522 376.5 504.5Q422 487 455 454.5Q488 422 506.5 376.5Q525 331 525 274Q525 209 502.5 158Q480 107 441 72Q402 37 348.5 18.5Q295 0 234 0H21ZM240 116Q276 116 303.5 129Q331 142 349.5 164.5Q368 187 377.5 216.5Q387 246 387 280Q387 340 355.5 373Q324 406 259 406H227L175 116ZM179 782H281L324 709L391 782H500L307 565H296Z" glyph-name="Dcaron.sc" horiz-adv-x="552" /><glyph d="M81 280H25L46 397H102L152 680H330Q405 680 464.5 657.5Q524 635 565 594Q606 553 627.5 495Q649 437 649 366Q649 280 620.5 212Q592 144 541 97Q490 50 419 25Q348 0 264 0H32ZM267 120Q328 120 373 139Q418 158 448 192Q478 226 492.5 272Q507 318 507 372Q507 415 495.5 449.5Q484 484 460 508.5Q436 533 399.5 546.5Q363 560 313 560H268L239 397H389L368 280H218L190 120Z" glyph-name="Dcroat" horiz-adv-x="667" unicode="&#272;" /><glyph d="M58 204H15L35 315H78L114 522H277Q331 522 376.5 504.5Q422 487 455 454.5Q488 422 506.5 376.5Q525 331 525 274Q525 209 502.5 158Q480 107 441 72Q402 37 348.5 18.5Q295 0 234 0H22ZM240 116Q276 116 303.5 129Q331 142 349.5 164.5Q368 187 377.5 216.5Q387 246 387 280Q387 340 355.5 373Q324 406 259 406H226L210 315H305L285 204H190L174 116Z" glyph-name="Dcroat.sc" horiz-adv-x="552" /><glyph d="M152 680H593L572 560H267L239 400H506L485 282H218L189 120H508L486 0H32Z" glyph-name="E" horiz-adv-x="576" unicode="E" /><glyph d="M113 522H476L456 408H227L211 317H404L385 209H192L175 114H417L397 0H21Z" glyph-name="E.sc" horiz-adv-x="469" /><glyph d="M152 680H593L572 560H267L239 400H506L485 282H218L189 120H508L486 0H32ZM405 926H563L427 738H325Z" glyph-name="Eacute" horiz-adv-x="576" unicode="&#201;" /><glyph d="M113 522H476L456 408H227L211 317H404L385 209H192L175 114H417L397 0H21ZM319 773H477L341 585H239Z" glyph-name="Eacute.sc" horiz-adv-x="469" /><glyph d="M152 680H593L572 560H267L239 400H506L485 282H218L189 120H508L486 0H32ZM397 748Q326 748 286 788Q246 828 243 888L344 903Q346 877 358.5 861.5Q371 846 398 846Q425 846 439 861.5Q453 877 458 903L557 888Q548 828 507 788Q466 748 397 748Z" glyph-name="Ebreve" horiz-adv-x="576" unicode="&#276;" /><glyph d="M113 522H476L456 408H227L211 317H404L385 209H192L175 114H417L397 0H21ZM321 586Q250 586 210 626Q170 666 167 726L268 741Q270 715 282.5 699.5Q295 684 322 684Q349 684 363 699.5Q377 715 382 741L481 726Q472 666 431 626Q390 586 321 586Z" glyph-name="Ebreve.sc" horiz-adv-x="469" /><glyph d="M152 680H593L572 560H267L239 400H506L485 282H218L189 120H508L486 0H32ZM255 945H357L400 872L467 945H576L383 728H372Z" glyph-name="Ecaron" horiz-adv-x="576" unicode="&#282;" /><glyph d="M113 522H476L456 408H227L211 317H404L385 209H192L175 114H417L397 0H21ZM169 782H271L314 709L381 782H490L297 565H286Z" glyph-name="Ecaron.sc" horiz-adv-x="469" /><glyph d="M152 680H593L572 560H267L239 400H506L485 282H218L189 120H508L486 0H32ZM412 954H423L540 738H438L395 810L328 738H219Z" glyph-name="Ecircumflex" horiz-adv-x="576" unicode="&#202;" /><glyph d="M113 522H476L456 408H227L211 317H404L385 209H192L175 114H417L397 0H21ZM329 791H340L457 575H355L312 647L245 575H136Z" glyph-name="Ecircumflex.sc" horiz-adv-x="469" /><glyph d="M152 680H593L572 560H267L239 400H506L485 282H218L189 120H508L486 0H32ZM491 741Q463 741 440.5 762.5Q418 784 418 815Q418 846 440.5 867.5Q463 889 491 889Q520 889 541.5 867.5Q563 846 563 815Q563 784 541.5 762.5Q520 741 491 741ZM291 741Q263 741 241 762.5Q219 784 219 815Q219 846 241 867.5Q263 889 291 889Q320 889 342 867.5Q364 846 364 815Q364 784 342 762.5Q320 741 291 741Z" glyph-name="Edieresis" horiz-adv-x="576" unicode="&#203;" /><glyph d="M113 522H476L456 408H227L211 317H404L385 209H192L175 114H417L397 0H21ZM410 583Q382 583 359.5 604.5Q337 626 337 657Q337 688 359.5 709.5Q382 731 410 731Q439 731 460.5 709.5Q482 688 482 657Q482 626 460.5 604.5Q439 583 410 583ZM210 583Q182 583 160 604.5Q138 626 138 657Q138 688 160 709.5Q182 731 210 731Q239 731 261 709.5Q283 688 283 657Q283 626 261 604.5Q239 583 210 583Z" glyph-name="Edieresis.sc" horiz-adv-x="469" /><glyph d="M152 680H593L572 560H267L239 400H506L485 282H218L189 120H508L486 0H32ZM391 733Q358 733 333.5 755.5Q309 778 309 815Q309 851 333 873.5Q357 896 390 896Q424 896 448.5 873.5Q473 851 473 815Q473 778 449 755.5Q425 733 391 733Z" glyph-name="Edotaccent" horiz-adv-x="576" unicode="&#278;" /><glyph d="M113 522H476L456 408H227L211 317H404L385 209H192L175 114H417L397 0H21ZM308 575Q275 575 250.5 597.5Q226 620 226 657Q226 693 250 715.5Q274 738 307 738Q341 738 365.5 715.5Q390 693 390 657Q390 620 366 597.5Q342 575 308 575Z" glyph-name="Edotaccent.sc" horiz-adv-x="469" /><glyph d="M152 680H593L572 560H267L239 400H506L485 282H218L189 120H508L486 0H32ZM246 926H398L437 738H337Z" glyph-name="Egrave" horiz-adv-x="576" unicode="&#200;" /><glyph d="M113 522H476L456 408H227L211 317H404L385 209H192L175 114H417L397 0H21ZM149 773H301L340 585H240Z" glyph-name="Egrave.sc" horiz-adv-x="469" /><glyph d="M152 680H593L572 560H267L239 400H506L485 282H218L189 120H508L486 0H32ZM272 846H532L515 750H255Z" glyph-name="Emacron" horiz-adv-x="576" unicode="&#274;" /><glyph d="M113 522H476L456 408H227L211 317H404L385 209H192L175 114H417L397 0H21ZM187 698H447L430 602H170Z" glyph-name="Emacron.sc" horiz-adv-x="469" /><glyph d="M364 -240Q343 -240 323.5 -234.5Q304 -229 289 -217Q274 -205 265 -187.5Q256 -170 256 -146Q256 -112 271 -85.5Q286 -59 309 -39L352 0H32L152 680H593L572 560H267L239 400H506L485 282H218L189 120H508L486 0H429L374 -70Q356 -93 349 -107Q342 -121 342 -140Q342 -169 370 -169Q384 -169 393 -160.5Q402 -152 410 -141L475 -179Q460 -205 434.5 -222.5Q409 -240 364 -240Z" glyph-name="Eogonek" horiz-adv-x="576" unicode="&#280;" /><glyph d="M281 -240Q260 -240 240.5 -234.5Q221 -229 206 -217Q191 -205 182 -187.5Q173 -170 173 -146Q173 -112 188 -85.5Q203 -59 226 -39L269 0H21L113 522H476L456 408H227L211 317H404L385 209H192L175 114H417L397 0H346L291 -70Q273 -93 266 -107Q259 -121 259 -140Q259 -169 287 -169Q301 -169 310 -160.5Q319 -152 327 -141L392 -179Q377 -205 351.5 -222.5Q326 -240 281 -240Z" glyph-name="Eogonek.sc" horiz-adv-x="469" /><glyph d="M81 280H25L46 397H102L152 680H330Q405 680 464.5 657.5Q524 635 565 594Q606 553 627.5 495Q649 437 649 366Q649 280 620.5 212Q592 144 541 97Q490 50 419 25Q348 0 264 0H32ZM267 120Q328 120 373 139Q418 158 448 192Q478 226 492.5 272Q507 318 507 372Q507 415 495.5 449.5Q484 484 460 508.5Q436 533 399.5 546.5Q363 560 313 560H268L239 397H389L368 280H218L190 120Z" glyph-name="Eth" horiz-adv-x="667" unicode="&#208;" /><glyph d="M58 204H15L35 315H78L114 522H277Q331 522 376.5 504.5Q422 487 455 454.5Q488 422 506.5 376.5Q525 331 525 274Q525 209 502.5 158Q480 107 441 72Q402 37 348.5 18.5Q295 0 234 0H22ZM240 116Q276 116 303.5 129Q331 142 349.5 164.5Q368 187 377.5 216.5Q387 246 387 280Q387 340 355.5 373Q324 406 259 406H226L210 315H305L285 204H190L174 116Z" glyph-name="Eth.sc" horiz-adv-x="552" /><glyph d="M371 -9Q322 -9 279 6Q236 21 202 50.5Q168 80 144.5 122.5Q121 165 112 219H34L50 310H106Q106 325 107 338Q108 351 110 363H58L75 454H130Q148 508 178 551Q208 594 246.5 624.5Q285 655 330.5 671.5Q376 688 427 688Q513 688 569 651Q625 614 657 532L537 473Q519 518 493.5 544Q468 570 421 570Q371 570 334.5 537.5Q298 505 275 454H467L450 363H250Q248 351 247 338Q246 325 245 310H441L425 219H253Q267 167 298 138.5Q329 110 376 110Q423 110 453.5 132.5Q484 155 513 200L617 132Q572 62 514 26.5Q456 -9 371 -9Z" glyph-name="Euro" horiz-adv-x="649" unicode="&#8364;" /><glyph d="M32 283 47 365H111Q127 404 153 434.5Q179 465 212 486.5Q245 508 283 519.5Q321 531 360 531Q431 531 481 508Q531 485 572 431L473 363Q454 390 430 403Q406 416 362 416Q329 416 301 403.5Q273 391 254 365H389L374 283H224Q223 276 223 269Q223 262 223 254V237H367L353 155H248Q280 104 351 104Q387 104 411.5 116.5Q436 129 457 152L546 79Q509 32 461.5 11.5Q414 -9 349 -9Q263 -9 198.5 35.5Q134 80 106 155H11L25 237H89V253Q89 261 89 268Q89 275 90 283Z" glyph-name="Euro.os" horiz-adv-x="590" /><glyph d="M337 -9Q246 -9 185.5 38.5Q125 86 101 162H11L25 240H86Q86 249 87 277H32L46 355H100Q114 397 139 430Q164 463 197 485.5Q230 508 269.5 519.5Q309 531 353 531Q429 531 478.5 500Q528 469 560 414L451 351Q434 380 410.5 396.5Q387 413 348 413Q316 413 289 398.5Q262 384 245 355H394L380 277H226Q224 267 224 257.5Q224 248 224 240H373L359 162H241Q266 106 341 106Q371 106 397 122Q423 138 439 158L537 85Q499 37 452.5 14Q406 -9 337 -9Z" glyph-name="Euro.sc" horiz-adv-x="578" /><glyph d="M276 -9Q195 -9 139.5 38.5Q84 86 70 166H9L22 244H64L67 281H29L42 359H87Q101 396 123 427.5Q145 459 175 482Q205 505 241.5 518Q278 531 320 531Q390 531 435 502Q480 473 505 422L403 361Q387 391 367.5 405.5Q348 420 319 420Q260 420 226 359H343L329 281H200Q198 272 197.5 263Q197 254 196 244H323L310 166H200Q212 104 279 104Q311 104 331.5 119Q352 134 370 160L467 95Q438 47 392.5 19Q347 -9 276 -9Z" glyph-name="Euro.sctab" horiz-adv-x="500" /><glyph d="M22 283 37 365H89Q104 404 127.5 434.5Q151 465 181 486.5Q211 508 245.5 519.5Q280 531 316 531Q381 531 429 509Q477 487 519 431L424 359Q403 389 380.5 402.5Q358 416 318 416Q258 416 228 365H348L333 283H204Q203 275 203 266.5Q203 258 203 249V237H325L311 155H219Q241 104 304 104Q338 104 358.5 117Q379 130 399 153L490 79Q454 34 409.5 12.5Q365 -9 302 -9Q224 -9 165 33.5Q106 76 82 155H0L14 237H69V251Q69 259 69 267Q69 275 70 283Z" glyph-name="Euro.tab" horiz-adv-x="520" /><glyph d="M317 -9Q274 -9 235.5 5Q197 19 166 46.5Q135 74 114.5 116.5Q94 159 88 216H22L38 307H87Q89 335 93 360H48L64 451H114Q133 506 161.5 550Q190 594 226.5 624.5Q263 655 305.5 671.5Q348 688 394 688Q470 688 526.5 647Q583 606 603 518L481 476Q467 526 446.5 548.5Q426 571 387 571Q345 571 312.5 538Q280 505 258 451H404L388 360H233Q229 335 227 307H378L362 216H228Q245 110 322 110Q362 110 389 133Q416 156 445 209L557 151Q513 64 453 27.5Q393 -9 317 -9Z" glyph-name="Euro.tablining" horiz-adv-x="580" /><glyph d="M152 680H581L560 560H268L236 379H501L479 257H214L169 0H32Z" glyph-name="F" horiz-adv-x="542" unicode="F" /><glyph d="M113 522H462L441 405H227L206 285H400L380 169H186L156 0H21Z" glyph-name="F.sc" horiz-adv-x="450" /><glyph d="M421 -9Q338 -9 273.5 15.5Q209 40 164 84.5Q119 129 95.5 191Q72 253 72 327Q72 410 101.5 476.5Q131 543 181.5 590Q232 637 298 662.5Q364 688 436 688Q484 688 521.5 681.5Q559 675 588.5 663.5Q618 652 641.5 635.5Q665 619 686 599L590 506Q565 530 528.5 548Q492 566 433 566Q386 566 346 549.5Q306 533 276.5 502.5Q247 472 230 427.5Q213 383 213 328Q213 279 226.5 239Q240 199 267 171Q294 143 333 127.5Q372 112 423 112Q457 112 489 118Q521 124 550 138L569 245H408L429 364H715L662 61Q624 35 563 13Q502 -9 421 -9Z" glyph-name="G" horiz-adv-x="747" unicode="G" /><glyph d="M405 -9Q328 -9 266 16Q204 41 160 85Q116 129 92 190.5Q68 252 68 326Q68 406 96.5 472.5Q125 539 174 587Q223 635 288.5 661.5Q354 688 428 688Q535 688 602.5 651Q670 614 711 553L605 476Q577 515 535 540.5Q493 566 424 566Q376 566 336.5 548.5Q297 531 268.5 499Q240 467 224.5 423Q209 379 209 325Q209 280 223 241Q237 202 262.5 173Q288 144 325 127.5Q362 111 409 111Q448 111 481.5 121.5Q515 132 540.5 150Q566 168 583 192.5Q600 217 606 246H427L448 364H757Q757 281 735 212.5Q713 144 669.5 94.5Q626 45 560 18Q494 -9 405 -9Z" glyph-name="G.alt" horiz-adv-x="782" /><glyph d="M330 -9Q266 -9 214 10.5Q162 30 125 65Q88 100 68 148.5Q48 197 48 254Q48 318 72 369Q96 420 136 456Q176 492 228 511.5Q280 531 335 531Q375 531 405 525.5Q435 520 458.5 510Q482 500 500 486.5Q518 473 535 457L441 368Q425 384 398.5 398.5Q372 413 332 413Q303 413 276.5 402.5Q250 392 230 371.5Q210 351 198.5 321.5Q187 292 187 255Q187 188 222.5 145.5Q258 103 332 103Q344 103 367 106Q390 109 410 117L421 181H309L328 288H560L516 40Q487 21 441.5 6Q396 -9 330 -9Z" glyph-name="G.sc" horiz-adv-x="593" /><glyph d="M321 -9Q261 -9 211 11Q161 31 124.5 66Q88 101 68 149.5Q48 198 48 254Q48 314 69.5 365Q91 416 128.5 452.5Q166 489 217 510Q268 531 327 531Q369 531 402.5 522.5Q436 514 463.5 499Q491 484 512.5 463.5Q534 443 551 418L439 346Q422 375 394.5 394Q367 413 322 413Q289 413 263.5 400.5Q238 388 220.5 366Q203 344 194 314Q185 284 185 248Q185 218 195 192.5Q205 167 223.5 147.5Q242 128 267.5 117Q293 106 324 106Q372 106 404.5 127.5Q437 149 450 186H338L356 292H594Q595 230 579.5 175.5Q564 121 530.5 80Q497 39 445 15Q393 -9 321 -9Z" glyph-name="G.scalt" horiz-adv-x="618" /><glyph d="M421 -9Q338 -9 273.5 15.5Q209 40 164 84.5Q119 129 95.5 191Q72 253 72 327Q72 410 101.5 476.5Q131 543 181.5 590Q232 637 298 662.5Q364 688 436 688Q484 688 521.5 681.5Q559 675 588.5 663.5Q618 652 641.5 635.5Q665 619 686 599L590 506Q565 530 528.5 548Q492 566 433 566Q386 566 346 549.5Q306 533 276.5 502.5Q247 472 230 427.5Q213 383 213 328Q213 279 226.5 239Q240 199 267 171Q294 143 333 127.5Q372 112 423 112Q457 112 489 118Q521 124 550 138L569 245H408L429 364H715L662 61Q624 35 563 13Q502 -9 421 -9ZM450 737Q379 737 339 777Q299 817 296 877L397 892Q399 866 411.5 850.5Q424 835 451 835Q478 835 492 850.5Q506 866 511 892L610 877Q601 817 560 777Q519 737 450 737Z" glyph-name="Gbreve" horiz-adv-x="747" unicode="&#286;" /><glyph d="M405 -9Q328 -9 266 16Q204 41 160 85Q116 129 92 190.5Q68 252 68 326Q68 406 96.5 472.5Q125 539 174 587Q223 635 288.5 661.5Q354 688 428 688Q535 688 602.5 651Q670 614 711 553L605 476Q577 515 535 540.5Q493 566 424 566Q376 566 336.5 548.5Q297 531 268.5 499Q240 467 224.5 423Q209 379 209 325Q209 280 223 241Q237 202 262.5 173Q288 144 325 127.5Q362 111 409 111Q448 111 481.5 121.5Q515 132 540.5 150Q566 168 583 192.5Q600 217 606 246H427L448 364H757Q757 281 735 212.5Q713 144 669.5 94.5Q626 45 560 18Q494 -9 405 -9ZM445 737Q374 737 334 777Q294 817 291 877L392 892Q394 866 406.5 850.5Q419 835 446 835Q473 835 487 850.5Q501 866 506 892L605 877Q596 817 555 777Q514 737 445 737Z" glyph-name="Gbreve.alt" horiz-adv-x="782" /><glyph d="M330 -9Q266 -9 214 10.5Q162 30 125 65Q88 100 68 148.5Q48 197 48 254Q48 318 72 369Q96 420 136 456Q176 492 228 511.5Q280 531 335 531Q375 531 405 525.5Q435 520 458.5 510Q482 500 500 486.5Q518 473 535 457L441 368Q425 384 398.5 398.5Q372 413 332 413Q303 413 276.5 402.5Q250 392 230 371.5Q210 351 198.5 321.5Q187 292 187 255Q187 188 222.5 145.5Q258 103 332 103Q344 103 367 106Q390 109 410 117L421 181H309L328 288H560L516 40Q487 21 441.5 6Q396 -9 330 -9ZM364 586Q293 586 253 626Q213 666 210 726L311 741Q313 715 325.5 699.5Q338 684 365 684Q392 684 406 699.5Q420 715 425 741L524 726Q515 666 474 626Q433 586 364 586Z" glyph-name="Gbreve.sc" horiz-adv-x="593" /><glyph d="M321 -9Q261 -9 211 11Q161 31 124.5 66Q88 101 68 149.5Q48 198 48 254Q48 314 69.5 365Q91 416 128.5 452.5Q166 489 217 510Q268 531 327 531Q369 531 402.5 522.5Q436 514 463.5 499Q491 484 512.5 463.5Q534 443 551 418L439 346Q422 375 394.5 394Q367 413 322 413Q289 413 263.5 400.5Q238 388 220.5 366Q203 344 194 314Q185 284 185 248Q185 218 195 192.5Q205 167 223.5 147.5Q242 128 267.5 117Q293 106 324 106Q372 106 404.5 127.5Q437 149 450 186H338L356 292H594Q595 230 579.5 175.5Q564 121 530.5 80Q497 39 445 15Q393 -9 321 -9ZM352 586Q281 586 241 626Q201 666 198 726L299 741Q301 715 313.5 699.5Q326 684 353 684Q380 684 394 699.5Q408 715 413 741L512 726Q503 666 462 626Q421 586 352 586Z" glyph-name="Gbreve.scalt" horiz-adv-x="618" /><glyph d="M421 -9Q338 -9 273.5 15.5Q209 40 164 84.5Q119 129 95.5 191Q72 253 72 327Q72 410 101.5 476.5Q131 543 181.5 590Q232 637 298 662.5Q364 688 436 688Q484 688 521.5 681.5Q559 675 588.5 663.5Q618 652 641.5 635.5Q665 619 686 599L590 506Q565 530 528.5 548Q492 566 433 566Q386 566 346 549.5Q306 533 276.5 502.5Q247 472 230 427.5Q213 383 213 328Q213 279 226.5 239Q240 199 267 171Q294 143 333 127.5Q372 112 423 112Q457 112 489 118Q521 124 550 138L569 245H408L429 364H715L662 61Q624 35 563 13Q502 -9 421 -9ZM469 954H480L597 738H495L452 810L385 738H276Z" glyph-name="Gcircumflex" horiz-adv-x="747" unicode="&#284;" /><glyph d="M405 -9Q328 -9 266 16Q204 41 160 85Q116 129 92 190.5Q68 252 68 326Q68 406 96.5 472.5Q125 539 174 587Q223 635 288.5 661.5Q354 688 428 688Q535 688 602.5 651Q670 614 711 553L605 476Q577 515 535 540.5Q493 566 424 566Q376 566 336.5 548.5Q297 531 268.5 499Q240 467 224.5 423Q209 379 209 325Q209 280 223 241Q237 202 262.5 173Q288 144 325 127.5Q362 111 409 111Q448 111 481.5 121.5Q515 132 540.5 150Q566 168 583 192.5Q600 217 606 246H427L448 364H757Q757 281 735 212.5Q713 144 669.5 94.5Q626 45 560 18Q494 -9 405 -9ZM464 954H475L592 738H490L447 810L380 738H271Z" glyph-name="Gcircumflex.alt" horiz-adv-x="782" /><glyph d="M330 -9Q266 -9 214 10.5Q162 30 125 65Q88 100 68 148.5Q48 197 48 254Q48 318 72 369Q96 420 136 456Q176 492 228 511.5Q280 531 335 531Q375 531 405 525.5Q435 520 458.5 510Q482 500 500 486.5Q518 473 535 457L441 368Q425 384 398.5 398.5Q372 413 332 413Q303 413 276.5 402.5Q250 392 230 371.5Q210 351 198.5 321.5Q187 292 187 255Q187 188 222.5 145.5Q258 103 332 103Q344 103 367 106Q390 109 410 117L421 181H309L328 288H560L516 40Q487 21 441.5 6Q396 -9 330 -9ZM381 791H392L509 575H407L364 647L297 575H188Z" glyph-name="Gcircumflex.sc" horiz-adv-x="593" /><glyph d="M321 -9Q261 -9 211 11Q161 31 124.5 66Q88 101 68 149.5Q48 198 48 254Q48 314 69.5 365Q91 416 128.5 452.5Q166 489 217 510Q268 531 327 531Q369 531 402.5 522.5Q436 514 463.5 499Q491 484 512.5 463.5Q534 443 551 418L439 346Q422 375 394.5 394Q367 413 322 413Q289 413 263.5 400.5Q238 388 220.5 366Q203 344 194 314Q185 284 185 248Q185 218 195 192.5Q205 167 223.5 147.5Q242 128 267.5 117Q293 106 324 106Q372 106 404.5 127.5Q437 149 450 186H338L356 292H594Q595 230 579.5 175.5Q564 121 530.5 80Q497 39 445 15Q393 -9 321 -9ZM378 802H389L506 586H404L361 658L294 586H185Z" glyph-name="Gcircumflex.scalt" horiz-adv-x="618" /><glyph d="M421 -9Q338 -9 273.5 15.5Q209 40 164 84.5Q119 129 95.5 191Q72 253 72 327Q72 410 101.5 476.5Q131 543 181.5 590Q232 637 298 662.5Q364 688 436 688Q484 688 521.5 681.5Q559 675 588.5 663.5Q618 652 641.5 635.5Q665 619 686 599L590 506Q565 530 528.5 548Q492 566 433 566Q386 566 346 549.5Q306 533 276.5 502.5Q247 472 230 427.5Q213 383 213 328Q213 279 226.5 239Q240 199 267 171Q294 143 333 127.5Q372 112 423 112Q457 112 489 118Q521 124 550 138L569 245H408L429 364H715L662 61Q624 35 563 13Q502 -9 421 -9ZM297 -183Q281 -175 269 -157.5Q257 -140 257 -115Q257 -83 280 -62Q303 -41 332 -41Q362 -41 385 -61.5Q408 -82 408 -114Q408 -140 399.5 -158.5Q391 -177 375 -199L313 -282H249Z" glyph-name="Gcommaaccent" horiz-adv-x="747" unicode="&#290;" /><glyph d="M405 -9Q328 -9 266 16Q204 41 160 85Q116 129 92 190.5Q68 252 68 326Q68 406 96.5 472.5Q125 539 174 587Q223 635 288.5 661.5Q354 688 428 688Q535 688 602.5 651Q670 614 711 553L605 476Q577 515 535 540.5Q493 566 424 566Q376 566 336.5 548.5Q297 531 268.5 499Q240 467 224.5 423Q209 379 209 325Q209 280 223 241Q237 202 262.5 173Q288 144 325 127.5Q362 111 409 111Q448 111 481.5 121.5Q515 132 540.5 150Q566 168 583 192.5Q600 217 606 246H427L448 364H757Q757 281 735 212.5Q713 144 669.5 94.5Q626 45 560 18Q494 -9 405 -9ZM320 -183Q304 -175 292 -157.5Q280 -140 280 -115Q280 -83 303 -62Q326 -41 355 -41Q385 -41 408 -61.5Q431 -82 431 -114Q431 -140 422.5 -158.5Q414 -177 398 -199L336 -282H272Z" glyph-name="Gcommaaccent.alt" horiz-adv-x="782" /><glyph d="M330 -9Q266 -9 214 10.5Q162 30 125 65Q88 100 68 148.5Q48 197 48 254Q48 318 72 369Q96 420 136 456Q176 492 228 511.5Q280 531 335 531Q375 531 405 525.5Q435 520 458.5 510Q482 500 500 486.5Q518 473 535 457L441 368Q425 384 398.5 398.5Q372 413 332 413Q303 413 276.5 402.5Q250 392 230 371.5Q210 351 198.5 321.5Q187 292 187 255Q187 188 222.5 145.5Q258 103 332 103Q344 103 367 106Q390 109 410 117L421 181H309L328 288H560L516 40Q487 21 441.5 6Q396 -9 330 -9ZM223 -184Q207 -176 195 -158.5Q183 -141 183 -116Q183 -84 206 -63Q229 -42 258 -42Q288 -42 311 -62.5Q334 -83 334 -115Q334 -141 325.5 -159.5Q317 -178 301 -200L239 -283H175Z" glyph-name="Gcommaaccent.sc" horiz-adv-x="593" /><glyph d="M321 -9Q261 -9 211 11Q161 31 124.5 66Q88 101 68 149.5Q48 198 48 254Q48 314 69.5 365Q91 416 128.5 452.5Q166 489 217 510Q268 531 327 531Q369 531 402.5 522.5Q436 514 463.5 499Q491 484 512.5 463.5Q534 443 551 418L439 346Q422 375 394.5 394Q367 413 322 413Q289 413 263.5 400.5Q238 388 220.5 366Q203 344 194 314Q185 284 185 248Q185 218 195 192.5Q205 167 223.5 147.5Q242 128 267.5 117Q293 106 324 106Q372 106 404.5 127.5Q437 149 450 186H338L356 292H594Q595 230 579.5 175.5Q564 121 530.5 80Q497 39 445 15Q393 -9 321 -9ZM228 -184Q212 -176 200 -158.5Q188 -141 188 -116Q188 -84 211 -63Q234 -42 263 -42Q293 -42 316 -62.5Q339 -83 339 -115Q339 -141 330.5 -159.5Q322 -178 306 -200L244 -283H180Z" glyph-name="Gcommaaccent.scalt" horiz-adv-x="618" /><glyph d="M421 -9Q338 -9 273.5 15.5Q209 40 164 84.5Q119 129 95.5 191Q72 253 72 327Q72 410 101.5 476.5Q131 543 181.5 590Q232 637 298 662.5Q364 688 436 688Q484 688 521.5 681.5Q559 675 588.5 663.5Q618 652 641.5 635.5Q665 619 686 599L590 506Q565 530 528.5 548Q492 566 433 566Q386 566 346 549.5Q306 533 276.5 502.5Q247 472 230 427.5Q213 383 213 328Q213 279 226.5 239Q240 199 267 171Q294 143 333 127.5Q372 112 423 112Q457 112 489 118Q521 124 550 138L569 245H408L429 364H715L662 61Q624 35 563 13Q502 -9 421 -9ZM481 733Q448 733 423.5 755.5Q399 778 399 815Q399 851 423 873.5Q447 896 480 896Q514 896 538.5 873.5Q563 851 563 815Q563 778 539 755.5Q515 733 481 733Z" glyph-name="Gdotaccent" horiz-adv-x="747" unicode="&#288;" /><glyph d="M405 -9Q328 -9 266 16Q204 41 160 85Q116 129 92 190.5Q68 252 68 326Q68 406 96.5 472.5Q125 539 174 587Q223 635 288.5 661.5Q354 688 428 688Q535 688 602.5 651Q670 614 711 553L605 476Q577 515 535 540.5Q493 566 424 566Q376 566 336.5 548.5Q297 531 268.5 499Q240 467 224.5 423Q209 379 209 325Q209 280 223 241Q237 202 262.5 173Q288 144 325 127.5Q362 111 409 111Q448 111 481.5 121.5Q515 132 540.5 150Q566 168 583 192.5Q600 217 606 246H427L448 364H757Q757 281 735 212.5Q713 144 669.5 94.5Q626 45 560 18Q494 -9 405 -9ZM482 733Q449 733 424.5 755.5Q400 778 400 815Q400 851 424 873.5Q448 896 481 896Q515 896 539.5 873.5Q564 851 564 815Q564 778 540 755.5Q516 733 482 733Z" glyph-name="Gdotaccent.alt" horiz-adv-x="782" /><glyph d="M330 -9Q266 -9 214 10.5Q162 30 125 65Q88 100 68 148.5Q48 197 48 254Q48 318 72 369Q96 420 136 456Q176 492 228 511.5Q280 531 335 531Q375 531 405 525.5Q435 520 458.5 510Q482 500 500 486.5Q518 473 535 457L441 368Q425 384 398.5 398.5Q372 413 332 413Q303 413 276.5 402.5Q250 392 230 371.5Q210 351 198.5 321.5Q187 292 187 255Q187 188 222.5 145.5Q258 103 332 103Q344 103 367 106Q390 109 410 117L421 181H309L328 288H560L516 40Q487 21 441.5 6Q396 -9 330 -9ZM368 575Q335 575 310.5 597.5Q286 620 286 657Q286 693 310 715.5Q334 738 367 738Q401 738 425.5 715.5Q450 693 450 657Q450 620 426 597.5Q402 575 368 575Z" glyph-name="Gdotaccent.sc" horiz-adv-x="593" /><glyph d="M321 -9Q261 -9 211 11Q161 31 124.5 66Q88 101 68 149.5Q48 198 48 254Q48 314 69.5 365Q91 416 128.5 452.5Q166 489 217 510Q268 531 327 531Q369 531 402.5 522.5Q436 514 463.5 499Q491 484 512.5 463.5Q534 443 551 418L439 346Q422 375 394.5 394Q367 413 322 413Q289 413 263.5 400.5Q238 388 220.5 366Q203 344 194 314Q185 284 185 248Q185 218 195 192.5Q205 167 223.5 147.5Q242 128 267.5 117Q293 106 324 106Q372 106 404.5 127.5Q437 149 450 186H338L356 292H594Q595 230 579.5 175.5Q564 121 530.5 80Q497 39 445 15Q393 -9 321 -9ZM354 575Q321 575 296.5 597.5Q272 620 272 657Q272 693 296 715.5Q320 738 353 738Q387 738 411.5 715.5Q436 693 436 657Q436 620 412 597.5Q388 575 354 575Z" glyph-name="Gdotaccent.scalt" horiz-adv-x="618" /><glyph d="M152 680H289L238 390H522L574 680H711L591 0H454L501 269H216L169 0H32Z" glyph-name="H" horiz-adv-x="695" unicode="H" /><glyph d="M113 522H248L212 318H401L437 522H572L480 0H345L380 199H191L156 0H21Z" glyph-name="H.sc" horiz-adv-x="573" /><glyph d="M59 557H130L152 680H289L267 557H552L574 680H711L689 557H759L743 465H673L591 0H454L501 269H216L169 0H32L114 465H43ZM522 390 535 465H251L238 390Z" glyph-name="Hbar" horiz-adv-x="695" unicode="&#294;" /><glyph d="M44 445H99L113 522H248L234 445H423L437 522H572L558 445H613L599 361H543L480 0H345L380 199H191L156 0H21L84 361H30ZM400 310 409 361H220L211 310Z" glyph-name="Hbar.sc" horiz-adv-x="573" /><glyph d="M152 680H289L238 390H522L574 680H711L591 0H454L501 269H216L169 0H32ZM468 954H479L596 738H494L451 810L384 738H275Z" glyph-name="Hcircumflex" horiz-adv-x="695" unicode="&#292;" /><glyph d="M113 522H248L212 318H401L437 522H572L480 0H345L380 199H191L156 0H21ZM382 791H393L510 575H408L365 647L298 575H189Z" glyph-name="Hcircumflex.sc" horiz-adv-x="573" /><glyph d="M156 680H293L173 0H36Z" glyph-name="I" horiz-adv-x="281" unicode="I" /><glyph d="M117 522H252L160 0H25Z" glyph-name="I.sc" horiz-adv-x="257" /><glyph d="M156 680H293L173 0H36ZM479 -9Q438 -9 405.5 2Q373 13 348.5 31Q324 49 307 72Q290 95 280 120L399 185Q405 171 412.5 158Q420 145 429.5 135.5Q439 126 452 120Q465 114 482 114Q498 114 511 117.5Q524 121 534.5 131Q545 141 552.5 158.5Q560 176 565 204L649 680H786L699 187Q680 79 625 35Q570 -9 479 -9Z" glyph-name="IJ" horiz-adv-x="767" unicode="&#306;" /><glyph d="M117 522H252L160 0H25ZM413 -9Q380 -9 352.5 0.5Q325 10 304 26Q283 42 268 62.5Q253 83 245 104L354 159Q365 133 377.5 120Q390 107 415 107Q434 107 448 118.5Q462 130 468 165L531 522H666L600 150Q592 105 576 74.5Q560 44 536.5 25.5Q513 7 482 -1Q451 -9 413 -9Z" glyph-name="IJ.sc" horiz-adv-x="663" /><glyph d="M156 680H293L173 0H36ZM256 926H414L278 738H176Z" glyph-name="Iacute" horiz-adv-x="281" unicode="&#205;" /><glyph d="M117 522H252L160 0H25ZM218 774H376L240 586H138Z" glyph-name="Iacute.sc" horiz-adv-x="257" /><glyph d="M156 680H293L173 0H36ZM247 748Q176 748 136 788Q96 828 93 888L194 903Q196 877 208.5 861.5Q221 846 248 846Q275 846 289 861.5Q303 877 308 903L407 888Q398 828 357 788Q316 748 247 748Z" glyph-name="Ibreve" horiz-adv-x="281" unicode="&#300;" /><glyph d="M117 522H252L160 0H25ZM207 586Q136 586 96 626Q56 666 53 726L154 741Q156 715 168.5 699.5Q181 684 208 684Q235 684 249 699.5Q263 715 268 741L367 726Q358 666 317 626Q276 586 207 586Z" glyph-name="Ibreve.sc" horiz-adv-x="257" /><glyph d="M156 680H293L173 0H36ZM267 956H278L395 740H293L250 812L183 740H74Z" glyph-name="Icircumflex" horiz-adv-x="281" unicode="&#206;" /><glyph d="M117 522H252L160 0H25ZM226 791H237L354 575H252L209 647L142 575H33Z" glyph-name="Icircumflex.sc" horiz-adv-x="257" /><glyph d="M156 680H293L173 0H36ZM349 741Q321 741 298.5 762.5Q276 784 276 815Q276 846 298.5 867.5Q321 889 349 889Q378 889 399.5 867.5Q421 846 421 815Q421 784 399.5 762.5Q378 741 349 741ZM149 741Q121 741 99 762.5Q77 784 77 815Q77 846 99 867.5Q121 889 149 889Q178 889 200 867.5Q222 846 222 815Q222 784 200 762.5Q178 741 149 741Z" glyph-name="Idieresis" horiz-adv-x="281" unicode="&#207;" /><glyph d="M117 522H252L160 0H25ZM308 583Q280 583 257.5 604.5Q235 626 235 657Q235 688 257.5 709.5Q280 731 308 731Q337 731 358.5 709.5Q380 688 380 657Q380 626 358.5 604.5Q337 583 308 583ZM108 583Q80 583 58 604.5Q36 626 36 657Q36 688 58 709.5Q80 731 108 731Q137 731 159 709.5Q181 688 181 657Q181 626 159 604.5Q137 583 108 583Z" glyph-name="Idieresis.sc" horiz-adv-x="257" /><glyph d="M248 732Q215 732 190.5 754.5Q166 777 166 814Q166 850 190 872.5Q214 895 247 895Q281 895 305.5 872.5Q330 850 330 814Q330 777 306 754.5Q282 732 248 732ZM156 680H293L173 0H36Z" glyph-name="Idotaccent" horiz-adv-x="281" unicode="&#304;" /><glyph d="M206 577Q173 577 148.5 599.5Q124 622 124 659Q124 695 148 717.5Q172 740 205 740Q239 740 263.5 717.5Q288 695 288 659Q288 622 264 599.5Q240 577 206 577ZM117 522H252L160 0H25Z" glyph-name="Idotaccent.sc" horiz-adv-x="257" /><glyph d="M156 680H293L173 0H36ZM87 926H239L278 738H178Z" glyph-name="Igrave" horiz-adv-x="281" unicode="&#204;" /><glyph d="M117 522H252L160 0H25ZM48 774H200L239 586H139Z" glyph-name="Igrave.sc" horiz-adv-x="257" /><glyph d="M124 846H384L367 750H107ZM156 680H293L173 0H36Z" glyph-name="Imacron" horiz-adv-x="281" unicode="&#298;" /><glyph d="M86 698H346L329 602H69ZM117 522H252L160 0H25Z" glyph-name="Imacron.sc" horiz-adv-x="257" /><glyph d="M36 0 156 680H293L179 33L98 -70Q80 -93 73 -107Q66 -121 66 -140Q66 -154 73.5 -161.5Q81 -169 94 -169Q108 -169 117 -160.5Q126 -152 134 -141L199 -179Q184 -205 158.5 -222.5Q133 -240 88 -240Q67 -240 47.5 -234.5Q28 -229 13 -217Q-2 -205 -11 -187.5Q-20 -170 -20 -146Q-20 -112 -5 -85.5Q10 -59 33 -39L76 0Z" glyph-name="Iogonek" horiz-adv-x="281" unicode="&#302;" /><glyph d="M25 0 117 522H252L164 23L91 -70Q72 -94 65.5 -107.5Q59 -121 59 -140Q59 -169 87 -169Q101 -169 110 -160.5Q119 -152 127 -141L192 -179Q177 -205 151.5 -222.5Q126 -240 81 -240Q60 -240 40.5 -234.5Q21 -229 6 -217Q-9 -205 -18 -187.5Q-27 -170 -27 -146Q-27 -112 -12 -85.5Q3 -59 26 -39L69 0Z" glyph-name="Iogonek.sc" horiz-adv-x="257" /><glyph d="M156 680H293L173 0H36ZM86 757Q95 828 126.5 862.5Q158 897 200 897Q221 897 236 891Q251 885 263 877Q279 866 288.5 859Q298 852 308 852Q322 852 328.5 863Q335 874 339 897L426 888Q418 817 386 782.5Q354 748 312 748Q292 748 276.5 754Q261 760 249 768Q233 779 224 786Q215 793 204 793Q180 793 173 748Z" glyph-name="Itilde" horiz-adv-x="281" unicode="&#296;" /><glyph d="M117 522H252L160 0H25ZM38 595Q47 666 78.5 700.5Q110 735 152 735Q173 735 188 729Q203 723 215 715Q231 704 240.5 697Q250 690 260 690Q274 690 280.5 701Q287 712 291 735L378 726Q370 655 338 620.5Q306 586 264 586Q244 586 228.5 592Q213 598 201 606Q185 617 176 624Q167 631 156 631Q132 631 125 586Z" glyph-name="Itilde.sc" horiz-adv-x="257" /><glyph d="M198 -9Q157 -9 124.5 2Q92 13 67.5 31Q43 49 26 72Q9 95 -1 120L118 185Q124 171 131.5 158Q139 145 148.5 135.5Q158 126 171 120Q184 114 201 114Q217 114 230 117.5Q243 121 253.5 131Q264 141 271.5 158.5Q279 176 284 204L368 680H505L418 187Q399 79 344 35Q289 -9 198 -9Z" glyph-name="J" horiz-adv-x="486" unicode="J" /><glyph d="M163 -9Q130 -9 102.5 0.5Q75 10 54 26Q33 42 18 62.5Q3 83 -5 104L104 159Q115 133 127.5 120Q140 107 165 107Q184 107 198 118.5Q212 130 218 165L281 522H416L350 150Q342 105 326 74.5Q310 44 286.5 25.5Q263 7 232 -1Q201 -9 163 -9Z" glyph-name="J.sc" horiz-adv-x="413" /><glyph d="M198 -9Q157 -9 124.5 2Q92 13 67.5 31Q43 49 26 72Q9 95 -1 120L118 185Q124 171 131.5 158Q139 145 148.5 135.5Q158 126 171 120Q184 114 201 114Q217 114 230 117.5Q243 121 253.5 131Q264 141 271.5 158.5Q279 176 284 204L368 680H505L418 187Q399 79 344 35Q289 -9 198 -9ZM478 954H489L606 738H504L461 810L394 738H285Z" glyph-name="Jcircumflex" horiz-adv-x="486" unicode="&#308;" /><glyph d="M163 -9Q130 -9 102.5 0.5Q75 10 54 26Q33 42 18 62.5Q3 83 -5 104L104 159Q115 133 127.5 120Q140 107 165 107Q184 107 198 118.5Q212 130 218 165L281 522H416L350 150Q342 105 326 74.5Q310 44 286.5 25.5Q263 7 232 -1Q201 -9 163 -9ZM383 791H394L511 575H409L366 647L299 575H190Z" glyph-name="Jcircumflex.sc" horiz-adv-x="413" /><glyph d="M151 680H289L250 457Q245 432 237 400.5Q229 369 221 343Q238 370 259 399Q280 428 308 457L521 680H679L395 382L584 0H430L295 283L204 200L170 0H32Z" glyph-name="K" horiz-adv-x="636" unicode="K" /><glyph d="M113 522H248L224 393Q218 361 208 325.5Q198 290 189 262Q206 289 230 322.5Q254 356 282 386L412 522H563L346 296L498 0H351L247 208L181 144L156 0H21Z" glyph-name="K.sc" horiz-adv-x="547" /><glyph d="M151 680H289L250 457Q245 432 237 400.5Q229 369 221 343Q238 370 259 399Q280 428 308 457L521 680H679L395 382L584 0H430L295 283L204 200L170 0H32ZM238 -184Q222 -176 210 -158.5Q198 -141 198 -116Q198 -84 221 -63Q244 -42 273 -42Q303 -42 326 -62.5Q349 -83 349 -115Q349 -141 340.5 -159.5Q332 -178 316 -200L254 -283H190Z" glyph-name="Kcommaaccent" horiz-adv-x="636" unicode="&#310;" /><glyph d="M113 522H248L224 393Q218 361 208 325.5Q198 290 189 262Q206 289 230 322.5Q254 356 282 386L412 522H563L346 296L498 0H351L247 208L181 144L156 0H21ZM195 -184Q179 -176 167 -158.5Q155 -141 155 -116Q155 -84 178 -63Q201 -42 230 -42Q260 -42 283 -62.5Q306 -83 306 -115Q306 -141 297.5 -159.5Q289 -178 273 -200L211 -283H147Z" glyph-name="Kcommaaccent.sc" horiz-adv-x="547" /><glyph d="M152 680H289L190 120H492L471 0H32Z" glyph-name="L" horiz-adv-x="544" unicode="L" /><glyph d="M113 522H248L176 116H403L383 0H21Z" glyph-name="L.sc" horiz-adv-x="452" /><glyph d="M152 680H289L190 120H492L471 0H32ZM253 927H411L275 739H173Z" glyph-name="Lacute" horiz-adv-x="544" unicode="&#313;" /><glyph d="M113 522H248L176 116H403L383 0H21ZM217 773H375L239 585H137Z" glyph-name="Lacute.sc" horiz-adv-x="452" /><glyph d="M430 540Q410 551 399 568Q388 585 388 611Q388 644 410.5 666Q433 688 465 688Q497 688 519.5 666Q542 644 542 609Q542 586 532.5 566Q523 546 509 526L435 420H371ZM152 680H289L190 120H492L471 0H32Z" glyph-name="Lcaron" horiz-adv-x="544" unicode="&#317;" /><glyph d="M360 383Q340 394 329 411Q318 428 318 454Q318 487 340.5 509Q363 531 395 531Q427 531 449.5 509Q472 487 472 452Q472 429 462.5 409Q453 389 439 369L365 263H301ZM113 522H248L176 116H403L383 0H21Z" glyph-name="Lcaron.sc" horiz-adv-x="452" /><glyph d="M152 680H289L190 120H492L471 0H32ZM201 -183Q185 -175 173 -157.5Q161 -140 161 -115Q161 -83 184 -62Q207 -41 236 -41Q266 -41 289 -61.5Q312 -82 312 -114Q312 -140 303.5 -158.5Q295 -177 279 -199L217 -282H153Z" glyph-name="Lcommaaccent" horiz-adv-x="544" unicode="&#315;" /><glyph d="M152 680H289L190 120H492L471 0H306L299 -41Q327 -46 350.5 -69.5Q374 -93 374 -135Q374 -161 365 -180.5Q356 -200 341 -213Q326 -226 306 -233Q286 -240 265 -240Q217 -240 189.5 -222.5Q162 -205 148 -178L213 -142Q219 -153 228.5 -161.5Q238 -170 257 -170Q274 -170 284.5 -161Q295 -152 295 -134Q295 -117 285 -107Q275 -97 253 -97H218L235 0H32Z" glyph-name="Lcommaaccent.locl" horiz-adv-x="544" /><glyph d="M113 522H248L176 116H403L383 0H21ZM156 -184Q140 -176 128 -158.5Q116 -141 116 -116Q116 -84 139 -63Q162 -42 191 -42Q221 -42 244 -62.5Q267 -83 267 -115Q267 -141 258.5 -159.5Q250 -178 234 -200L172 -283H108Z" glyph-name="Lcommaaccent.sc" horiz-adv-x="452" /><glyph d="M113 522H248L176 116H403L383 0H251L244 -41Q272 -46 295.5 -69.5Q319 -93 319 -135Q319 -161 310 -180.5Q301 -200 286 -213Q271 -226 251 -233Q231 -240 210 -240Q162 -240 134.5 -222.5Q107 -205 93 -178L158 -142Q164 -153 173.5 -161.5Q183 -170 202 -170Q219 -170 229.5 -161Q240 -152 240 -134Q240 -117 230 -107Q220 -97 198 -97H163L180 0H21Z" glyph-name="Lcommaaccent.sc_locl" horiz-adv-x="452" /><glyph d="M152 680H289L190 120H492L471 0H32ZM416 236Q382 236 357.5 259.5Q333 283 333 321Q333 358 357.5 381.5Q382 405 416 405Q450 405 474.5 381.5Q499 358 499 321Q499 283 474.5 259.5Q450 236 416 236Z" glyph-name="Ldot" horiz-adv-x="544" unicode="&#319;" /><glyph d="M113 522H248L176 116H403L383 0H21ZM354 194Q320 194 295.5 217.5Q271 241 271 279Q271 316 295.5 339.5Q320 363 354 363Q388 363 412.5 339.5Q437 316 437 279Q437 241 412.5 217.5Q388 194 354 194Z" glyph-name="Ldot.sc" horiz-adv-x="452" /><glyph d="M80 218 5 193 26 313 101 338 162 680H299L247 387L436 451L415 331L226 267L200 120H502L481 0H42Z" glyph-name="Lslash" horiz-adv-x="554" unicode="&#321;" /><glyph d="M64 128 8 111 28 226 84 243 133 522H268L226 288L361 330L341 215L206 173L196 116H423L403 0H41Z" glyph-name="Lslash.sc" horiz-adv-x="472" /><glyph d="M153 687H163L418 317L814 687H826L705 0H574L619 255Q622 272 635 334Q640 356 646 379Q632 361 618 343Q605 327 590 309.5Q575 292 560 278L401 127H390L284 278Q252 327 243 343Q232 361 223 379Q221 356 218 334Q216 315 213.5 293.5Q211 272 208 255L163 0H32Z" glyph-name="M" horiz-adv-x="810" unicode="M" /><glyph d="M208 687H222L399 362Q405 351 411.5 337Q418 323 424 309Q430 295 436 280Q445 295 455 309Q465 323 475 336.5Q485 350 496 362L791 687H805L739 0H605L630 247Q632 267 635.5 290Q639 313 643 334.5Q647 356 651 378Q639 358 627 340Q615 322 600.5 302.5Q586 283 572 267L418 94H406L310 269Q301 286 291.5 306Q282 326 273 345.5Q264 365 256 386Q252 360 248 336.5Q244 313 239.5 289.5Q235 266 230 246L169 0H32Z" glyph-name="M.alt" horiz-adv-x="843" /><glyph d="M114 529H124L327 247L633 529H643L550 0H421L445 137Q450 163 454 184.5Q458 206 469 255Q462 244 453.5 232Q445 220 432 205Q419 190 402 174L317 93H309L243 175Q232 189 221.5 205.5Q211 222 203 237.5Q195 253 187 269Q186 244 184 221.5Q182 199 179.5 176.5Q177 154 174 137L150 0H21Z" glyph-name="M.sc" horiz-adv-x="643" /><glyph d="M153 527H164L308 297Q315 286 321 274.5Q327 263 331 253Q335 243 339 233Q344 243 351 254Q357 263 365.5 274.5Q374 286 385 297L614 527H625L583 0H453L465 154Q467 174 469.5 193.5Q472 213 475 227L482 259Q457 218 446 203.5Q435 189 422 177L316 76H306L246 170Q237 184 229 199.5Q221 215 215 229Q208 245 202 260Q196 209 191.5 189.5Q187 170 182 149L143 0H17Z" glyph-name="M.scalt" horiz-adv-x="672" /><glyph d="M289 325Q277 339 266 356Q255 373 245 389.5Q235 406 226 423Q225 400 223 379.5Q221 359 218.5 337.5Q216 316 213 298L160 0H32L153 686H166L443 354Q454 340 465.5 323Q477 306 487 289.5Q497 273 506 256Q507 277 509 297.5Q511 318 512.5 339.5Q514 361 518 381L571 680H699L578 -6H565Z" glyph-name="N" horiz-adv-x="683" unicode="N" /><glyph d="M245 204Q230 220 218.5 236Q207 252 198.5 266Q190 280 183 294V264Q183 248 182 231Q181 214 178 197L143 0H21L114 529H125L330 311Q343 297 353 283Q363 269 370.5 256.5Q378 244 385 230Q384 263 385.5 287Q387 311 391 330L425 522H547L453 -7H442Z" glyph-name="N.sc" horiz-adv-x="548" /><glyph d="M289 325Q277 339 266 356Q255 373 245 389.5Q235 406 226 423Q225 400 223 379.5Q221 359 218.5 337.5Q216 316 213 298L160 0H32L153 686H166L443 354Q454 340 465.5 323Q477 306 487 289.5Q497 273 506 256Q507 277 509 297.5Q511 318 512.5 339.5Q514 361 518 381L571 680H699L578 -6H565ZM442 927H600L464 739H362Z" glyph-name="Nacute" horiz-adv-x="683" unicode="&#323;" /><glyph d="M245 204Q230 220 218.5 236Q207 252 198.5 266Q190 280 183 294V264Q183 248 182 231Q181 214 178 197L143 0H21L114 529H125L330 311Q343 297 353 283Q363 269 370.5 256.5Q378 244 385 230Q384 263 385.5 287Q387 311 391 330L425 522H547L453 -7H442ZM343 773H501L365 585H263Z" glyph-name="Nacute.sc" horiz-adv-x="548" /><glyph d="M289 325Q277 339 266 356Q255 373 245 389.5Q235 406 226 423Q225 400 223 379.5Q221 359 218.5 337.5Q216 316 213 298L160 0H32L153 686H166L443 354Q454 340 465.5 323Q477 306 487 289.5Q497 273 506 256Q507 277 509 297.5Q511 318 512.5 339.5Q514 361 518 381L571 680H699L578 -6H565ZM293 945H395L438 872L505 945H614L421 728H410Z" glyph-name="Ncaron" horiz-adv-x="683" unicode="&#327;" /><glyph d="M245 204Q230 220 218.5 236Q207 252 198.5 266Q190 280 183 294V264Q183 248 182 231Q181 214 178 197L143 0H21L114 529H125L330 311Q343 297 353 283Q363 269 370.5 256.5Q378 244 385 230Q384 263 385.5 287Q387 311 391 330L425 522H547L453 -7H442ZM193 782H295L338 709L405 782H514L321 565H310Z" glyph-name="Ncaron.sc" horiz-adv-x="548" /><glyph d="M289 325Q277 339 266 356Q255 373 245 389.5Q235 406 226 423Q225 400 223 379.5Q221 359 218.5 337.5Q216 316 213 298L160 0H32L153 686H166L443 354Q454 340 465.5 323Q477 306 487 289.5Q497 273 506 256Q507 277 509 297.5Q511 318 512.5 339.5Q514 361 518 381L571 680H699L578 -6H565ZM288 -183Q272 -175 260 -157.5Q248 -140 248 -115Q248 -83 271 -62Q294 -41 323 -41Q353 -41 376 -61.5Q399 -82 399 -114Q399 -140 390.5 -158.5Q382 -177 366 -199L304 -282H240Z" glyph-name="Ncommaaccent" horiz-adv-x="683" unicode="&#325;" /><glyph d="M538 -240Q490 -240 462.5 -222.5Q435 -205 421 -178L486 -142Q492 -153 501.5 -161.5Q511 -170 530 -170Q547 -170 557.5 -161Q568 -152 568 -134Q568 -117 558 -107Q548 -97 526 -97H491L517 51L289 325Q278 338 267 354.5Q256 371 247.5 385Q239 399 233 409.5Q227 420 226 422Q226 421 225 408.5Q224 396 222.5 377Q221 358 219 338.5Q217 319 213 298L160 0H32L153 686H166L443 354Q454 341 464.5 325Q475 309 484 294.5Q493 280 499 269Q505 258 506 256Q506 257 506.5 269Q507 281 508.5 299.5Q510 318 512.5 339.5Q515 361 518 381L571 680H699L572 -41Q600 -46 623.5 -69.5Q647 -93 647 -135Q647 -161 638 -180.5Q629 -200 614 -213Q599 -226 579 -233Q559 -240 538 -240Z" glyph-name="Ncommaaccent.locl" horiz-adv-x="683" /><glyph d="M245 204Q230 220 218.5 236Q207 252 198.5 266Q190 280 183 294V264Q183 248 182 231Q181 214 178 197L143 0H21L114 529H125L330 311Q343 297 353 283Q363 269 370.5 256.5Q378 244 385 230Q384 263 385.5 287Q387 311 391 330L425 522H547L453 -7H442ZM216 -184Q200 -176 188 -158.5Q176 -141 176 -116Q176 -84 199 -63Q222 -42 251 -42Q281 -42 304 -62.5Q327 -83 327 -115Q327 -141 318.5 -159.5Q310 -178 294 -200L232 -283H168Z" glyph-name="Ncommaaccent.sc" horiz-adv-x="548" /><glyph d="M413 -240Q365 -240 337.5 -222.5Q310 -205 296 -178L361 -142Q367 -153 376.5 -161.5Q386 -170 405 -170Q422 -170 432.5 -161Q443 -152 443 -134Q443 -117 433 -107Q423 -97 401 -97H366L391 47L245 204Q231 219 220 234Q209 249 201 262Q193 275 188.5 283Q184 291 183 293Q184 275 183.5 261Q183 247 182 230Q181 213 178 197L143 0H21L114 529H125L330 311Q342 298 352 284.5Q362 271 369 259.5Q376 248 380 239.5Q384 231 385 230Q385 231 384.5 239.5Q384 248 384.5 262Q385 276 386.5 294Q388 312 391 330L425 522H547L447 -41Q475 -46 498.5 -69.5Q522 -93 522 -135Q522 -161 513 -180.5Q504 -200 489 -213Q474 -226 454 -233Q434 -240 413 -240Z" glyph-name="Ncommaaccent.sc_locl" horiz-adv-x="548" /><glyph d="M289 325Q277 339 266 356Q255 373 245 389.5Q235 406 226 423Q225 400 223 379.5Q221 359 218.5 337.5Q216 316 213 298L160 0H32L153 686H166L443 354Q454 340 465.5 323Q477 306 487 289.5Q497 273 506 256Q507 277 509 297.5Q511 318 512.5 339.5Q514 361 518 381L571 680H699L578 -6H565ZM244 752Q255 823 290 857.5Q325 892 371 892Q394 892 411 885.5Q428 879 442 871Q459 860 471 853Q483 846 494 846Q509 846 517 857.5Q525 869 529 892L622 883Q614 812 577.5 777.5Q541 743 495 743Q472 743 455 749.5Q438 756 424 764Q407 775 395.5 782Q384 789 372 789Q345 789 337 743Z" glyph-name="Ntilde" horiz-adv-x="683" unicode="&#209;" /><glyph d="M245 204Q230 220 218.5 236Q207 252 198.5 266Q190 280 183 294V264Q183 248 182 231Q181 214 178 197L143 0H21L114 529H125L330 311Q343 297 353 283Q363 269 370.5 256.5Q378 244 385 230Q384 263 385.5 287Q387 311 391 330L425 522H547L453 -7H442ZM160 601Q169 672 200.5 706.5Q232 741 274 741Q295 741 310 735Q325 729 337 721Q353 710 362.5 703Q372 696 382 696Q396 696 402.5 707Q409 718 413 741L500 732Q492 661 460 626.5Q428 592 386 592Q366 592 350.5 598Q335 604 323 612Q307 623 298 630Q289 637 278 637Q254 637 247 592Z" glyph-name="Ntilde.sc" horiz-adv-x="548" /><glyph d="M398 -9Q328 -9 267.5 16Q207 41 163 85.5Q119 130 93.5 192Q68 254 68 328Q68 411 97 477.5Q126 544 175.5 591Q225 638 290.5 663Q356 688 429 688Q499 688 559.5 663Q620 638 664.5 593.5Q709 549 734.5 487Q760 425 760 351Q760 268 731 201.5Q702 135 652.5 88Q603 41 537 16Q471 -9 398 -9ZM403 113Q452 113 492 130Q532 147 560 178.5Q588 210 603.5 254.5Q619 299 619 354Q619 402 604.5 441.5Q590 481 564.5 508.5Q539 536 503.5 551Q468 566 425 566Q376 566 336 549Q296 532 268 500.5Q240 469 224.5 424.5Q209 380 209 325Q209 277 223.5 237.5Q238 198 263.5 170.5Q289 143 324.5 128Q360 113 403 113Z" glyph-name="O" horiz-adv-x="780" unicode="O" /><glyph d="M314 -9Q258 -9 209.5 11Q161 31 125 66Q89 101 68.5 149.5Q48 198 48 255Q48 319 71.5 370.5Q95 422 134 457.5Q173 493 225 512Q277 531 334 531Q390 531 439 511Q488 491 524 456Q560 421 580.5 373Q601 325 601 268Q601 203 577.5 152Q554 101 514 65Q474 29 422.5 10Q371 -9 314 -9ZM319 109Q350 109 376.5 120.5Q403 132 422 153.5Q441 175 452 205Q463 235 463 272Q463 336 426 375Q389 414 330 414Q299 414 272.5 402.5Q246 391 227 369.5Q208 348 197 318Q186 288 186 251Q186 185 223 147Q260 109 319 109Z" glyph-name="O.sc" horiz-adv-x="629" /><glyph d="M388 0Q312 0 253 22.5Q194 45 153 86.5Q112 128 90.5 185.5Q69 243 69 314Q69 397 98 464.5Q127 532 178.5 580Q230 628 300.5 654Q371 680 454 680H1001L980 560H675L647 400H914L893 282H626L597 120H916L894 0ZM460 120 538 560H451Q390 560 345 541Q300 522 270 488Q240 454 225.5 408Q211 362 211 308Q211 265 222.5 230.5Q234 196 258 171.5Q282 147 318.5 133.5Q355 120 405 120Z" glyph-name="OE" horiz-adv-x="983" unicode="&#338;" /><glyph d="M302 0Q245 0 198 18Q151 36 117.5 69Q84 102 66 147.5Q48 193 48 247Q48 310 69.5 360.5Q91 411 129 447Q167 483 219.5 502.5Q272 522 334 522H786L766 408H537L521 317H714L695 209H502L485 114H727L707 0ZM352 114 403 408H329Q294 408 267 395.5Q240 383 222 361Q204 339 195 309Q186 279 186 243Q186 185 216.5 149.5Q247 114 310 114Z" glyph-name="OE.sc" horiz-adv-x="779" /><glyph d="M398 -9Q328 -9 267.5 16Q207 41 163 85.5Q119 130 93.5 192Q68 254 68 328Q68 411 97 477.5Q126 544 175.5 591Q225 638 290.5 663Q356 688 429 688Q499 688 559.5 663Q620 638 664.5 593.5Q709 549 734.5 487Q760 425 760 351Q760 268 731 201.5Q702 135 652.5 88Q603 41 537 16Q471 -9 398 -9ZM403 113Q452 113 492 130Q532 147 560 178.5Q588 210 603.5 254.5Q619 299 619 354Q619 402 604.5 441.5Q590 481 564.5 508.5Q539 536 503.5 551Q468 566 425 566Q376 566 336 549Q296 532 268 500.5Q240 469 224.5 424.5Q209 380 209 325Q209 277 223.5 237.5Q238 198 263.5 170.5Q289 143 324.5 128Q360 113 403 113ZM472 926H630L494 738H392Z" glyph-name="Oacute" horiz-adv-x="780" unicode="&#211;" /><glyph d="M314 -9Q258 -9 209.5 11Q161 31 125 66Q89 101 68.5 149.5Q48 198 48 255Q48 319 71.5 370.5Q95 422 134 457.5Q173 493 225 512Q277 531 334 531Q390 531 439 511Q488 491 524 456Q560 421 580.5 373Q601 325 601 268Q601 203 577.5 152Q554 101 514 65Q474 29 422.5 10Q371 -9 314 -9ZM319 109Q350 109 376.5 120.5Q403 132 422 153.5Q441 175 452 205Q463 235 463 272Q463 336 426 375Q389 414 330 414Q299 414 272.5 402.5Q246 391 227 369.5Q208 348 197 318Q186 288 186 251Q186 185 223 147Q260 109 319 109ZM374 773H532L396 585H294Z" glyph-name="Oacute.sc" horiz-adv-x="629" /><glyph d="M398 -9Q328 -9 267.5 16Q207 41 163 85.5Q119 130 93.5 192Q68 254 68 328Q68 411 97 477.5Q126 544 175.5 591Q225 638 290.5 663Q356 688 429 688Q499 688 559.5 663Q620 638 664.5 593.5Q709 549 734.5 487Q760 425 760 351Q760 268 731 201.5Q702 135 652.5 88Q603 41 537 16Q471 -9 398 -9ZM403 113Q452 113 492 130Q532 147 560 178.5Q588 210 603.5 254.5Q619 299 619 354Q619 402 604.5 441.5Q590 481 564.5 508.5Q539 536 503.5 551Q468 566 425 566Q376 566 336 549Q296 532 268 500.5Q240 469 224.5 424.5Q209 380 209 325Q209 277 223.5 237.5Q238 198 263.5 170.5Q289 143 324.5 128Q360 113 403 113ZM467 748Q396 748 356 788Q316 828 313 888L414 903Q416 877 428.5 861.5Q441 846 468 846Q495 846 509 861.5Q523 877 528 903L627 888Q618 828 577 788Q536 748 467 748Z" glyph-name="Obreve" horiz-adv-x="780" unicode="&#334;" /><glyph d="M314 -9Q258 -9 209.5 11Q161 31 125 66Q89 101 68.5 149.5Q48 198 48 255Q48 319 71.5 370.5Q95 422 134 457.5Q173 493 225 512Q277 531 334 531Q390 531 439 511Q488 491 524 456Q560 421 580.5 373Q601 325 601 268Q601 203 577.5 152Q554 101 514 65Q474 29 422.5 10Q371 -9 314 -9ZM319 109Q350 109 376.5 120.5Q403 132 422 153.5Q441 175 452 205Q463 235 463 272Q463 336 426 375Q389 414 330 414Q299 414 272.5 402.5Q246 391 227 369.5Q208 348 197 318Q186 288 186 251Q186 185 223 147Q260 109 319 109ZM381 586Q310 586 270 626Q230 666 227 726L328 741Q330 715 342.5 699.5Q355 684 382 684Q409 684 423 699.5Q437 715 442 741L541 726Q532 666 491 626Q450 586 381 586Z" glyph-name="Obreve.sc" horiz-adv-x="629" /><glyph d="M398 -9Q328 -9 267.5 16Q207 41 163 85.5Q119 130 93.5 192Q68 254 68 328Q68 411 97 477.5Q126 544 175.5 591Q225 638 290.5 663Q356 688 429 688Q499 688 559.5 663Q620 638 664.5 593.5Q709 549 734.5 487Q760 425 760 351Q760 268 731 201.5Q702 135 652.5 88Q603 41 537 16Q471 -9 398 -9ZM403 113Q452 113 492 130Q532 147 560 178.5Q588 210 603.5 254.5Q619 299 619 354Q619 402 604.5 441.5Q590 481 564.5 508.5Q539 536 503.5 551Q468 566 425 566Q376 566 336 549Q296 532 268 500.5Q240 469 224.5 424.5Q209 380 209 325Q209 277 223.5 237.5Q238 198 263.5 170.5Q289 143 324.5 128Q360 113 403 113ZM482 956H493L610 740H508L465 812L398 740H289Z" glyph-name="Ocircumflex" horiz-adv-x="780" unicode="&#212;" /><glyph d="M314 -9Q258 -9 209.5 11Q161 31 125 66Q89 101 68.5 149.5Q48 198 48 255Q48 319 71.5 370.5Q95 422 134 457.5Q173 493 225 512Q277 531 334 531Q390 531 439 511Q488 491 524 456Q560 421 580.5 373Q601 325 601 268Q601 203 577.5 152Q554 101 514 65Q474 29 422.5 10Q371 -9 314 -9ZM319 109Q350 109 376.5 120.5Q403 132 422 153.5Q441 175 452 205Q463 235 463 272Q463 336 426 375Q389 414 330 414Q299 414 272.5 402.5Q246 391 227 369.5Q208 348 197 318Q186 288 186 251Q186 185 223 147Q260 109 319 109ZM382 792H393L510 576H408L365 648L298 576H189Z" glyph-name="Ocircumflex.sc" horiz-adv-x="629" /><glyph d="M398 -9Q328 -9 267.5 16Q207 41 163 85.5Q119 130 93.5 192Q68 254 68 328Q68 411 97 477.5Q126 544 175.5 591Q225 638 290.5 663Q356 688 429 688Q499 688 559.5 663Q620 638 664.5 593.5Q709 549 734.5 487Q760 425 760 351Q760 268 731 201.5Q702 135 652.5 88Q603 41 537 16Q471 -9 398 -9ZM403 113Q452 113 492 130Q532 147 560 178.5Q588 210 603.5 254.5Q619 299 619 354Q619 402 604.5 441.5Q590 481 564.5 508.5Q539 536 503.5 551Q468 566 425 566Q376 566 336 549Q296 532 268 500.5Q240 469 224.5 424.5Q209 380 209 325Q209 277 223.5 237.5Q238 198 263.5 170.5Q289 143 324.5 128Q360 113 403 113ZM563 741Q535 741 512.5 762.5Q490 784 490 815Q490 846 512.5 867.5Q535 889 563 889Q592 889 613.5 867.5Q635 846 635 815Q635 784 613.5 762.5Q592 741 563 741ZM363 741Q335 741 313 762.5Q291 784 291 815Q291 846 313 867.5Q335 889 363 889Q392 889 414 867.5Q436 846 436 815Q436 784 414 762.5Q392 741 363 741Z" glyph-name="Odieresis" horiz-adv-x="780" unicode="&#214;" /><glyph d="M314 -9Q258 -9 209.5 11Q161 31 125 66Q89 101 68.5 149.5Q48 198 48 255Q48 319 71.5 370.5Q95 422 134 457.5Q173 493 225 512Q277 531 334 531Q390 531 439 511Q488 491 524 456Q560 421 580.5 373Q601 325 601 268Q601 203 577.5 152Q554 101 514 65Q474 29 422.5 10Q371 -9 314 -9ZM319 109Q350 109 376.5 120.5Q403 132 422 153.5Q441 175 452 205Q463 235 463 272Q463 336 426 375Q389 414 330 414Q299 414 272.5 402.5Q246 391 227 369.5Q208 348 197 318Q186 288 186 251Q186 185 223 147Q260 109 319 109ZM464 585Q436 585 413.5 606.5Q391 628 391 659Q391 690 413.5 711.5Q436 733 464 733Q493 733 514.5 711.5Q536 690 536 659Q536 628 514.5 606.5Q493 585 464 585ZM264 585Q236 585 214 606.5Q192 628 192 659Q192 690 214 711.5Q236 733 264 733Q293 733 315 711.5Q337 690 337 659Q337 628 315 606.5Q293 585 264 585Z" glyph-name="Odieresis.sc" horiz-adv-x="629" /><glyph d="M398 -9Q328 -9 267.5 16Q207 41 163 85.5Q119 130 93.5 192Q68 254 68 328Q68 411 97 477.5Q126 544 175.5 591Q225 638 290.5 663Q356 688 429 688Q499 688 559.5 663Q620 638 664.5 593.5Q709 549 734.5 487Q760 425 760 351Q760 268 731 201.5Q702 135 652.5 88Q603 41 537 16Q471 -9 398 -9ZM403 113Q452 113 492 130Q532 147 560 178.5Q588 210 603.5 254.5Q619 299 619 354Q619 402 604.5 441.5Q590 481 564.5 508.5Q539 536 503.5 551Q468 566 425 566Q376 566 336 549Q296 532 268 500.5Q240 469 224.5 424.5Q209 380 209 325Q209 277 223.5 237.5Q238 198 263.5 170.5Q289 143 324.5 128Q360 113 403 113ZM302 926H454L493 738H393Z" glyph-name="Ograve" horiz-adv-x="780" unicode="&#210;" /><glyph d="M314 -9Q258 -9 209.5 11Q161 31 125 66Q89 101 68.5 149.5Q48 198 48 255Q48 319 71.5 370.5Q95 422 134 457.5Q173 493 225 512Q277 531 334 531Q390 531 439 511Q488 491 524 456Q560 421 580.5 373Q601 325 601 268Q601 203 577.5 152Q554 101 514 65Q474 29 422.5 10Q371 -9 314 -9ZM319 109Q350 109 376.5 120.5Q403 132 422 153.5Q441 175 452 205Q463 235 463 272Q463 336 426 375Q389 414 330 414Q299 414 272.5 402.5Q246 391 227 369.5Q208 348 197 318Q186 288 186 251Q186 185 223 147Q260 109 319 109ZM204 773H356L395 585H295Z" glyph-name="Ograve.sc" horiz-adv-x="629" /><glyph d="M398 -9Q328 -9 267.5 16Q207 41 163 85.5Q119 130 93.5 192Q68 254 68 328Q68 411 97 477.5Q126 544 175.5 591Q225 638 290.5 663Q356 688 429 688Q499 688 559.5 663Q620 638 664.5 593.5Q709 549 734.5 487Q760 425 760 351Q760 268 731 201.5Q702 135 652.5 88Q603 41 537 16Q471 -9 398 -9ZM403 113Q452 113 492 130Q532 147 560 178.5Q588 210 603.5 254.5Q619 299 619 354Q619 402 604.5 441.5Q590 481 564.5 508.5Q539 536 503.5 551Q468 566 425 566Q376 566 336 549Q296 532 268 500.5Q240 469 224.5 424.5Q209 380 209 325Q209 277 223.5 237.5Q238 198 263.5 170.5Q289 143 324.5 128Q360 113 403 113ZM559 946H697L575 758H473ZM378 946H516L394 758H292Z" glyph-name="Ohungarumlaut" horiz-adv-x="780" unicode="&#336;" /><glyph d="M314 -9Q258 -9 209.5 11Q161 31 125 66Q89 101 68.5 149.5Q48 198 48 255Q48 319 71.5 370.5Q95 422 134 457.5Q173 493 225 512Q277 531 334 531Q390 531 439 511Q488 491 524 456Q560 421 580.5 373Q601 325 601 268Q601 203 577.5 152Q554 101 514 65Q474 29 422.5 10Q371 -9 314 -9ZM319 109Q350 109 376.5 120.5Q403 132 422 153.5Q441 175 452 205Q463 235 463 272Q463 336 426 375Q389 414 330 414Q299 414 272.5 402.5Q246 391 227 369.5Q208 348 197 318Q186 288 186 251Q186 185 223 147Q260 109 319 109ZM458 773H596L474 585H372ZM277 773H415L293 585H191Z" glyph-name="Ohungarumlaut.sc" horiz-adv-x="629" /><glyph d="M339 846H599L582 750H322ZM398 -9Q328 -9 267.5 16Q207 41 163 85.5Q119 130 93.5 192Q68 254 68 328Q68 411 97 477.5Q126 544 175.5 591Q225 638 290.5 663Q356 688 429 688Q499 688 559.5 663Q620 638 664.5 593.5Q709 549 734.5 487Q760 425 760 351Q760 268 731 201.5Q702 135 652.5 88Q603 41 537 16Q471 -9 398 -9ZM403 113Q452 113 492 130Q532 147 560 178.5Q588 210 603.5 254.5Q619 299 619 354Q619 402 604.5 441.5Q590 481 564.5 508.5Q539 536 503.5 551Q468 566 425 566Q376 566 336 549Q296 532 268 500.5Q240 469 224.5 424.5Q209 380 209 325Q209 277 223.5 237.5Q238 198 263.5 170.5Q289 143 324.5 128Q360 113 403 113Z" glyph-name="Omacron" horiz-adv-x="780" unicode="&#332;" /><glyph d="M242 698H502L485 602H225ZM314 -9Q258 -9 209.5 11Q161 31 125 66Q89 101 68.5 149.5Q48 198 48 255Q48 319 71.5 370.5Q95 422 134 457.5Q173 493 225 512Q277 531 334 531Q390 531 439 511Q488 491 524 456Q560 421 580.5 373Q601 325 601 268Q601 203 577.5 152Q554 101 514 65Q474 29 422.5 10Q371 -9 314 -9ZM319 109Q350 109 376.5 120.5Q403 132 422 153.5Q441 175 452 205Q463 235 463 272Q463 336 426 375Q389 414 330 414Q299 414 272.5 402.5Q246 391 227 369.5Q208 348 197 318Q186 288 186 251Q186 185 223 147Q260 109 319 109Z" glyph-name="Omacron.sc" horiz-adv-x="629" /><glyph d="M709 538Q733 498 746.5 451Q760 404 760 351Q760 268 731 201.5Q702 135 653 88Q604 41 539 16Q474 -9 403 -9Q340 -9 285.5 9.5Q231 28 189 63L109 -10L38 67L119 141Q94 181 81 227.5Q68 274 68 328Q68 411 97 477.5Q126 544 175 591Q224 638 288.5 663Q353 688 424 688Q487 688 541 669.5Q595 651 638 616L718 689L790 612ZM542 529Q494 566 422 566Q375 566 336 549Q297 532 268.5 500.5Q240 469 224.5 424.5Q209 380 209 325Q209 277 223 237ZM285 151Q334 113 406 113Q453 113 492.5 130Q532 147 560 178.5Q588 210 603.5 254.5Q619 299 619 354Q619 401 605 443Z" glyph-name="Oslash" horiz-adv-x="780" unicode="&#216;" /><glyph d="M568 398Q584 369 592.5 336.5Q601 304 601 268Q601 203 577.5 152Q554 101 514 65Q474 29 422.5 10Q371 -9 314 -9Q265 -9 222.5 6Q180 21 146 48L73 -12L8 62L81 123Q65 152 56.5 185Q48 218 48 255Q48 319 71.5 370.5Q95 422 134 457.5Q173 493 225 512Q277 531 334 531Q384 531 427 516Q470 501 505 473L575 531L640 457ZM409 394Q377 417 330 417Q298 417 271.5 405Q245 393 225.5 371.5Q206 350 195 319Q184 288 184 251Q184 240 185 230Q186 220 188 211ZM241 127Q272 106 319 106Q351 106 377.5 118Q404 130 423.5 151.5Q443 173 454 203.5Q465 234 465 272Q465 292 462 309Z" glyph-name="Oslash.sc" horiz-adv-x="629" /><glyph d="M398 -9Q328 -9 267.5 16Q207 41 163 85.5Q119 130 93.5 192Q68 254 68 328Q68 411 97 477.5Q126 544 175.5 591Q225 638 290.5 663Q356 688 429 688Q499 688 559.5 663Q620 638 664.5 593.5Q709 549 734.5 487Q760 425 760 351Q760 268 731 201.5Q702 135 652.5 88Q603 41 537 16Q471 -9 398 -9ZM403 113Q452 113 492 130Q532 147 560 178.5Q588 210 603.5 254.5Q619 299 619 354Q619 402 604.5 441.5Q590 481 564.5 508.5Q539 536 503.5 551Q468 566 425 566Q376 566 336 549Q296 532 268 500.5Q240 469 224.5 424.5Q209 380 209 325Q209 277 223.5 237.5Q238 198 263.5 170.5Q289 143 324.5 128Q360 113 403 113ZM270 752Q281 823 316 857.5Q351 892 397 892Q420 892 437 885.5Q454 879 468 871Q485 860 497 853Q509 846 520 846Q535 846 543 857.5Q551 869 555 892L648 883Q640 812 603.5 777.5Q567 743 521 743Q498 743 481 749.5Q464 756 450 764Q433 775 421.5 782Q410 789 398 789Q371 789 363 743Z" glyph-name="Otilde" horiz-adv-x="780" unicode="&#213;" /><glyph d="M314 -9Q258 -9 209.5 11Q161 31 125 66Q89 101 68.5 149.5Q48 198 48 255Q48 319 71.5 370.5Q95 422 134 457.5Q173 493 225 512Q277 531 334 531Q390 531 439 511Q488 491 524 456Q560 421 580.5 373Q601 325 601 268Q601 203 577.5 152Q554 101 514 65Q474 29 422.5 10Q371 -9 314 -9ZM319 109Q350 109 376.5 120.5Q403 132 422 153.5Q441 175 452 205Q463 235 463 272Q463 336 426 375Q389 414 330 414Q299 414 272.5 402.5Q246 391 227 369.5Q208 348 197 318Q186 288 186 251Q186 185 223 147Q260 109 319 109ZM191 601Q200 672 231.5 706.5Q263 741 305 741Q326 741 341 735Q356 729 368 721Q384 710 393.5 703Q403 696 413 696Q427 696 433.5 707Q440 718 444 741L531 732Q523 661 491 626.5Q459 592 417 592Q397 592 381.5 598Q366 604 354 612Q338 623 329 630Q320 637 309 637Q285 637 278 592Z" glyph-name="Otilde.sc" horiz-adv-x="629" /><glyph d="M151 680H370Q418 680 460 668Q502 656 533 630.5Q564 605 582 565.5Q600 526 600 471Q600 409 579 363Q558 317 521 286.5Q484 256 434.5 240.5Q385 225 328 225H208L169 0H32ZM335 344Q391 344 425.5 373Q460 402 460 465Q460 515 430.5 538Q401 561 355 561H267L229 344Z" glyph-name="P" horiz-adv-x="590" unicode="P" /><glyph d="M113 522H291Q335 522 372 512.5Q409 503 435.5 482.5Q462 462 477 430.5Q492 399 492 356Q492 304 475 266Q458 228 427.5 203.5Q397 179 355 167Q313 155 264 155H183L156 0H21ZM269 265Q312 265 333 287.5Q354 310 354 345Q354 374 335 391.5Q316 409 279 409H227L202 265Z" glyph-name="P.sc" horiz-adv-x="494" /><glyph d="M724 -9 622 -88 540 19Q508 4 473 -2.5Q438 -9 398 -9Q328 -9 267.5 16Q207 41 163 85.5Q119 130 93.5 192Q68 254 68 328Q68 411 97 477.5Q126 544 175.5 591Q225 638 290.5 663Q356 688 429 688Q499 688 559.5 663Q620 638 664.5 593.5Q709 549 734.5 487Q760 425 760 351Q760 270 730 203.5Q700 137 649 89ZM396 208 498 287 574 187Q619 247 619 354Q619 402 604.5 441.5Q590 481 564.5 508.5Q539 536 503.5 551Q468 566 425 566Q376 566 336 549Q296 532 268 500.5Q240 469 224.5 424.5Q209 380 209 325Q209 277 223.5 237Q238 197 263.5 169Q289 141 324.5 125.5Q360 110 403 110Q438 110 465 117Z" glyph-name="Q" horiz-adv-x="780" unicode="Q" /><glyph d="M409 -154H279L307 3Q254 17 210 46.5Q166 76 134.5 118Q103 160 85.5 213.5Q68 267 68 328Q68 411 97 477.5Q126 544 175.5 591Q225 638 290.5 663Q356 688 429 688Q499 688 559.5 663Q620 638 664.5 593.5Q709 549 734.5 487Q760 425 760 351Q760 273 734.5 210Q709 147 664.5 100.5Q620 54 561 26.5Q502 -1 435 -7ZM348 236H478L457 116Q494 125 524 145.5Q554 166 575 196.5Q596 227 607.5 267Q619 307 619 354Q619 402 604.5 441.5Q590 481 564.5 508.5Q539 536 503.5 551Q468 566 425 566Q376 566 336 549Q296 532 268 500.5Q240 469 224.5 424.5Q209 380 209 325Q209 251 241 198.5Q273 146 328 124Z" glyph-name="Q.alt1" horiz-adv-x="780" /><glyph d="M470 9Q490 -9 511.5 -21Q533 -33 562 -33Q590 -33 610 -19.5Q630 -6 642 10L731 -67Q702 -107 662 -130Q622 -153 561 -153Q523 -153 491.5 -140.5Q460 -128 433 -109.5Q406 -91 382 -68Q358 -45 335 -24Q309 0 284 18Q259 36 230 36Q193 36 168.5 15.5Q144 -5 125 -32L32 46Q66 102 131 127Q101 167 84.5 217.5Q68 268 68 328Q68 411 97 477.5Q126 544 175.5 591Q225 638 290.5 663Q356 688 429 688Q499 688 559.5 663Q620 638 664.5 593.5Q709 549 734.5 487Q760 425 760 351Q760 278 738.5 219Q717 160 678.5 116.5Q640 73 587 46Q534 19 470 9ZM403 113Q452 113 492 130Q532 147 560 178.5Q588 210 603.5 254.5Q619 299 619 354Q619 402 604.5 441.5Q590 481 564.5 508.5Q539 536 503.5 551Q468 566 425 566Q376 566 336 549Q296 532 268 500.5Q240 469 224.5 424.5Q209 380 209 325Q209 277 223.5 237.5Q238 198 263.5 170.5Q289 143 324.5 128Q360 113 403 113Z" glyph-name="Q.alt2" horiz-adv-x="780" /><glyph d="M580 -14 488 -79 422 10Q372 -9 316 -9Q260 -9 211.5 11Q163 31 127 66Q91 101 70.5 149.5Q50 198 50 255Q50 319 73.5 370.5Q97 422 136 457.5Q175 493 227 512Q279 531 336 531Q392 531 441 511Q490 491 526 456Q562 421 582.5 373Q603 325 603 268Q603 206 580 156Q557 106 518 70ZM297 179 389 244 444 169Q465 209 465 272Q465 336 428 375Q391 414 332 414Q301 414 274.5 402.5Q248 391 229 369.5Q210 348 199 318Q188 288 188 251Q188 218 198 191Q208 164 225.5 144.5Q243 125 267.5 114Q292 103 321 103Q329 103 336.5 103.5Q344 104 352 105Z" glyph-name="Q.sc" horiz-adv-x="633" /><glyph d="M325 -113H207L228 6Q188 18 155 41.5Q122 65 98 97Q74 129 61 169Q48 209 48 255Q48 319 71 370.5Q94 422 133.5 457.5Q173 493 224.5 512Q276 531 333 531Q389 531 437.5 511Q486 491 522 456Q558 421 578.5 373Q599 325 599 268Q599 208 578.5 159.5Q558 111 523 76Q488 41 442 20Q396 -1 344 -6ZM263 202H381L365 110Q411 126 436.5 169Q462 212 462 272Q462 336 425 375Q388 414 329 414Q298 414 271.5 402.5Q245 391 226 369.5Q207 348 196 318Q185 288 185 251Q185 206 201 172Q217 138 248 120Z" glyph-name="Q.scalt1" horiz-adv-x="627" /><glyph d="M374 12Q385 3 397 -2.5Q409 -8 425 -8Q442 -8 455.5 2.5Q469 13 477 24L566 -51Q540 -89 506.5 -107.5Q473 -126 424 -126Q392 -126 366 -114.5Q340 -103 317.5 -86Q295 -69 275 -48Q255 -27 236 -8Q219 9 205 21.5Q191 34 175 34Q149 34 133 19Q117 4 103 -16L11 62Q34 103 82 124Q48 181 48 256Q48 320 70.5 370.5Q93 421 131.5 455.5Q170 490 220 508.5Q270 527 326 527Q380 527 427 507Q474 487 508.5 452Q543 417 563 368.5Q583 320 583 263Q583 208 568 165Q553 122 525.5 91Q498 60 459.5 40Q421 20 374 12ZM311 115Q374 115 408 154Q442 193 442 267Q442 332 408.5 369Q375 406 322 406Q258 406 224 365.5Q190 325 190 252Q190 186 224.5 150.5Q259 115 311 115Z" glyph-name="Q.scalt2" horiz-adv-x="612" /><glyph d="M313 238H210L169 0H32L151 680H378Q426 680 468 667Q510 654 541 628Q572 602 590 563Q608 524 608 473Q608 390 563 334.5Q518 279 446 255L562 0H418ZM344 352Q403 352 435.5 382.5Q468 413 468 467Q468 513 438.5 537Q409 561 363 561H267L230 352Z" glyph-name="R" horiz-adv-x="625" unicode="R" /><glyph d="M253 166H185L156 0H21L114 522H297Q342 522 379.5 512.5Q417 503 444 482.5Q471 462 485.5 431Q500 400 500 357Q500 288 465.5 246Q431 204 379 184L465 0H326ZM274 266Q319 266 340 288.5Q361 311 361 347Q361 376 341.5 392.5Q322 409 285 409H227L202 266Z" glyph-name="R.sc" horiz-adv-x="518" /><glyph d="M313 238H210L169 0H32L151 680H378Q426 680 468 667Q510 654 541 628Q572 602 590 563Q608 524 608 473Q608 390 563 334.5Q518 279 446 255L562 0H418ZM344 352Q403 352 435.5 382.5Q468 413 468 467Q468 513 438.5 537Q409 561 363 561H267L230 352ZM391 926H549L413 738H311Z" glyph-name="Racute" horiz-adv-x="625" unicode="&#340;" /><glyph d="M253 166H185L156 0H21L114 522H297Q342 522 379.5 512.5Q417 503 444 482.5Q471 462 485.5 431Q500 400 500 357Q500 288 465.5 246Q431 204 379 184L465 0H326ZM274 266Q319 266 340 288.5Q361 311 361 347Q361 376 341.5 392.5Q322 409 285 409H227L202 266ZM323 773H481L345 585H243Z" glyph-name="Racute.sc" horiz-adv-x="518" /><glyph d="M313 238H210L169 0H32L151 680H378Q426 680 468 667Q510 654 541 628Q572 602 590 563Q608 524 608 473Q608 390 563 334.5Q518 279 446 255L562 0H418ZM344 352Q403 352 435.5 382.5Q468 413 468 467Q468 513 438.5 537Q409 561 363 561H267L230 352ZM242 945H344L387 872L454 945H563L370 728H359Z" glyph-name="Rcaron" horiz-adv-x="625" unicode="&#344;" /><glyph d="M253 166H185L156 0H21L114 522H297Q342 522 379.5 512.5Q417 503 444 482.5Q471 462 485.5 431Q500 400 500 357Q500 288 465.5 246Q431 204 379 184L465 0H326ZM274 266Q319 266 340 288.5Q361 311 361 347Q361 376 341.5 392.5Q322 409 285 409H227L202 266ZM173 782H275L318 709L385 782H494L301 565H290Z" glyph-name="Rcaron.sc" horiz-adv-x="518" /><glyph d="M313 238H210L169 0H32L151 680H378Q426 680 468 667Q510 654 541 628Q572 602 590 563Q608 524 608 473Q608 390 563 334.5Q518 279 446 255L562 0H418ZM344 352Q403 352 435.5 382.5Q468 413 468 467Q468 513 438.5 537Q409 561 363 561H267L230 352ZM235 -184Q219 -176 207 -158.5Q195 -141 195 -116Q195 -84 218 -63Q241 -42 270 -42Q300 -42 323 -62.5Q346 -83 346 -115Q346 -141 337.5 -159.5Q329 -178 313 -200L251 -283H187Z" glyph-name="Rcommaaccent" horiz-adv-x="625" unicode="&#342;" /><glyph d="M253 166H185L156 0H21L114 522H297Q342 522 379.5 512.5Q417 503 444 482.5Q471 462 485.5 431Q500 400 500 357Q500 288 465.5 246Q431 204 379 184L465 0H326ZM274 266Q319 266 340 288.5Q361 311 361 347Q361 376 341.5 392.5Q322 409 285 409H227L202 266ZM190 -184Q174 -176 162 -158.5Q150 -141 150 -116Q150 -84 173 -63Q196 -42 225 -42Q255 -42 278 -62.5Q301 -83 301 -115Q301 -141 292.5 -159.5Q284 -178 268 -200L206 -283H142Z" glyph-name="Rcommaaccent.sc" horiz-adv-x="518" /><glyph d="M251 -9Q203 -9 162.5 3.5Q122 16 90.5 36Q59 56 36 80.5Q13 105 1 129L109 202Q119 185 133 169Q147 153 164.5 140Q182 127 203.5 119Q225 111 251 111Q294 111 321 130.5Q348 150 348 183Q348 197 343.5 208.5Q339 220 328.5 230.5Q318 241 302 252.5Q286 264 263 279L231 300Q166 342 134.5 387.5Q103 433 103 500Q103 538 116 572.5Q129 607 155.5 632.5Q182 658 222 673Q262 688 315 688Q378 688 423.5 665Q469 642 500 603L402 519Q382 543 361 556.5Q340 570 308 570Q272 570 255 551Q238 532 238 506Q238 480 254 461.5Q270 443 308 419L341 398Q375 376 402.5 355Q430 334 449 310.5Q468 287 478 258.5Q488 230 488 193Q488 142 470 104.5Q452 67 420 41.5Q388 16 344.5 3.5Q301 -9 251 -9Z" glyph-name="S" horiz-adv-x="526" unicode="S" /><glyph d="M209 -9Q170 -9 137 0Q104 9 78 24Q52 39 32.5 59Q13 79 1 100L104 171Q110 160 120.5 148.5Q131 137 144.5 127.5Q158 118 174.5 111.5Q191 105 210 105Q239 105 252.5 114.5Q266 124 266 141Q266 158 254 170.5Q242 183 210 204L187 219Q133 254 106 291Q79 328 79 379Q79 407 89 434.5Q99 462 120 483.5Q141 505 174.5 518Q208 531 256 531Q310 531 350.5 509.5Q391 488 417 450L324 382Q310 400 293.5 410.5Q277 421 254 421Q231 421 219.5 410.5Q208 400 208 386Q208 372 216 361Q224 350 246 336L269 321Q299 301 323.5 282.5Q348 264 364.5 244Q381 224 390 199.5Q399 175 399 143Q399 104 383.5 75Q368 46 342 27.5Q316 9 281.5 0Q247 -9 209 -9Z" glyph-name="S.sc" horiz-adv-x="445" /><glyph d="M251 -9Q203 -9 162.5 3.5Q122 16 90.5 36Q59 56 36 80.5Q13 105 1 129L109 202Q119 185 133 169Q147 153 164.5 140Q182 127 203.5 119Q225 111 251 111Q294 111 321 130.5Q348 150 348 183Q348 197 343.5 208.5Q339 220 328.5 230.5Q318 241 302 252.5Q286 264 263 279L231 300Q166 342 134.5 387.5Q103 433 103 500Q103 538 116 572.5Q129 607 155.5 632.5Q182 658 222 673Q262 688 315 688Q378 688 423.5 665Q469 642 500 603L402 519Q382 543 361 556.5Q340 570 308 570Q272 570 255 551Q238 532 238 506Q238 480 254 461.5Q270 443 308 419L341 398Q375 376 402.5 355Q430 334 449 310.5Q468 287 478 258.5Q488 230 488 193Q488 142 470 104.5Q452 67 420 41.5Q388 16 344.5 3.5Q301 -9 251 -9ZM359 926H517L381 738H279Z" glyph-name="Sacute" horiz-adv-x="526" unicode="&#346;" /><glyph d="M209 -9Q170 -9 137 0Q104 9 78 24Q52 39 32.5 59Q13 79 1 100L104 171Q110 160 120.5 148.5Q131 137 144.5 127.5Q158 118 174.5 111.5Q191 105 210 105Q239 105 252.5 114.5Q266 124 266 141Q266 158 254 170.5Q242 183 210 204L187 219Q133 254 106 291Q79 328 79 379Q79 407 89 434.5Q99 462 120 483.5Q141 505 174.5 518Q208 531 256 531Q310 531 350.5 509.5Q391 488 417 450L324 382Q310 400 293.5 410.5Q277 421 254 421Q231 421 219.5 410.5Q208 400 208 386Q208 372 216 361Q224 350 246 336L269 321Q299 301 323.5 282.5Q348 264 364.5 244Q381 224 390 199.5Q399 175 399 143Q399 104 383.5 75Q368 46 342 27.5Q316 9 281.5 0Q247 -9 209 -9ZM298 773H456L320 585H218Z" glyph-name="Sacute.sc" horiz-adv-x="445" /><glyph d="M251 -9Q203 -9 162.5 3.5Q122 16 90.5 36Q59 56 36 80.5Q13 105 1 129L109 202Q119 185 133 169Q147 153 164.5 140Q182 127 203.5 119Q225 111 251 111Q294 111 321 130.5Q348 150 348 183Q348 197 343.5 208.5Q339 220 328.5 230.5Q318 241 302 252.5Q286 264 263 279L231 300Q166 342 134.5 387.5Q103 433 103 500Q103 538 116 572.5Q129 607 155.5 632.5Q182 658 222 673Q262 688 315 688Q378 688 423.5 665Q469 642 500 603L402 519Q382 543 361 556.5Q340 570 308 570Q272 570 255 551Q238 532 238 506Q238 480 254 461.5Q270 443 308 419L341 398Q375 376 402.5 355Q430 334 449 310.5Q468 287 478 258.5Q488 230 488 193Q488 142 470 104.5Q452 67 420 41.5Q388 16 344.5 3.5Q301 -9 251 -9ZM211 945H313L356 872L423 945H532L339 728H328Z" glyph-name="Scaron" horiz-adv-x="526" unicode="&#352;" /><glyph d="M209 -9Q170 -9 137 0Q104 9 78 24Q52 39 32.5 59Q13 79 1 100L104 171Q110 160 120.5 148.5Q131 137 144.5 127.5Q158 118 174.5 111.5Q191 105 210 105Q239 105 252.5 114.5Q266 124 266 141Q266 158 254 170.5Q242 183 210 204L187 219Q133 254 106 291Q79 328 79 379Q79 407 89 434.5Q99 462 120 483.5Q141 505 174.5 518Q208 531 256 531Q310 531 350.5 509.5Q391 488 417 450L324 382Q310 400 293.5 410.5Q277 421 254 421Q231 421 219.5 410.5Q208 400 208 386Q208 372 216 361Q224 350 246 336L269 321Q299 301 323.5 282.5Q348 264 364.5 244Q381 224 390 199.5Q399 175 399 143Q399 104 383.5 75Q368 46 342 27.5Q316 9 281.5 0Q247 -9 209 -9ZM148 781H250L293 708L360 781H469L276 564H265Z" glyph-name="Scaron.sc" horiz-adv-x="445" /><glyph d="M235 -240Q187 -240 159.5 -222.5Q132 -205 118 -178L183 -142Q189 -153 198.5 -161.5Q208 -170 227 -170Q244 -170 254.5 -161Q265 -152 265 -134Q265 -117 255 -107Q245 -97 223 -97H188L204 -5Q165 1 132.5 14.5Q100 28 74.5 46.5Q49 65 30.5 86.5Q12 108 1 129L109 202Q119 185 133 169Q147 153 164.5 140Q182 127 203.5 119Q225 111 251 111Q294 111 321 130.5Q348 150 348 183Q348 197 343.5 208.5Q339 220 328.5 230.5Q318 241 302 252.5Q286 264 263 279L231 300Q166 342 134.5 387.5Q103 433 103 500Q103 538 116 572.5Q129 607 155.5 632.5Q182 658 222 673Q262 688 315 688Q378 688 423.5 665Q469 642 500 603L402 519Q382 543 361 556.5Q340 570 308 570Q272 570 255 551Q238 532 238 506Q238 480 254 461.5Q270 443 308 419L341 398Q375 376 402.5 355Q430 334 449 310.5Q468 287 478 258.5Q488 230 488 193Q488 145 472 109Q456 73 427.5 47.5Q399 22 359.5 8.5Q320 -5 274 -8L269 -41Q297 -46 320.5 -69.5Q344 -93 344 -135Q344 -161 335 -180.5Q326 -200 311 -213Q296 -226 276 -233Q256 -240 235 -240Z" glyph-name="Scedilla" horiz-adv-x="526" unicode="&#350;" /><glyph d="M192 -240Q144 -240 116.5 -222.5Q89 -205 75 -178L140 -142Q146 -153 155.5 -161.5Q165 -170 184 -170Q201 -170 211.5 -161Q222 -152 222 -134Q222 -117 212 -107Q202 -97 180 -97H145L161 -5Q102 5 61.5 34.5Q21 64 1 100L104 171Q110 160 120.5 148.5Q131 137 144.5 127.5Q158 118 174.5 111.5Q191 105 210 105Q239 105 252.5 114.5Q266 124 266 141Q266 158 254 170.5Q242 183 210 204L187 219Q133 254 106 291Q79 328 79 379Q79 407 89 434.5Q99 462 120 483.5Q141 505 174.5 518Q208 531 256 531Q310 531 350.5 509.5Q391 488 417 450L324 382Q310 399 293.5 410Q277 421 254 421Q231 421 219.5 410.5Q208 400 208 386Q208 372 216 361Q224 350 246 336L269 321Q299 301 323.5 282.5Q348 264 364.5 244Q381 224 390 199.5Q399 175 399 143Q399 107 385.5 79.5Q372 52 349.5 33.5Q327 15 296 5Q265 -5 231 -8L226 -41Q254 -46 277.5 -69.5Q301 -93 301 -135Q301 -161 292 -180.5Q283 -200 268 -213Q253 -226 233 -233Q213 -240 192 -240Z" glyph-name="Scedilla.sc" horiz-adv-x="445" /><glyph d="M251 -9Q203 -9 162.5 3.5Q122 16 90.5 36Q59 56 36 80.5Q13 105 1 129L109 202Q119 185 133 169Q147 153 164.5 140Q182 127 203.5 119Q225 111 251 111Q294 111 321 130.5Q348 150 348 183Q348 197 343.5 208.5Q339 220 328.5 230.5Q318 241 302 252.5Q286 264 263 279L231 300Q166 342 134.5 387.5Q103 433 103 500Q103 538 116 572.5Q129 607 155.5 632.5Q182 658 222 673Q262 688 315 688Q378 688 423.5 665Q469 642 500 603L402 519Q382 543 361 556.5Q340 570 308 570Q272 570 255 551Q238 532 238 506Q238 480 254 461.5Q270 443 308 419L341 398Q375 376 402.5 355Q430 334 449 310.5Q468 287 478 258.5Q488 230 488 193Q488 142 470 104.5Q452 67 420 41.5Q388 16 344.5 3.5Q301 -9 251 -9ZM369 954H380L497 738H395L352 810L285 738H176Z" glyph-name="Scircumflex" horiz-adv-x="526" unicode="&#348;" /><glyph d="M209 -9Q170 -9 137 0Q104 9 78 24Q52 39 32.5 59Q13 79 1 100L104 171Q110 160 120.5 148.5Q131 137 144.5 127.5Q158 118 174.5 111.5Q191 105 210 105Q239 105 252.5 114.5Q266 124 266 141Q266 158 254 170.5Q242 183 210 204L187 219Q133 254 106 291Q79 328 79 379Q79 407 89 434.5Q99 462 120 483.5Q141 505 174.5 518Q208 531 256 531Q310 531 350.5 509.5Q391 488 417 450L324 382Q310 400 293.5 410.5Q277 421 254 421Q231 421 219.5 410.5Q208 400 208 386Q208 372 216 361Q224 350 246 336L269 321Q299 301 323.5 282.5Q348 264 364.5 244Q381 224 390 199.5Q399 175 399 143Q399 104 383.5 75Q368 46 342 27.5Q316 9 281.5 0Q247 -9 209 -9ZM306 791H317L434 575H332L289 647L222 575H113Z" glyph-name="Scircumflex.sc" horiz-adv-x="445" /><glyph d="M251 -9Q203 -9 162.5 3.5Q122 16 90.5 36Q59 56 36 80.5Q13 105 1 129L109 202Q119 185 133 169Q147 153 164.5 140Q182 127 203.5 119Q225 111 251 111Q294 111 321 130.5Q348 150 348 183Q348 197 343.5 208.5Q339 220 328.5 230.5Q318 241 302 252.5Q286 264 263 279L231 300Q166 342 134.5 387.5Q103 433 103 500Q103 538 116 572.5Q129 607 155.5 632.5Q182 658 222 673Q262 688 315 688Q378 688 423.5 665Q469 642 500 603L402 519Q382 543 361 556.5Q340 570 308 570Q272 570 255 551Q238 532 238 506Q238 480 254 461.5Q270 443 308 419L341 398Q375 376 402.5 355Q430 334 449 310.5Q468 287 478 258.5Q488 230 488 193Q488 142 470 104.5Q452 67 420 41.5Q388 16 344.5 3.5Q301 -9 251 -9ZM158 -183Q142 -175 130 -157.5Q118 -140 118 -115Q118 -83 141 -62Q164 -41 193 -41Q223 -41 246 -61.5Q269 -82 269 -114Q269 -140 260.5 -158.5Q252 -177 236 -199L174 -282H110Z" glyph-name="Scommaaccent" horiz-adv-x="526" unicode="&#536;" /><glyph d="M209 -9Q170 -9 137 0Q104 9 78 24Q52 39 32.5 59Q13 79 1 100L104 171Q110 160 120.5 148.5Q131 137 144.5 127.5Q158 118 174.5 111.5Q191 105 210 105Q239 105 252.5 114.5Q266 124 266 141Q266 158 254 170.5Q242 183 210 204L187 219Q133 254 106 291Q79 328 79 379Q79 407 89 434.5Q99 462 120 483.5Q141 505 174.5 518Q208 531 256 531Q310 531 350.5 509.5Q391 488 417 450L324 382Q310 400 293.5 410.5Q277 421 254 421Q231 421 219.5 410.5Q208 400 208 386Q208 372 216 361Q224 350 246 336L269 321Q299 301 323.5 282.5Q348 264 364.5 244Q381 224 390 199.5Q399 175 399 143Q399 104 383.5 75Q368 46 342 27.5Q316 9 281.5 0Q247 -9 209 -9ZM133 -184Q117 -176 105 -158.5Q93 -141 93 -116Q93 -84 116 -63Q139 -42 168 -42Q198 -42 221 -62.5Q244 -83 244 -115Q244 -141 235.5 -159.5Q227 -178 211 -200L149 -283H85Z" glyph-name="Scommaaccent.sc" horiz-adv-x="445" /><glyph d="M283 560H92L113 680H631L610 560H421L322 0H184Z" glyph-name="T" horiz-adv-x="575" unicode="T" /><glyph d="M211 406H66L86 522H513L493 406H348L278 0H140Z" glyph-name="T.sc" horiz-adv-x="487" /><glyph d="M283 560H92L113 680H631L610 560H421L322 0H184ZM259 945H361L404 872L471 945H580L387 728H376Z" glyph-name="Tcaron" horiz-adv-x="575" unicode="&#356;" /><glyph d="M211 406H66L86 522H513L493 406H348L278 0H140ZM185 782H287L330 709L397 782H506L313 565H302Z" glyph-name="Tcaron.sc" horiz-adv-x="487" /><glyph d="M283 560H92L113 680H631L610 560H421L322 0H292L285 -41Q313 -46 336.5 -69.5Q360 -93 360 -135Q360 -161 351 -180.5Q342 -200 327 -213Q312 -226 292 -233Q272 -240 251 -240Q203 -240 175.5 -222.5Q148 -205 134 -178L199 -142Q205 -153 214.5 -161.5Q224 -170 243 -170Q260 -170 270.5 -161Q281 -152 281 -134Q281 -117 271 -107Q261 -97 239 -97H204L221 0H184Z" glyph-name="Tcommaaccent" horiz-adv-x="575" unicode="&#354;" /><glyph d="M211 406H66L86 522H513L493 406H348L278 0H245L238 -41Q266 -46 289.5 -69.5Q313 -93 313 -135Q313 -161 304 -180.5Q295 -200 280 -213Q265 -226 245 -233Q225 -240 204 -240Q156 -240 128.5 -222.5Q101 -205 87 -178L152 -142Q158 -153 167.5 -161.5Q177 -170 196 -170Q213 -170 223.5 -161Q234 -152 234 -134Q234 -117 224 -107Q214 -97 192 -97H157L174 0H140Z" glyph-name="Tcommaaccent.sc" horiz-adv-x="487" /><glyph d="M152 680H289L270 570H341Q391 570 433.5 558Q476 546 507.5 521.5Q539 497 556.5 458Q574 419 574 365Q574 302 553 255Q532 208 496 177.5Q460 147 411.5 132Q363 117 309 117H189L169 0H32ZM314 236Q366 236 400 264Q434 292 434 356Q434 407 405 429Q376 451 328 451H248L210 236Z" glyph-name="Thorn" horiz-adv-x="583" unicode="&#222;" /><glyph d="M113 522H248L235 449H278Q322 449 359 439.5Q396 430 422.5 409.5Q449 389 464 358.5Q479 328 479 286Q479 235 462 198Q445 161 415 136.5Q385 112 343.5 100.5Q302 89 253 89H172L156 0H21ZM258 199Q301 199 321 220Q341 241 341 275Q341 304 322 320Q303 336 266 336H215L191 199Z" glyph-name="Thorn.sc" horiz-adv-x="492" /><glyph d="M323 -9Q262 -9 211.5 11Q161 31 127.5 67.5Q94 104 80 155.5Q66 207 77 270L149 680H287L213 260Q200 188 230.5 150.5Q261 113 330 113Q394 113 427.5 146Q461 179 473 246L550 680H688L607 224Q586 106 512 48.5Q438 -9 323 -9Z" glyph-name="U" horiz-adv-x="669" unicode="U" /><glyph d="M260 -9Q209 -9 167 7.5Q125 24 97.5 54Q70 84 58 125Q46 166 55 215L109 522H244L188 202Q180 160 199 135Q218 110 266 110Q311 110 334.5 134Q358 158 366 203L422 522H557L497 180Q480 89 419 40Q358 -9 260 -9Z" glyph-name="U.sc" horiz-adv-x="554" /><glyph d="M323 -9Q262 -9 211.5 11Q161 31 127.5 67.5Q94 104 80 155.5Q66 207 77 270L149 680H287L213 260Q200 188 230.5 150.5Q261 113 330 113Q394 113 427.5 146Q461 179 473 246L550 680H688L607 224Q586 106 512 48.5Q438 -9 323 -9ZM448 926H606L470 738H368Z" glyph-name="Uacute" horiz-adv-x="669" unicode="&#218;" /><glyph d="M260 -9Q209 -9 167 7.5Q125 24 97.5 54Q70 84 58 125Q46 166 55 215L109 522H244L188 202Q180 160 199 135Q218 110 266 110Q311 110 334.5 134Q358 158 366 203L422 522H557L497 180Q480 89 419 40Q358 -9 260 -9ZM369 773H527L391 585H289Z" glyph-name="Uacute.sc" horiz-adv-x="554" /><glyph d="M323 -9Q262 -9 211.5 11Q161 31 127.5 67.5Q94 104 80 155.5Q66 207 77 270L149 680H287L213 260Q200 188 230.5 150.5Q261 113 330 113Q394 113 427.5 146Q461 179 473 246L550 680H688L607 224Q586 106 512 48.5Q438 -9 323 -9ZM438 737Q367 737 327 777Q287 817 284 877L385 892Q387 866 399.5 850.5Q412 835 439 835Q466 835 480 850.5Q494 866 499 892L598 877Q589 817 548 777Q507 737 438 737Z" glyph-name="Ubreve" horiz-adv-x="669" unicode="&#364;" /><glyph d="M260 -9Q209 -9 167 7.5Q125 24 97.5 54Q70 84 58 125Q46 166 55 215L109 522H244L188 202Q180 160 199 135Q218 110 266 110Q311 110 334.5 134Q358 158 366 203L422 522H557L497 180Q480 89 419 40Q358 -9 260 -9ZM358 580Q287 580 247 620Q207 660 204 720L305 735Q307 709 319.5 693.5Q332 678 359 678Q386 678 400 693.5Q414 709 419 735L518 720Q509 660 468 620Q427 580 358 580Z" glyph-name="Ubreve.sc" horiz-adv-x="554" /><glyph d="M323 -9Q262 -9 211.5 11Q161 31 127.5 67.5Q94 104 80 155.5Q66 207 77 270L149 680H287L213 260Q200 188 230.5 150.5Q261 113 330 113Q394 113 427.5 146Q461 179 473 246L550 680H688L607 224Q586 106 512 48.5Q438 -9 323 -9ZM458 956H469L586 740H484L441 812L374 740H265Z" glyph-name="Ucircumflex" horiz-adv-x="669" unicode="&#219;" /><glyph d="M260 -9Q209 -9 167 7.5Q125 24 97.5 54Q70 84 58 125Q46 166 55 215L109 522H244L188 202Q180 160 199 135Q218 110 266 110Q311 110 334.5 134Q358 158 366 203L422 522H557L497 180Q480 89 419 40Q358 -9 260 -9ZM377 791H388L505 575H403L360 647L293 575H184Z" glyph-name="Ucircumflex.sc" horiz-adv-x="554" /><glyph d="M323 -9Q262 -9 211.5 11Q161 31 127.5 67.5Q94 104 80 155.5Q66 207 77 270L149 680H287L213 260Q200 188 230.5 150.5Q261 113 330 113Q394 113 427.5 146Q461 179 473 246L550 680H688L607 224Q586 106 512 48.5Q438 -9 323 -9ZM539 740Q511 740 488.5 761.5Q466 783 466 814Q466 845 488.5 866.5Q511 888 539 888Q568 888 589.5 866.5Q611 845 611 814Q611 783 589.5 761.5Q568 740 539 740ZM339 740Q311 740 289 761.5Q267 783 267 814Q267 845 289 866.5Q311 888 339 888Q368 888 390 866.5Q412 845 412 814Q412 783 390 761.5Q368 740 339 740Z" glyph-name="Udieresis" horiz-adv-x="669" unicode="&#220;" /><glyph d="M260 -9Q209 -9 167 7.5Q125 24 97.5 54Q70 84 58 125Q46 166 55 215L109 522H244L188 202Q180 160 199 135Q218 110 266 110Q311 110 334.5 134Q358 158 366 203L422 522H557L497 180Q480 89 419 40Q358 -9 260 -9ZM459 583Q431 583 408.5 604.5Q386 626 386 657Q386 688 408.5 709.5Q431 731 459 731Q488 731 509.5 709.5Q531 688 531 657Q531 626 509.5 604.5Q488 583 459 583ZM259 583Q231 583 209 604.5Q187 626 187 657Q187 688 209 709.5Q231 731 259 731Q288 731 310 709.5Q332 688 332 657Q332 626 310 604.5Q288 583 259 583Z" glyph-name="Udieresis.sc" horiz-adv-x="554" /><glyph d="M323 -9Q262 -9 211.5 11Q161 31 127.5 67.5Q94 104 80 155.5Q66 207 77 270L149 680H287L213 260Q200 188 230.5 150.5Q261 113 330 113Q394 113 427.5 146Q461 179 473 246L550 680H688L607 224Q586 106 512 48.5Q438 -9 323 -9ZM278 926H430L469 738H369Z" glyph-name="Ugrave" horiz-adv-x="669" unicode="&#217;" /><glyph d="M260 -9Q209 -9 167 7.5Q125 24 97.5 54Q70 84 58 125Q46 166 55 215L109 522H244L188 202Q180 160 199 135Q218 110 266 110Q311 110 334.5 134Q358 158 366 203L422 522H557L497 180Q480 89 419 40Q358 -9 260 -9ZM199 773H351L390 585H290Z" glyph-name="Ugrave.sc" horiz-adv-x="554" /><glyph d="M323 -9Q262 -9 211.5 11Q161 31 127.5 67.5Q94 104 80 155.5Q66 207 77 270L149 680H287L213 260Q200 188 230.5 150.5Q261 113 330 113Q394 113 427.5 146Q461 179 473 246L550 680H688L607 224Q586 106 512 48.5Q438 -9 323 -9ZM535 946H673L551 758H449ZM354 946H492L370 758H268Z" glyph-name="Uhungarumlaut" horiz-adv-x="669" unicode="&#368;" /><glyph d="M260 -9Q209 -9 167 7.5Q125 24 97.5 54Q70 84 58 125Q46 166 55 215L109 522H244L188 202Q180 160 199 135Q218 110 266 110Q311 110 334.5 134Q358 158 366 203L422 522H557L497 180Q480 89 419 40Q358 -9 260 -9ZM453 773H591L469 585H367ZM272 773H410L288 585H186Z" glyph-name="Uhungarumlaut.sc" horiz-adv-x="554" /><glyph d="M323 -9Q262 -9 211.5 11Q161 31 127.5 67.5Q94 104 80 155.5Q66 207 77 270L149 680H287L213 260Q200 188 230.5 150.5Q261 113 330 113Q394 113 427.5 146Q461 179 473 246L550 680H688L607 224Q586 106 512 48.5Q438 -9 323 -9ZM315 846H575L558 750H298Z" glyph-name="Umacron" horiz-adv-x="669" unicode="&#362;" /><glyph d="M236 697H496L479 601H219ZM260 -9Q209 -9 167 7.5Q125 24 97.5 54Q70 84 58 125Q46 166 55 215L109 522H244L188 202Q180 160 199 135Q218 110 266 110Q311 110 334.5 134Q358 158 366 203L422 522H557L497 180Q480 89 419 40Q358 -9 260 -9Z" glyph-name="Umacron.sc" horiz-adv-x="554" /><glyph d="M285 -7Q232 -1 189 21Q146 43 117.5 79Q89 115 77.5 163Q66 211 77 270L149 680H287L213 260Q200 188 230.5 150.5Q261 113 330 113Q394 113 427.5 146Q461 179 473 246L550 680H688L607 224Q588 118 525.5 60.5Q463 3 365 -7H364L315 -70Q297 -93 290 -107Q283 -121 283 -140Q283 -169 311 -169Q325 -169 334 -160.5Q343 -152 351 -141L416 -179Q401 -205 375.5 -222.5Q350 -240 305 -240Q284 -240 264.5 -234.5Q245 -229 230 -217Q215 -205 206 -187.5Q197 -170 197 -146Q197 -112 212 -85.5Q227 -59 250 -39L285 -7Z" glyph-name="Uogonek" horiz-adv-x="669" unicode="&#370;" /><glyph d="M225 -7Q181 -1 146 17.5Q111 36 88 65Q65 94 56 132Q47 170 55 215L109 522H244L188 202Q180 160 199 135Q218 110 266 110Q311 110 334.5 134Q358 158 366 203L422 522H557L497 180Q483 100 433.5 52.5Q384 5 305 -6L255 -70Q237 -93 230 -107Q223 -121 223 -140Q223 -169 251 -169Q265 -169 274 -160.5Q283 -152 291 -141L356 -179Q341 -205 315.5 -222.5Q290 -240 245 -240Q224 -240 204.5 -234.5Q185 -229 170 -217Q155 -205 146 -187.5Q137 -170 137 -146Q137 -112 152 -85.5Q167 -59 190 -39L225 -7Z" glyph-name="Uogonek.sc" horiz-adv-x="554" /><glyph d="M323 -9Q262 -9 211.5 11Q161 31 127.5 67.5Q94 104 80 155.5Q66 207 77 270L149 680H287L213 260Q200 188 230.5 150.5Q261 113 330 113Q394 113 427.5 146Q461 179 473 246L550 680H688L607 224Q586 106 512 48.5Q438 -9 323 -9ZM426 702Q399 702 376.5 711.5Q354 721 337 737.5Q320 754 310.5 775.5Q301 797 301 821Q301 845 310.5 867Q320 889 337 905Q354 921 376.5 930.5Q399 940 426 940Q453 940 475.5 930.5Q498 921 515 905Q532 889 541.5 867Q551 845 551 821Q551 797 541.5 775.5Q532 754 515 737.5Q498 721 475.5 711.5Q453 702 426 702ZM426 775Q443 775 455.5 787Q468 799 468 821Q468 843 455.5 855Q443 867 426 867Q409 867 396.5 855Q384 843 384 821Q384 799 396.5 787Q409 775 426 775Z" glyph-name="Uring" horiz-adv-x="669" unicode="&#366;" /><glyph d="M260 -9Q209 -9 167 7.5Q125 24 97.5 54Q70 84 58 125Q46 166 55 215L109 522H244L188 202Q180 160 199 135Q218 110 266 110Q311 110 334.5 134Q358 158 366 203L422 522H557L497 180Q480 89 419 40Q358 -9 260 -9ZM346 549Q319 549 296.5 558.5Q274 568 257 584.5Q240 601 230.5 622.5Q221 644 221 668Q221 692 230.5 714Q240 736 257 752Q274 768 296.5 777.5Q319 787 346 787Q373 787 395.5 777.5Q418 768 435 752Q452 736 461.5 714Q471 692 471 668Q471 644 461.5 622.5Q452 601 435 584.5Q418 568 395.5 558.5Q373 549 346 549ZM346 622Q363 622 375.5 634Q388 646 388 668Q388 690 375.5 702Q363 714 346 714Q329 714 316.5 702Q304 690 304 668Q304 646 316.5 634Q329 622 346 622Z" glyph-name="Uring.sc" horiz-adv-x="554" /><glyph d="M323 -9Q262 -9 211.5 11Q161 31 127.5 67.5Q94 104 80 155.5Q66 207 77 270L149 680H287L213 260Q200 188 230.5 150.5Q261 113 330 113Q394 113 427.5 146Q461 179 473 246L550 680H688L607 224Q586 106 512 48.5Q438 -9 323 -9ZM276 757Q285 828 316.5 862.5Q348 897 390 897Q411 897 426 891Q441 885 453 877Q469 866 478.5 859Q488 852 498 852Q512 852 518.5 863Q525 874 529 897L616 888Q608 817 576 782.5Q544 748 502 748Q482 748 466.5 754Q451 760 439 768Q423 779 414 786Q405 793 394 793Q370 793 363 748Z" glyph-name="Utilde" horiz-adv-x="669" unicode="&#360;" /><glyph d="M260 -9Q209 -9 167 7.5Q125 24 97.5 54Q70 84 58 125Q46 166 55 215L109 522H244L188 202Q180 160 199 135Q218 110 266 110Q311 110 334.5 134Q358 158 366 203L422 522H557L497 180Q480 89 419 40Q358 -9 260 -9ZM189 595Q198 666 229.5 700.5Q261 735 303 735Q324 735 339 729Q354 723 366 715Q382 704 391.5 697Q401 690 411 690Q425 690 431.5 701Q438 712 442 735L529 726Q521 655 489 620.5Q457 586 415 586Q395 586 379.5 592Q364 598 352 606Q336 617 327 624Q318 631 307 631Q283 631 276 586Z" glyph-name="Utilde.sc" horiz-adv-x="554" /><glyph d="M103 680H242L311 425Q317 401 322.5 371Q328 341 332.5 312.5Q337 284 341 253Q354 283 366 311Q378 339 391.5 367Q405 395 419 418L570 680H712L311 -6H297Z" glyph-name="V" horiz-adv-x="647" unicode="V" /><glyph d="M73 522H213L253 368Q260 342 264 315Q268 288 270.5 263.5Q273 239 274 214Q281 237 290 260.5Q299 284 310 310Q321 336 335 360L428 522H568L244 -7H232Z" glyph-name="V.sc" horiz-adv-x="529" /><glyph d="M103 680H245L290 416Q293 396 296 372.5Q299 349 301 327Q303 305 305 279Q314 301 324 322.5Q334 344 345.5 366Q357 388 369 407L546 686H560L634 415Q639 396 644 372.5Q649 349 653 328Q658 303 662 279Q670 302 679 325Q687 345 696 366.5Q705 388 715 407L859 680H999L633 -6H620L532 314Q527 331 523.5 351.5Q520 372 517 390Q513 411 511 432Q502 411 492 392Q484 375 474 356Q464 337 454 322L244 -6H231Z" glyph-name="W" horiz-adv-x="934" unicode="W" /><glyph d="M73 522H212L241 379Q246 356 248.5 333Q251 310 253 289.5Q255 269 256 248Q263 269 272 288.5Q281 308 291.5 329.5Q302 351 315 370L420 528H431L481 363Q487 342 491.5 321Q496 300 499.5 280.5Q503 261 505 239Q512 260 519.5 279.5Q527 299 536 320Q545 341 555 360L645 522H781L486 -7H475L416 196Q410 215 405.5 236Q401 257 397.5 276.5Q394 296 391 316Q384 297 375.5 279Q367 261 357 242Q347 223 336 205L198 -7H187Z" glyph-name="W.sc" horiz-adv-x="742" /><glyph d="M103 680H245L290 416Q293 396 296 372.5Q299 349 301 327Q303 305 305 279Q314 301 324 322.5Q334 344 345.5 366Q357 388 369 407L546 686H560L634 415Q639 396 644 372.5Q649 349 653 328Q658 303 662 279Q670 302 679 325Q687 345 696 366.5Q705 388 715 407L859 680H999L633 -6H620L532 314Q527 331 523.5 351.5Q520 372 517 390Q513 411 511 432Q502 411 492 392Q484 375 474 356Q464 337 454 322L244 -6H231ZM591 964H602L719 748H617L574 820L507 748H398Z" glyph-name="Wcircumflex" horiz-adv-x="934" unicode="&#372;" /><glyph d="M73 522H212L241 379Q246 356 248.5 333Q251 310 253 289.5Q255 269 256 248Q263 269 272 288.5Q281 308 291.5 329.5Q302 351 315 370L420 528H431L481 363Q487 342 491.5 321Q496 300 499.5 280.5Q503 261 505 239Q512 260 519.5 279.5Q527 299 536 320Q545 341 555 360L645 522H781L486 -7H475L416 196Q410 215 405.5 236Q401 257 397.5 276.5Q394 296 391 316Q384 297 375.5 279Q367 261 357 242Q347 223 336 205L198 -7H187ZM471 802H482L599 586H497L454 658L387 586H278Z" glyph-name="Wcircumflex.sc" horiz-adv-x="742" /><glyph d="M271 374 144 680H292L336 570Q342 555 347.5 536Q353 517 357 499.5Q361 482 366 461Q375 480 384 497Q393 514 403 531Q413 548 424 563L511 680H660L428 373L583 0H435L365 175Q359 189 353.5 208.5Q348 228 343 245Q338 265 334 286Q325 266 314 248Q305 231 294 213Q283 195 272 181L136 0H-13Z" glyph-name="X" horiz-adv-x="642" unicode="X" /><glyph d="M207 288 111 522H258L276 467Q283 447 287 432Q291 417 295 398.5Q299 380 303 353Q311 372 320.5 390Q330 408 341.5 427.5Q353 447 366 466L401 522H547L367 287L487 0H340L303 101Q295 121 289.5 141Q284 161 279.5 179Q275 197 272 215Q265 198 255 180Q247 164 235.5 145.5Q224 127 210 108L131 0H-15Z" glyph-name="X.sc" horiz-adv-x="544" /><glyph d="M250 252 95 680H242L305 498Q312 478 317.5 454.5Q323 431 328 410Q333 385 337 361Q349 384 360.5 406Q372 428 385.5 451.5Q399 475 413 495L539 680H684L387 253L343 0H206Z" glyph-name="Y" horiz-adv-x="621" unicode="Y" /><glyph d="M184 191 66 522H213L242 421Q249 401 254 379Q259 357 263 334Q267 310 270 286Q281 310 293 334Q329 401 343 421L409 522H549L320 186L286 0H150Z" glyph-name="Y.sc" horiz-adv-x="511" /><glyph d="M250 252 95 680H242L305 498Q312 478 317.5 454.5Q323 431 328 410Q333 385 337 361Q349 384 360.5 406Q372 428 385.5 451.5Q399 475 413 495L539 680H684L387 253L343 0H206ZM415 926H573L437 738H335Z" glyph-name="Yacute" horiz-adv-x="621" unicode="&#221;" /><glyph d="M184 191 66 522H213L242 421Q249 401 254 379Q259 357 263 334Q267 310 270 286Q281 310 293 334Q329 401 343 421L409 522H549L320 186L286 0H150ZM337 773H495L359 585H257Z" glyph-name="Yacute.sc" horiz-adv-x="511" /><glyph d="M250 252 95 680H242L305 498Q312 478 317.5 454.5Q323 431 328 410Q333 385 337 361Q349 384 360.5 406Q372 428 385.5 451.5Q399 475 413 495L539 680H684L387 253L343 0H206ZM453 964H464L581 748H479L436 820L369 748H260Z" glyph-name="Ycircumflex" horiz-adv-x="621" unicode="&#374;" /><glyph d="M184 191 66 522H213L242 421Q249 401 254 379Q259 357 263 334Q267 310 270 286Q281 310 293 334Q329 401 343 421L409 522H549L320 186L286 0H150ZM321 587Q250 587 210 627Q170 667 167 727L268 742Q270 716 282.5 700.5Q295 685 322 685Q349 685 363 700.5Q377 716 382 742L481 727Q472 667 431 627Q390 587 321 587Z" glyph-name="Ycircumflex.sc" horiz-adv-x="511" /><glyph d="M250 252 95 680H242L305 498Q312 478 317.5 454.5Q323 431 328 410Q333 385 337 361Q349 384 360.5 406Q372 428 385.5 451.5Q399 475 413 495L539 680H684L387 253L343 0H206ZM506 741Q478 741 455.5 762.5Q433 784 433 815Q433 846 455.5 867.5Q478 889 506 889Q535 889 556.5 867.5Q578 846 578 815Q578 784 556.5 762.5Q535 741 506 741ZM306 741Q278 741 256 762.5Q234 784 234 815Q234 846 256 867.5Q278 889 306 889Q335 889 357 867.5Q379 846 379 815Q379 784 357 762.5Q335 741 306 741Z" glyph-name="Ydieresis" horiz-adv-x="621" unicode="&#376;" /><glyph d="M184 191 66 522H213L242 421Q249 401 254 379Q259 357 263 334Q267 310 270 286Q281 310 293 334Q329 401 343 421L409 522H549L320 186L286 0H150ZM427 583Q399 583 376.5 604.5Q354 626 354 657Q354 688 376.5 709.5Q399 731 427 731Q456 731 477.5 709.5Q499 688 499 657Q499 626 477.5 604.5Q456 583 427 583ZM227 583Q199 583 177 604.5Q155 626 155 657Q155 688 177 709.5Q199 731 227 731Q256 731 278 709.5Q300 688 300 657Q300 626 278 604.5Q256 583 227 583Z" glyph-name="Ydieresis.sc" horiz-adv-x="511" /><glyph d="M2 12 391 561H138L159 680H621V668L231 119H522L501 0H2Z" glyph-name="Z" horiz-adv-x="595" unicode="Z" /><glyph d="M0 11 286 408H93L113 522H507V511L222 114H432L412 0H0Z" glyph-name="Z.sc" horiz-adv-x="496" /><glyph d="M2 12 391 561H138L159 680H621V668L231 119H522L501 0H2ZM410 926H568L432 738H330Z" glyph-name="Zacute" horiz-adv-x="595" unicode="&#377;" /><glyph d="M0 11 286 408H93L113 522H507V511L222 114H432L412 0H0ZM333 773H491L355 585H253Z" glyph-name="Zacute.sc" horiz-adv-x="496" /><glyph d="M2 12 391 561H138L159 680H621V668L231 119H522L501 0H2ZM260 945H362L405 872L472 945H581L388 728H377Z" glyph-name="Zcaron" horiz-adv-x="595" unicode="&#381;" /><glyph d="M0 11 286 408H93L113 522H507V511L222 114H432L412 0H0ZM183 782H285L328 709L395 782H504L311 565H300Z" glyph-name="Zcaron.sc" horiz-adv-x="496" /><glyph d="M401 732Q368 732 343.5 754.5Q319 777 319 814Q319 850 343 872.5Q367 895 400 895Q434 895 458.5 872.5Q483 850 483 814Q483 777 459 754.5Q435 732 401 732ZM2 12 391 561H138L159 680H621V668L231 119H522L501 0H2Z" glyph-name="Zdotaccent" horiz-adv-x="595" unicode="&#379;" /><glyph d="M322 575Q289 575 264.5 597.5Q240 620 240 657Q240 693 264 715.5Q288 738 321 738Q355 738 379.5 715.5Q404 693 404 657Q404 620 380 597.5Q356 575 322 575ZM0 11 286 408H93L113 522H507V511L222 114H432L412 0H0Z" glyph-name="Zdotaccent.sc" horiz-adv-x="496" /><glyph d="M200 -9Q165 -9 135 5.5Q105 20 82 46.5Q59 73 46 110.5Q33 148 33 195Q33 253 49.5 297.5Q66 342 93.5 372.5Q121 403 157.5 419Q194 435 235 435Q279 435 314.5 417.5Q350 400 372 358L381 426H513L460 124Q456 99 478 99H508L491 0H441Q405 0 383.5 4.5Q362 9 350 17Q338 25 333 35Q328 45 325 59L324 64Q299 27 272 9Q245 -9 200 -9ZM253 105Q295 105 321 137.5Q347 170 347 221Q347 266 326 293Q305 320 265 320Q221 320 196 287.5Q171 255 171 201Q171 156 192.5 130.5Q214 105 253 105Z" glyph-name="a" horiz-adv-x="532" unicode="a" /><glyph d="M200 -9Q165 -9 135 5.5Q105 20 82 46.5Q59 73 46 110.5Q33 148 33 195Q33 253 49.5 297.5Q66 342 93.5 372.5Q121 403 157.5 419Q194 435 235 435Q279 435 314.5 417.5Q350 400 372 358L381 426H513L460 124Q456 99 478 99H508L491 0H441Q405 0 383.5 4.5Q362 9 350 17Q338 25 333 35Q328 45 325 59L324 64Q299 27 272 9Q245 -9 200 -9ZM253 105Q295 105 321 137.5Q347 170 347 221Q347 266 326 293Q305 320 265 320Q221 320 196 287.5Q171 255 171 201Q171 156 192.5 130.5Q214 105 253 105ZM327 688H485L349 500H247Z" glyph-name="aacute" horiz-adv-x="532" unicode="&#225;" /><glyph d="M200 -9Q165 -9 135 5.5Q105 20 82 46.5Q59 73 46 110.5Q33 148 33 195Q33 253 49.5 297.5Q66 342 93.5 372.5Q121 403 157.5 419Q194 435 235 435Q279 435 314.5 417.5Q350 400 372 358L381 426H513L460 124Q456 99 478 99H508L491 0H441Q405 0 383.5 4.5Q362 9 350 17Q338 25 333 35Q328 45 325 59L324 64Q299 27 272 9Q245 -9 200 -9ZM253 105Q295 105 321 137.5Q347 170 347 221Q347 266 326 293Q305 320 265 320Q221 320 196 287.5Q171 255 171 201Q171 156 192.5 130.5Q214 105 253 105ZM318 500Q247 500 207 540Q167 580 164 640L265 655Q267 629 279.5 613.5Q292 598 319 598Q346 598 360 613.5Q374 629 379 655L478 640Q469 580 428 540Q387 500 318 500Z" glyph-name="abreve" horiz-adv-x="532" unicode="&#259;" /><glyph d="M200 -9Q165 -9 135 5.5Q105 20 82 46.5Q59 73 46 110.5Q33 148 33 195Q33 253 49.5 297.5Q66 342 93.5 372.5Q121 403 157.5 419Q194 435 235 435Q279 435 314.5 417.5Q350 400 372 358L381 426H513L460 124Q456 99 478 99H508L491 0H441Q405 0 383.5 4.5Q362 9 350 17Q338 25 333 35Q328 45 325 59L324 64Q299 27 272 9Q245 -9 200 -9ZM253 105Q295 105 321 137.5Q347 170 347 221Q347 266 326 293Q305 320 265 320Q221 320 196 287.5Q171 255 171 201Q171 156 192.5 130.5Q214 105 253 105ZM338 716H349L466 500H364L321 572L254 500H145Z" glyph-name="acircumflex" horiz-adv-x="532" unicode="&#226;" /><glyph d="M310 688H468L332 500H230Z" glyph-name="acute" horiz-adv-x="490" unicode="&#180;" /><glyph d="M310 688H468L332 500H230Z" glyph-name="acutecomb" horiz-adv-x="490" unicode="&#769;" /><glyph d="M200 -9Q165 -9 135 5.5Q105 20 82 46.5Q59 73 46 110.5Q33 148 33 195Q33 253 49.5 297.5Q66 342 93.5 372.5Q121 403 157.5 419Q194 435 235 435Q279 435 314.5 417.5Q350 400 372 358L381 426H513L460 124Q456 99 478 99H508L491 0H441Q405 0 383.5 4.5Q362 9 350 17Q338 25 333 35Q328 45 325 59L324 64Q299 27 272 9Q245 -9 200 -9ZM253 105Q295 105 321 137.5Q347 170 347 221Q347 266 326 293Q305 320 265 320Q221 320 196 287.5Q171 255 171 201Q171 156 192.5 130.5Q214 105 253 105ZM419 508Q391 508 368.5 529.5Q346 551 346 582Q346 613 368.5 634.5Q391 656 419 656Q448 656 469.5 634.5Q491 613 491 582Q491 551 469.5 529.5Q448 508 419 508ZM219 508Q191 508 169 529.5Q147 551 147 582Q147 613 169 634.5Q191 656 219 656Q248 656 270 634.5Q292 613 292 582Q292 551 270 529.5Q248 508 219 508Z" glyph-name="adieresis" horiz-adv-x="532" unicode="&#228;" /><glyph d="M379 379Q433 435 522 435Q579 435 620 417.5Q661 400 688 368.5Q715 337 729 293Q743 249 746 196L430 162Q452 99 535 99Q571 99 595 110Q619 121 636 135L716 51Q681 22 638.5 6.5Q596 -9 534 -9Q471 -9 428 11.5Q385 32 359 68Q335 30 294.5 10.5Q254 -9 190 -9Q152 -9 120 -1Q88 7 64.5 23Q41 39 28 62.5Q15 86 15 118Q15 155 28.5 180.5Q42 206 66.5 221.5Q91 237 124.5 243.5Q158 250 199 250H305Q306 254 306 261Q306 292 289.5 311Q273 330 236 330Q205 330 179.5 320Q154 310 138 296L68 378Q94 401 136.5 418Q179 435 242 435Q286 435 321 421Q356 407 379 379ZM602 255Q600 290 580 310Q560 330 523 330Q481 330 455.5 307Q430 284 425 236ZM197 174Q147 174 147 134Q147 117 160 105Q173 93 205 93Q279 93 288 149L292 174Z" glyph-name="ae" horiz-adv-x="772" unicode="&#230;" /><glyph d="M200 -9Q165 -9 135 5.5Q105 20 82 46.5Q59 73 46 110.5Q33 148 33 195Q33 253 49.5 297.5Q66 342 93.5 372.5Q121 403 157.5 419Q194 435 235 435Q279 435 314.5 417.5Q350 400 372 358L381 426H513L460 124Q456 99 478 99H508L491 0H441Q405 0 383.5 4.5Q362 9 350 17Q338 25 333 35Q328 45 325 59L324 64Q299 27 272 9Q245 -9 200 -9ZM253 105Q295 105 321 137.5Q347 170 347 221Q347 266 326 293Q305 320 265 320Q221 320 196 287.5Q171 255 171 201Q171 156 192.5 130.5Q214 105 253 105ZM156 688H308L347 500H247Z" glyph-name="agrave" horiz-adv-x="532" unicode="&#224;" /><glyph d="M200 -9Q165 -9 135 5.5Q105 20 82 46.5Q59 73 46 110.5Q33 148 33 195Q33 253 49.5 297.5Q66 342 93.5 372.5Q121 403 157.5 419Q194 435 235 435Q279 435 314.5 417.5Q350 400 372 358L381 426H513L460 124Q456 99 478 99H508L491 0H441Q405 0 383.5 4.5Q362 9 350 17Q338 25 333 35Q328 45 325 59L324 64Q299 27 272 9Q245 -9 200 -9ZM253 105Q295 105 321 137.5Q347 170 347 221Q347 266 326 293Q305 320 265 320Q221 320 196 287.5Q171 255 171 201Q171 156 192.5 130.5Q214 105 253 105ZM195 613H455L438 517H178Z" glyph-name="amacron" horiz-adv-x="532" unicode="&#257;" /><glyph d="M471 231Q502 287 511 361H632Q623 289 599 230Q575 171 539 125Q551 112 573 112H631L611 0H556Q515 0 489 9.5Q463 19 442 39Q404 16 362 3.5Q320 -9 275 -9Q215 -9 169.5 6Q124 21 93.5 47Q63 73 47.5 108Q32 143 32 182Q32 256 78.5 305.5Q125 355 211 394Q191 432 185 462.5Q179 493 179 522Q179 596 229 642Q279 688 367 688Q403 688 433 677Q463 666 484.5 646Q506 626 518.5 598.5Q531 571 531 539Q531 486 496 443Q461 400 386 366ZM337 443Q379 463 396 485Q413 507 413 532Q413 554 400 569.5Q387 585 366 585Q340 585 325 567.5Q310 550 310 523Q310 500 317 481.5Q324 463 333 449ZM260 313Q215 289 196 259.5Q177 230 177 192Q177 157 202.5 133Q228 109 274 109Q329 109 374 133Z" glyph-name="ampersand" horiz-adv-x="681" unicode="&amp;" /><glyph d="M414 1Q410 -4 359 -70Q341 -93 334 -107Q327 -121 327 -140Q327 -153 334 -161Q341 -169 355 -169Q369 -169 378.5 -160.5Q388 -152 395 -141L460 -179Q445 -205 419.5 -222.5Q394 -240 349 -240Q328 -240 308.5 -234.5Q289 -229 274 -217Q259 -205 250 -187.5Q241 -170 241 -146Q241 -112 258 -84Q275 -56 299 -34L353 15Q339 23 333.5 34Q328 45 325 59L324 64Q299 27 272 9Q245 -9 200 -9Q165 -9 135 5.5Q105 20 82 46.5Q59 73 46 110.5Q33 148 33 195Q33 253 49.5 297.5Q66 342 93.5 372.5Q121 403 157.5 419Q194 435 235 435Q279 435 314.5 417.5Q350 400 372 358L381 426H513L460 124Q456 99 478 99H508L491 0H441Q433 0 427 0Q421 0 414 1ZM253 105Q295 105 321 137.5Q347 170 347 221Q347 266 326 293Q305 320 265 320Q221 320 196 287.5Q171 255 171 201Q171 156 192.5 130.5Q214 105 253 105Z" glyph-name="aogonek" horiz-adv-x="532" unicode="&#261;" /><glyph d="M64 335Q74 408 109 443.5Q144 479 189 479Q212 479 228.5 473Q245 467 259 459Q276 448 286.5 440.5Q297 433 308 433Q323 433 330.5 444.5Q338 456 342 479L438 470Q430 398 394.5 362Q359 326 312 326Q290 326 273.5 332Q257 338 243 347Q226 358 215.5 365Q205 372 194 372Q167 372 160 326ZM22 166Q32 238 67 274Q102 310 147 310Q170 310 186.5 304Q203 298 217 289Q234 278 244.5 271Q255 264 266 264Q281 264 288.5 275.5Q296 287 300 310L396 301Q388 228 352.5 192.5Q317 157 271 157Q248 157 231.5 163Q215 169 201 177Q184 188 173.5 195.5Q163 203 152 203Q126 203 118 157Z" glyph-name="approxequal" horiz-adv-x="421" unicode="&#8776;" /><glyph d="M59 285Q68 356 99.5 390.5Q131 425 173 425Q194 425 209 419Q224 413 236 405Q252 394 261.5 387Q271 380 281 380Q295 380 301.5 391Q308 402 312 425L399 416Q391 345 359 310.5Q327 276 285 276Q265 276 249.5 282Q234 288 222 296Q206 307 197 314Q188 321 177 321Q153 321 146 276ZM21 120Q30 191 61.5 225.5Q93 260 135 260Q156 260 171 254Q186 248 198 240Q214 229 223.5 222Q233 215 243 215Q257 215 263.5 226Q270 237 274 260L361 251Q353 180 321 145.5Q289 111 247 111Q227 111 211.5 117Q196 123 184 131Q168 142 159 149Q150 156 139 156Q115 156 108 111Z" glyph-name="approxequal.os" horiz-adv-x="369" /><glyph d="M59 285Q68 356 99.5 390.5Q131 425 173 425Q194 425 209 419Q224 413 236 405Q252 394 261.5 387Q271 380 281 380Q295 380 301.5 391Q308 402 312 425L399 416Q391 345 359 310.5Q327 276 285 276Q265 276 249.5 282Q234 288 222 296Q206 307 197 314Q188 321 177 321Q153 321 146 276ZM21 120Q30 191 61.5 225.5Q93 260 135 260Q156 260 171 254Q186 248 198 240Q214 229 223.5 222Q233 215 243 215Q257 215 263.5 226Q270 237 274 260L361 251Q353 180 321 145.5Q289 111 247 111Q227 111 211.5 117Q196 123 184 131Q168 142 159 149Q150 156 139 156Q115 156 108 111Z" glyph-name="approxequal.sc" horiz-adv-x="369" /><glyph d="M124 285Q133 356 164.5 390.5Q196 425 238 425Q259 425 274 419Q289 413 301 405Q317 394 326.5 387Q336 380 346 380Q360 380 366.5 391Q373 402 377 425L464 416Q456 345 424 310.5Q392 276 350 276Q330 276 314.5 282Q299 288 287 296Q271 307 262 314Q253 321 242 321Q218 321 211 276ZM86 120Q95 191 126.5 225.5Q158 260 200 260Q221 260 236 254Q251 248 263 240Q279 229 288.5 222Q298 215 308 215Q322 215 328.5 226Q335 237 339 260L426 251Q418 180 386 145.5Q354 111 312 111Q292 111 276.5 117Q261 123 249 131Q233 142 224 149Q215 156 204 156Q180 156 173 111Z" glyph-name="approxequal.sctab" horiz-adv-x="500" /><glyph d="M134 285Q143 356 174.5 390.5Q206 425 248 425Q269 425 284 419Q299 413 311 405Q327 394 336.5 387Q346 380 356 380Q370 380 376.5 391Q383 402 387 425L474 416Q466 345 434 310.5Q402 276 360 276Q340 276 324.5 282Q309 288 297 296Q281 307 272 314Q263 321 252 321Q228 321 221 276ZM96 120Q105 191 136.5 225.5Q168 260 210 260Q231 260 246 254Q261 248 273 240Q289 229 298.5 222Q308 215 318 215Q332 215 338.5 226Q345 237 349 260L436 251Q428 180 396 145.5Q364 111 322 111Q302 111 286.5 117Q271 123 259 131Q243 142 234 149Q225 156 214 156Q190 156 183 111Z" glyph-name="approxequal.tab" horiz-adv-x="520" /><glyph d="M119 335Q129 408 166 443.5Q203 479 251 479Q276 479 299 471Q322 463 342 454Q361 446 377 439.5Q393 433 407 433Q424 433 433 444.5Q442 456 447 479L543 470Q533 398 496.5 362Q460 326 409 326Q384 326 361 334.5Q338 343 318 352Q300 360 284.5 366Q269 372 255 372Q224 372 215 326ZM77 166Q87 239 124 274.5Q161 310 209 310Q234 310 257 302Q280 294 300 285Q319 277 335 270.5Q351 264 365 264Q382 264 391 275.5Q400 287 405 310L501 301Q491 229 454.5 193Q418 157 367 157Q342 157 319 165.5Q296 174 276 183Q258 191 242.5 197Q227 203 213 203Q182 203 173 157Z" glyph-name="approxequal.tablining" horiz-adv-x="580" /><glyph d="M200 -9Q165 -9 135 5.5Q105 20 82 46.5Q59 73 46 110.5Q33 148 33 195Q33 253 49.5 297.5Q66 342 93.5 372.5Q121 403 157.5 419Q194 435 235 435Q279 435 314.5 417.5Q350 400 372 358L381 426H513L460 124Q456 99 478 99H508L491 0H441Q405 0 383.5 4.5Q362 9 350 17Q338 25 333 35Q328 45 325 59L324 64Q299 27 272 9Q245 -9 200 -9ZM253 105Q295 105 321 137.5Q347 170 347 221Q347 266 326 293Q305 320 265 320Q221 320 196 287.5Q171 255 171 201Q171 156 192.5 130.5Q214 105 253 105ZM312 474Q285 474 262.5 483.5Q240 493 223 509.5Q206 526 196.5 547.5Q187 569 187 593Q187 617 196.5 639Q206 661 223 677Q240 693 262.5 702.5Q285 712 312 712Q339 712 361.5 702.5Q384 693 401 677Q418 661 427.5 639Q437 617 437 593Q437 569 427.5 547.5Q418 526 401 509.5Q384 493 361.5 483.5Q339 474 312 474ZM312 547Q329 547 341.5 559Q354 571 354 593Q354 615 341.5 627Q329 639 312 639Q295 639 282.5 627Q270 615 270 593Q270 571 282.5 559Q295 547 312 547Z" glyph-name="aring" horiz-adv-x="532" unicode="&#229;" /><glyph d="M295 687H305L420 447H318L273 523L204 447H96Z" glyph-name="asciicircum" horiz-adv-x="430" unicode="^" /><glyph d="M28 216Q37 287 68.5 321.5Q100 356 142 356Q163 356 178 350Q193 344 205 336Q221 325 230.5 318Q240 311 250 311Q264 311 270.5 322Q277 333 281 356L368 347Q360 276 328 241.5Q296 207 254 207Q234 207 218.5 213Q203 219 191 227Q175 238 166 245Q157 252 146 252Q122 252 115 207Z" glyph-name="asciitilde" horiz-adv-x="369" unicode="~" /><glyph d="M232 472 142 400 96 503 210 523 101 565 167 657 241 568 221 680H338L296 566L384 642L430 537L315 517L425 475L359 384L287 470L307 358H190Z" glyph-name="asterisk" horiz-adv-x="414" unicode="*" /><glyph d="M448 -207Q351 -207 274.5 -177.5Q198 -148 144.5 -96Q91 -44 63 27.5Q35 99 35 182Q35 280 70 359Q105 438 164.5 493.5Q224 549 302 578.5Q380 608 467 608Q560 608 634 579.5Q708 551 759 501.5Q810 452 837 386Q864 320 864 246Q864 181 849 134Q834 87 807.5 56Q781 25 744 10.5Q707 -4 662 -4Q608 -4 575 20Q542 44 530 75Q510 32 477 11.5Q444 -9 406 -9Q369 -9 338 5Q307 19 284.5 44Q262 69 249.5 104Q237 139 237 181Q237 229 251.5 268Q266 307 290.5 334.5Q315 362 347 376.5Q379 391 414 391Q462 391 490.5 368Q519 345 533 313L542 381H668L629 162Q615 89 668 89Q684 89 699.5 97Q715 105 727 124Q739 143 746 173.5Q753 204 753 249Q753 312 731.5 360.5Q710 409 671.5 442Q633 475 580.5 492Q528 509 467 509Q399 509 342 485.5Q285 462 243 419Q201 376 177.5 315.5Q154 255 154 181Q154 117 173 64Q192 11 229.5 -27.5Q267 -66 322.5 -87Q378 -108 450 -108Q486 -108 526 -102Q566 -96 603 -84L638 -175Q596 -193 548.5 -200Q501 -207 448 -207ZM443 97Q474 97 494 125.5Q514 154 514 196Q514 231 495.5 257Q477 283 448 283Q414 283 393.5 257.5Q373 232 373 183Q373 141 392 119Q411 97 443 97Z" glyph-name="at" horiz-adv-x="896" unicode="@" /><glyph d="M462 -127Q365 -127 288.5 -97.5Q212 -68 158.5 -16Q105 36 77 107.5Q49 179 49 262Q49 360 84 439Q119 518 178.5 573.5Q238 629 316 658.5Q394 688 481 688Q574 688 648 659.5Q722 631 773 581.5Q824 532 851 466Q878 400 878 326Q878 261 863 214Q848 167 821.5 136Q795 105 758 90.5Q721 76 676 76Q622 76 589 100Q556 124 544 155Q524 112 491 91.5Q458 71 420 71Q383 71 352 85Q321 99 298.5 124Q276 149 263.5 184Q251 219 251 261Q251 309 265.5 348Q280 387 304.5 414.5Q329 442 361 456.5Q393 471 428 471Q476 471 504.5 448Q533 425 547 393L556 461H682L643 242Q629 169 682 169Q698 169 713.5 177Q729 185 741 204Q753 223 760 253.5Q767 284 767 329Q767 392 745.5 440.5Q724 489 685.5 522Q647 555 594.5 572Q542 589 481 589Q413 589 356 565.5Q299 542 257 499Q215 456 191.5 395.5Q168 335 168 261Q168 197 187 144Q206 91 243.5 52.5Q281 14 336.5 -7Q392 -28 464 -28Q500 -28 540 -22Q580 -16 617 -4L652 -95Q610 -113 562.5 -120Q515 -127 462 -127ZM457 177Q488 177 508 205.5Q528 234 528 276Q528 311 509.5 337Q491 363 462 363Q428 363 407.5 337.5Q387 312 387 263Q387 221 406 199Q425 177 457 177Z" glyph-name="at.up" horiz-adv-x="896" /><glyph d="M200 -9Q165 -9 135 5.5Q105 20 82 46.5Q59 73 46 110.5Q33 148 33 195Q33 253 49.5 297.5Q66 342 93.5 372.5Q121 403 157.5 419Q194 435 235 435Q279 435 314.5 417.5Q350 400 372 358L381 426H513L460 124Q456 99 478 99H508L491 0H441Q405 0 383.5 4.5Q362 9 350 17Q338 25 333 35Q328 45 325 59L324 64Q299 27 272 9Q245 -9 200 -9ZM253 105Q295 105 321 137.5Q347 170 347 221Q347 266 326 293Q305 320 265 320Q221 320 196 287.5Q171 255 171 201Q171 156 192.5 130.5Q214 105 253 105ZM144 516Q153 587 184.5 621.5Q216 656 258 656Q279 656 294 650Q309 644 321 636Q337 625 346.5 618Q356 611 366 611Q380 611 386.5 622Q393 633 397 656L484 647Q476 576 444 541.5Q412 507 370 507Q350 507 334.5 513Q319 519 307 527Q291 538 282 545Q273 552 262 552Q238 552 231 507Z" glyph-name="atilde" horiz-adv-x="532" unicode="&#227;" /><glyph d="M304 -9Q255 -9 218 12.5Q181 34 158 79L148 0H16L143 722H275L213 369Q235 398 264 416.5Q293 435 334 435Q370 435 401.5 420.5Q433 406 456 379.5Q479 353 492.5 315.5Q506 278 506 231Q506 175 489.5 131Q473 87 445 55.5Q417 24 380.5 7.5Q344 -9 304 -9ZM269 105Q315 105 341.5 137.5Q368 170 368 224Q368 269 345 294.5Q322 320 281 320Q236 320 209 287.5Q182 255 182 204Q182 159 204.5 132Q227 105 269 105Z" glyph-name="b" horiz-adv-x="536" unicode="b" /><glyph d="M98 722H222L351 -128H227Z" glyph-name="backslash" horiz-adv-x="396" unicode="\" /><glyph d="M163 722H290L140 -128H13Z" glyph-name="bar" horiz-adv-x="272" unicode="|" /><glyph d="M241 -128Q211 -128 183.5 -120Q156 -112 136.5 -93.5Q117 -75 107.5 -45.5Q98 -16 106 27L133 179Q139 215 130 227.5Q121 240 94 240H32L52 351H111Q126 351 136 353.5Q146 356 153.5 363.5Q161 371 166.5 385Q172 399 176 422L204 583Q211 622 225 649Q239 676 258.5 692Q278 708 302.5 715Q327 722 356 722H467L448 611H377Q357 611 348.5 602Q340 593 337 574L306 392Q301 363 291.5 344.5Q282 326 267.5 315Q253 304 235 299Q217 294 196 291Q237 285 257 258.5Q277 232 268 180L239 19Q236 2 240.5 -7.5Q245 -17 268 -17H337L317 -128H241Z" glyph-name="braceleft" horiz-adv-x="406" unicode="{" /><glyph d="M241 -128Q211 -128 183.5 -120Q156 -112 136.5 -93.5Q117 -75 107.5 -45.5Q98 -16 106 27L133 179Q139 215 130 227.5Q121 240 94 240H32L52 351H111Q126 351 136 353.5Q146 356 153.5 363.5Q161 371 166.5 385Q172 399 176 422L204 583Q211 622 225 649Q239 676 258.5 692Q278 708 302.5 715Q327 722 356 722H467L448 611H377Q357 611 348.5 602Q340 593 337 574L306 392Q301 363 291.5 344.5Q282 326 267.5 315Q253 304 235 299Q217 294 196 291Q237 285 257 258.5Q277 232 268 180L239 19Q236 2 240.5 -7.5Q245 -17 268 -17H337L317 -128H241Z" glyph-name="braceleft.os" horiz-adv-x="406" /><glyph d="M252 -62Q222 -62 194.5 -54Q167 -46 147.5 -27.5Q128 -9 118.5 20.5Q109 50 117 93L139 214Q145 250 136 262.5Q127 275 100 275H38L58 386H117Q132 386 142 388.5Q152 391 159.5 398.5Q167 406 172.5 420Q178 434 182 457L206 593Q213 632 227 659Q241 686 260.5 702Q280 718 304.5 725Q329 732 358 732H469L450 621H379Q359 621 350.5 612Q342 603 339 584L312 427Q307 398 297.5 379.5Q288 361 273.5 350Q259 339 241 334Q223 329 202 326Q243 320 262 294Q281 268 273 215L250 85Q247 68 251.5 58.5Q256 49 279 49H348L328 -62H252Z" glyph-name="braceleft.sc" horiz-adv-x="406" /><glyph d="M194 -62Q164 -62 136.5 -54Q109 -46 89.5 -27.5Q70 -9 60.5 20.5Q51 50 59 93L81 214Q87 250 80.5 262.5Q74 275 47 275H20L40 386H59Q74 386 84 388.5Q94 391 101.5 398.5Q109 406 114.5 420Q120 434 124 457L148 593Q155 632 169 659Q183 686 202.5 702Q222 718 246.5 725Q271 732 300 732H370L351 621H321Q301 621 292.5 612Q284 603 281 584L254 427Q249 398 239.5 379.5Q230 361 215 350Q200 339 182.5 334Q165 329 144 326Q185 320 204.5 294Q224 268 215 215L192 85Q189 68 193.5 58.5Q198 49 221 49H250L230 -62H194Z" glyph-name="braceleft.sctab" horiz-adv-x="300" /><glyph d="M183 -128Q153 -128 125.5 -120Q98 -112 78.5 -93.5Q59 -75 49.5 -45.5Q40 -16 48 27L75 179Q81 215 72 227.5Q63 240 36 240H14L34 351H53Q68 351 78 353.5Q88 356 95.5 363.5Q103 371 108.5 385Q114 399 118 422L146 583Q153 622 167 649Q181 676 200.5 692Q220 708 244.5 715Q269 722 298 722H369L350 611H319Q299 611 290.5 602Q282 593 279 574L248 392Q243 363 233.5 344.5Q224 326 209.5 315Q195 304 177 299Q159 294 138 291Q179 285 199 258.5Q219 232 210 180L181 19Q178 2 182.5 -7.5Q187 -17 210 -17H239L219 -128H183Z" glyph-name="braceleft.tab" horiz-adv-x="300" /><glyph d="M183 -128Q153 -128 125.5 -120Q98 -112 78.5 -93.5Q59 -75 49.5 -45.5Q40 -16 48 27L75 179Q81 215 72 227.5Q63 240 36 240H14L34 351H53Q68 351 78 353.5Q88 356 95.5 363.5Q103 371 108.5 385Q114 399 118 422L146 583Q153 622 167 649Q181 676 200.5 692Q220 708 244.5 715Q269 722 298 722H369L350 611H319Q299 611 290.5 602Q282 593 279 574L248 392Q243 363 233.5 344.5Q224 326 209.5 315Q195 304 177 299Q159 294 138 291Q179 285 199 258.5Q219 232 210 180L181 19Q178 2 182.5 -7.5Q187 -17 210 -17H239L219 -128H183Z" glyph-name="braceleft.tablining" horiz-adv-x="300" /><glyph d="M-14 -17H57Q77 -17 85.5 -8Q94 1 97 20L129 199Q134 228 143.5 246.5Q153 265 167.5 276Q182 287 200 292Q218 297 239 300Q198 306 178 332.5Q158 359 167 411L195 575Q198 592 193.5 601.5Q189 611 166 611H97L117 722H193Q223 722 250.5 714Q278 706 297.5 687.5Q317 669 326 639.5Q335 610 328 567L301 412Q294 376 304 363.5Q314 351 341 351H403L383 240H324Q309 240 298.5 237.5Q288 235 280.5 227.5Q273 220 267.5 206Q262 192 258 169L230 11Q216 -67 176 -97.5Q136 -128 78 -128H-33Z" glyph-name="braceright" horiz-adv-x="406" unicode="}" /><glyph d="M-14 -17H57Q77 -17 85.5 -8Q94 1 97 20L129 199Q134 228 143.5 246.5Q153 265 167.5 276Q182 287 200 292Q218 297 239 300Q198 306 178 332.5Q158 359 167 411L195 575Q198 592 193.5 601.5Q189 611 166 611H97L117 722H193Q223 722 250.5 714Q278 706 297.5 687.5Q317 669 326 639.5Q335 610 328 567L301 412Q294 376 304 363.5Q314 351 341 351H403L383 240H324Q309 240 298.5 237.5Q288 235 280.5 227.5Q273 220 267.5 206Q262 192 258 169L230 11Q216 -67 176 -97.5Q136 -128 78 -128H-33Z" glyph-name="braceright.os" horiz-adv-x="406" /><glyph d="M2 49H73Q93 49 101.5 58Q110 67 113 86L140 234Q145 263 154.5 281.5Q164 300 178.5 311Q193 322 210.5 327Q228 332 249 335Q208 341 188 367.5Q168 394 177 446L201 585Q204 602 199.5 611.5Q195 621 172 621H104L123 732H199Q229 732 256.5 724Q284 716 303.5 697.5Q323 679 332 649.5Q341 620 334 577L311 447Q304 411 314 398.5Q324 386 351 386H413L393 275H334Q319 275 308.5 272.5Q298 270 290.5 262.5Q283 255 277.5 241Q272 227 268 204L246 77Q232 -1 192 -31.5Q152 -62 94 -62H-18Z" glyph-name="braceright.sc" horiz-adv-x="406" /><glyph d="M-5 49H26Q46 49 54.5 58Q63 67 66 86L93 234Q98 263 107.5 281.5Q117 300 131 311Q145 322 163 327Q181 332 202 335Q161 341 141 367.5Q121 394 130 446L154 585Q157 602 149.5 611.5Q142 621 119 621H96L115 732H152Q182 732 209.5 724Q237 716 256.5 697.5Q276 679 285 649.5Q294 620 287 577L264 447Q257 411 267 398.5Q277 386 304 386H326L306 275H287Q272 275 261.5 272.5Q251 270 243.5 262.5Q236 255 230.5 241Q225 227 221 204L199 77Q185 -1 145 -31.5Q105 -62 47 -62H-25Z" glyph-name="braceright.sctab" horiz-adv-x="300" /><glyph d="M-17 -17H14Q34 -17 42.5 -8Q51 1 54 20L86 199Q91 228 100.5 246.5Q110 265 124.5 276Q139 287 157 292Q175 297 196 300Q155 306 135 332.5Q115 359 124 411L152 575Q155 592 150.5 601.5Q146 611 123 611H94L114 722H150Q180 722 207.5 714Q235 706 254.5 687.5Q274 669 283 639.5Q292 610 285 567L258 412Q251 376 261 363.5Q271 351 298 351H320L300 240H281Q266 240 255.5 237.5Q245 235 237.5 227.5Q230 220 224.5 206Q219 192 215 169L187 11Q173 -67 133 -97.5Q93 -128 35 -128H-36Z" glyph-name="braceright.tab" horiz-adv-x="300" /><glyph d="M-17 -17H14Q34 -17 42.5 -8Q51 1 54 20L86 199Q91 228 100.5 246.5Q110 265 124.5 276Q139 287 157 292Q175 297 196 300Q155 306 135 332.5Q115 359 124 411L152 575Q155 592 150.5 601.5Q146 611 123 611H94L114 722H150Q180 722 207.5 714Q235 706 254.5 687.5Q274 669 283 639.5Q292 610 285 567L258 412Q251 376 261 363.5Q271 351 298 351H320L300 240H281Q266 240 255.5 237.5Q245 235 237.5 227.5Q230 220 224.5 206Q219 192 215 169L187 11Q173 -67 133 -97.5Q93 -128 35 -128H-36Z" glyph-name="braceright.tablining" horiz-adv-x="300" /><glyph d="M150 722H392L373 611H263L152 -17H262L242 -128H0Z" glyph-name="bracketleft" horiz-adv-x="330" unicode="[" /><glyph d="M150 722H392L373 611H263L152 -17H262L242 -128H0Z" glyph-name="bracketleft.os" horiz-adv-x="330" /><glyph d="M152 732H394L375 621H265L164 49H274L254 -62H12Z" glyph-name="bracketleft.sc" horiz-adv-x="331" /><glyph d="M139 732H370L351 621H252L151 49H250L230 -62H-1Z" glyph-name="bracketleft.sctab" horiz-adv-x="300" /><glyph d="M137 722H369L350 611H250L139 -17H239L219 -128H-13Z" glyph-name="bracketleft.tab" horiz-adv-x="300" /><glyph d="M137 722H369L350 611H250L139 -17H239L219 -128H-13Z" glyph-name="bracketleft.tablining" horiz-adv-x="300" /><glyph d="M-10 -17H100L211 611H101L120 722H362L212 -128H-30Z" glyph-name="bracketright" horiz-adv-x="330" unicode="]" /><glyph d="M-10 -17H100L211 611H101L120 722H362L212 -128H-30Z" glyph-name="bracketright.os" horiz-adv-x="330" /><glyph d="M2 49H112L213 621H103L122 732H364L224 -62H-18Z" glyph-name="bracketright.sc" horiz-adv-x="330" /><glyph d="M-5 49H95L196 621H96L115 732H347L207 -62H-25Z" glyph-name="bracketright.sctab" horiz-adv-x="300" /><glyph d="M-17 -17H83L194 611H94L113 722H345L195 -128H-37Z" glyph-name="bracketright.tab" horiz-adv-x="300" /><glyph d="M-17 -17H83L194 611H94L113 722H345L195 -128H-37Z" glyph-name="bracketright.tablining" horiz-adv-x="300" /><glyph d="M287 500Q216 500 176 540Q136 580 133 640L234 655Q236 629 248.5 613.5Q261 598 288 598Q315 598 329 613.5Q343 629 348 655L447 640Q438 580 397 540Q356 500 287 500Z" glyph-name="breve" horiz-adv-x="490" unicode="&#728;" /><glyph d="M100 365 163 722H290L227 365ZM204 237 140 -128H13L77 237Z" glyph-name="brokenbar" horiz-adv-x="272" unicode="&#166;" /><glyph d="M142 145Q121 145 102.5 153.5Q84 162 69.5 176.5Q55 191 46.5 210.5Q38 230 38 253Q38 276 46.5 296Q55 316 69.5 330.5Q84 345 102.5 353Q121 361 142 361Q163 361 182 353Q201 345 216 330.5Q231 316 239.5 296Q248 276 248 253Q248 230 239.5 210.5Q231 191 216 176.5Q201 162 182 153.5Q163 145 142 145Z" glyph-name="bullet" horiz-adv-x="268" unicode="&#8226;" /><glyph d="M259 -9Q210 -9 169 6.5Q128 22 98 50.5Q68 79 51.5 119Q35 159 35 209Q35 259 53 300.5Q71 342 102.5 372Q134 402 177 418.5Q220 435 270 435Q335 435 379 411Q423 387 449 350L352 274Q338 296 317 308Q296 320 269 320Q224 320 198 288.5Q172 257 172 209Q172 161 193.5 133Q215 105 259 105Q289 105 307.5 115.5Q326 126 340 137L416 50Q390 24 351.5 7.5Q313 -9 259 -9Z" glyph-name="c" horiz-adv-x="455" unicode="c" /><glyph d="M259 -9Q210 -9 169 6.5Q128 22 98 50.5Q68 79 51.5 119Q35 159 35 209Q35 259 53 300.5Q71 342 102.5 372Q134 402 177 418.5Q220 435 270 435Q335 435 379 411Q423 387 449 350L352 274Q338 296 317 308Q296 320 269 320Q224 320 198 288.5Q172 257 172 209Q172 161 193.5 133Q215 105 259 105Q289 105 307.5 115.5Q326 126 340 137L416 50Q390 24 351.5 7.5Q313 -9 259 -9ZM305 688H463L327 500H225Z" glyph-name="cacute" horiz-adv-x="455" unicode="&#263;" /><glyph d="M171 697H273L316 624L383 697H492L299 480H288Z" glyph-name="caron" horiz-adv-x="490" unicode="&#711;" /><glyph d="M259 -9Q210 -9 169 6.5Q128 22 98 50.5Q68 79 51.5 119Q35 159 35 209Q35 259 53 300.5Q71 342 102.5 372Q134 402 177 418.5Q220 435 270 435Q335 435 379 411Q423 387 449 350L352 274Q338 296 317 308Q296 320 269 320Q224 320 198 288.5Q172 257 172 209Q172 161 193.5 133Q215 105 259 105Q289 105 307.5 115.5Q326 126 340 137L416 50Q390 24 351.5 7.5Q313 -9 259 -9ZM155 697H257L300 624L367 697H476L283 480H272Z" glyph-name="ccaron" horiz-adv-x="455" unicode="&#269;" /><glyph d="M187 -240Q139 -240 111.5 -222.5Q84 -205 70 -178L135 -142Q141 -153 150.5 -161.5Q160 -170 179 -170Q196 -170 206.5 -161Q217 -152 217 -134Q217 -117 207 -107Q197 -97 175 -97H140L158 10Q101 35 68 86Q35 137 35 209Q35 259 53 300.5Q71 342 102.5 372Q134 402 177 418.5Q220 435 270 435Q335 435 379 411Q423 387 449 350L352 274Q338 296 317 308Q296 320 269 320Q224 320 198 288.5Q172 257 172 209Q172 161 193 133Q214 105 259 105Q289 105 307.5 115.5Q326 126 340 137L416 50Q390 24 351.5 7.5Q313 -9 259 -9Q251 -9 243 -8.5Q235 -8 227 -7L221 -41Q249 -46 272.5 -69.5Q296 -93 296 -135Q296 -161 287 -180.5Q278 -200 263 -213Q248 -226 228 -233Q208 -240 187 -240Z" glyph-name="ccedilla" horiz-adv-x="455" unicode="&#231;" /><glyph d="M259 -9Q210 -9 169 6.5Q128 22 98 50.5Q68 79 51.5 119Q35 159 35 209Q35 259 53 300.5Q71 342 102.5 372Q134 402 177 418.5Q220 435 270 435Q335 435 379 411Q423 387 449 350L352 274Q338 296 317 308Q296 320 269 320Q224 320 198 288.5Q172 257 172 209Q172 161 193.5 133Q215 105 259 105Q289 105 307.5 115.5Q326 126 340 137L416 50Q390 24 351.5 7.5Q313 -9 259 -9ZM316 716H327L444 500H342L299 572L232 500H123Z" glyph-name="ccircumflex" horiz-adv-x="455" unicode="&#265;" /><glyph d="M259 -9Q210 -9 169 6.5Q128 22 98 50.5Q68 79 51.5 119Q35 159 35 209Q35 259 53 300.5Q71 342 102.5 372Q134 402 177 418.5Q220 435 270 435Q335 435 379 411Q423 387 449 350L352 274Q338 296 317 308Q296 320 269 320Q224 320 198 288.5Q172 257 172 209Q172 161 193.5 133Q215 105 259 105Q289 105 307.5 115.5Q326 126 340 137L416 50Q390 24 351.5 7.5Q313 -9 259 -9ZM297 500Q264 500 239.5 522.5Q215 545 215 582Q215 618 239 640.5Q263 663 296 663Q330 663 354.5 640.5Q379 618 379 582Q379 545 355 522.5Q331 500 297 500Z" glyph-name="cdotaccent" horiz-adv-x="455" unicode="&#267;" /><glyph d="M200 -240Q152 -240 124.5 -222.5Q97 -205 83 -178L148 -142Q154 -153 163.5 -161.5Q173 -170 192 -170Q209 -170 219.5 -161Q230 -152 230 -134Q230 -117 220 -107Q210 -97 188 -97H153L170 0H241L234 -41Q262 -46 285.5 -69.5Q309 -93 309 -135Q309 -161 300 -180.5Q291 -200 276 -213Q261 -226 241 -233Q221 -240 200 -240Z" glyph-name="cedilla" horiz-adv-x="490" unicode="&#184;" /><glyph d="M189 0Q119 20 77 74.5Q35 129 35 209Q35 259 52.5 300Q70 341 101 371Q132 401 174 417.5Q216 434 266 435L285 541H350L330 429Q371 421 400 400.5Q429 380 450 350L352 276Q344 289 333.5 298.5Q323 308 310 315L272 102Q297 104 312.5 114.5Q328 125 340 135L416 50Q387 21 350 6Q313 -9 259 -9H253L234 -116H169ZM246 322Q211 315 190 286Q169 257 169 209Q169 177 179 152.5Q189 128 209 114Z" glyph-name="cent" horiz-adv-x="455" unicode="&#162;" /><glyph d="M189 0Q119 20 77 74.5Q35 129 35 209Q35 259 52.5 300Q70 341 101 371Q132 401 174 417.5Q216 434 266 435L285 541H350L330 429Q371 421 400 400.5Q429 380 450 350L352 276Q344 289 333.5 298.5Q323 308 310 315L272 102Q297 105 313.5 115Q330 125 340 135L416 50Q387 21 350 6Q313 -9 259 -9H253L234 -116H169ZM246 322Q211 315 190 286Q169 257 169 209Q169 177 179 152.5Q189 128 209 114Z" glyph-name="cent.os" horiz-adv-x="455" /><glyph d="M179 0Q116 18 76 67Q36 116 36 189Q36 234 52 271.5Q68 309 96.5 335.5Q125 362 164 376.5Q203 391 248 392L265 490H327L309 386Q347 378 373.5 359Q400 340 419 314L321 242Q316 252 307.5 260Q299 268 289 274L259 100Q277 102 289.5 110Q302 118 313 128L388 45Q362 21 327 6.5Q292 -8 244 -8H240L221 -116H159ZM229 281Q202 275 185 251Q168 227 168 189Q168 164 175.5 144Q183 124 199 112Z" glyph-name="cent.sc" horiz-adv-x="421" /><glyph d="M218 0Q155 18 115 67Q75 116 75 189Q75 234 91 271.5Q107 309 135.5 335.5Q164 362 203 376.5Q242 391 287 392L304 490H366L348 386Q386 378 412.5 359Q439 340 458 314L360 242Q355 252 346.5 260Q338 268 328 274L298 100Q316 102 328.5 110Q341 118 352 128L427 45Q401 21 366 6.5Q331 -8 283 -8H279L260 -116H198ZM268 281Q241 275 224 251Q207 227 207 189Q207 164 214.5 144Q222 124 238 112Z" glyph-name="cent.sctab" horiz-adv-x="500" /><glyph d="M221 0Q151 20 109 74.5Q67 129 67 209Q67 259 84.5 300Q102 341 133 371Q164 401 206 417.5Q248 434 298 435L317 541H382L362 429Q403 421 432 400.5Q461 380 482 350L384 276Q376 289 365.5 298.5Q355 308 342 315L304 102Q329 105 345.5 115Q362 125 372 135L448 50Q419 21 382 6Q345 -9 291 -9H285L266 -116H201ZM278 322Q243 315 222 286Q201 257 201 209Q201 177 211 152.5Q221 128 241 114Z" glyph-name="cent.tab" horiz-adv-x="520" /><glyph d="M251 0Q181 20 139 74.5Q97 129 97 209Q97 259 114.5 300Q132 341 163 371Q194 401 236 417.5Q278 434 328 435L347 541H412L392 429Q433 421 462 400.5Q491 380 512 350L414 276Q406 289 395.5 298.5Q385 308 372 315L334 102Q359 104 374.5 114.5Q390 125 402 135L478 50Q449 21 412 6Q375 -9 321 -9H315L296 -116H231ZM308 322Q273 315 252 286Q231 257 231 209Q231 177 241 152.5Q251 128 271 114Z" glyph-name="cent.tablining" horiz-adv-x="580" /><glyph d="M329 716H340L457 500H355L312 572L245 500H136Z" glyph-name="circumflex" horiz-adv-x="490" unicode="&#710;" /><glyph d="M141 226Q108 226 84 249Q60 272 60 309Q60 345 84 368.5Q108 392 141 392Q174 392 198 368.5Q222 345 222 309Q222 272 198 249Q174 226 141 226ZM101 -6Q68 -6 44 17Q20 40 20 77Q20 113 44 136.5Q68 160 101 160Q134 160 158 136.5Q182 113 182 77Q182 40 158 17Q134 -6 101 -6Z" glyph-name="colon" horiz-adv-x="246" unicode=":" /><glyph d="M141 226Q108 226 84 249Q60 272 60 309Q60 345 84 368.5Q108 392 141 392Q174 392 198 368.5Q222 345 222 309Q222 272 198 249Q174 226 141 226ZM101 -6Q68 -6 44 17Q20 40 20 77Q20 113 44 136.5Q68 160 101 160Q134 160 158 136.5Q182 113 182 77Q182 40 158 17Q134 -6 101 -6Z" glyph-name="colon.os" horiz-adv-x="246" /><glyph d="M141 226Q108 226 84 249Q60 272 60 309Q60 345 84 368.5Q108 392 141 392Q174 392 198 368.5Q222 345 222 309Q222 272 198 249Q174 226 141 226ZM101 -6Q68 -6 44 17Q20 40 20 77Q20 113 44 136.5Q68 160 101 160Q134 160 158 136.5Q182 113 182 77Q182 40 158 17Q134 -6 101 -6Z" glyph-name="colon.sc" horiz-adv-x="246" /><glyph d="M120 226Q87 226 63 249Q39 272 39 309Q39 345 63 368.5Q87 392 120 392Q153 392 177 368.5Q201 345 201 309Q201 272 177 249Q153 226 120 226ZM80 -6Q47 -6 23 17Q-1 40 -1 77Q-1 113 23 136.5Q47 160 80 160Q113 160 137 136.5Q161 113 161 77Q161 40 137 17Q113 -6 80 -6Z" glyph-name="colon.sctab" horiz-adv-x="200" /><glyph d="M118 226Q85 226 61 249Q37 272 37 309Q37 345 61 368.5Q85 392 118 392Q151 392 175 368.5Q199 345 199 309Q199 272 175 249Q151 226 118 226ZM78 -6Q45 -6 21 17Q-3 40 -3 77Q-3 113 21 136.5Q45 160 78 160Q111 160 135 136.5Q159 113 159 77Q159 40 135 17Q111 -6 78 -6Z" glyph-name="colon.tab" horiz-adv-x="200" /><glyph d="M121 226Q88 226 64 249Q40 272 40 309Q40 345 64 368.5Q88 392 121 392Q154 392 178 368.5Q202 345 202 309Q202 272 178 249Q154 226 121 226ZM81 -6Q48 -6 24 17Q0 40 0 77Q0 113 24 136.5Q48 160 81 160Q114 160 138 136.5Q162 113 162 77Q162 40 138 17Q114 -6 81 -6Z" glyph-name="colon.tablining" horiz-adv-x="200" /><glyph d="M61 5Q41 16 29 34.5Q17 53 17 79Q17 114 40.5 137Q64 160 98 160Q131 160 155 136.5Q179 113 179 77Q179 53 169 33.5Q159 14 144 -6L65 -114H-1Z" glyph-name="comma" horiz-adv-x="240" unicode="," /><glyph d="M61 5Q41 16 29 34.5Q17 53 17 79Q17 114 40.5 137Q64 160 98 160Q131 160 155 136.5Q179 113 179 77Q179 53 169 33.5Q159 14 144 -6L65 -114H-1Z" glyph-name="comma.os" horiz-adv-x="240" /><glyph d="M61 5Q41 16 29 34.5Q17 53 17 79Q17 114 40.5 137Q64 160 98 160Q131 160 155 136.5Q179 113 179 77Q179 53 169 33.5Q159 14 144 -6L65 -114H-1Z" glyph-name="comma.sc" horiz-adv-x="240" /><glyph d="M43 5Q23 16 11 34.5Q-1 53 -1 79Q-1 114 22.5 137Q46 160 80 160Q113 160 137 136.5Q161 113 161 77Q161 53 151 33.5Q141 14 126 -6L47 -114H-19Z" glyph-name="comma.sctab" horiz-adv-x="200" /><glyph d="M41 5Q21 16 9 34.5Q-3 53 -3 79Q-3 114 20.5 137Q44 160 78 160Q111 160 135 136.5Q159 113 159 77Q159 53 149 33.5Q139 14 124 -6L45 -114H-21Z" glyph-name="comma.tab" horiz-adv-x="200" /><glyph d="M42 5Q22 16 10 34.5Q-2 53 -2 79Q-2 114 21.5 137Q45 160 79 160Q112 160 136 136.5Q160 113 160 77Q160 53 150 33.5Q140 14 125 -6L46 -114H-20Z" glyph-name="comma.tablining" horiz-adv-x="200" /><glyph d="M309 -5Q255 -5 206 15Q157 35 120 71Q83 107 61 156Q39 205 39 263Q39 321 61 370Q83 419 120 455Q157 491 206 511Q255 531 309 531Q362 531 410.5 511Q459 491 495.5 455Q532 419 553.5 370Q575 321 575 263Q575 205 553.5 156Q532 107 495.5 71Q459 35 410.5 15Q362 -5 309 -5ZM309 54Q351 54 388 69Q425 84 452.5 111Q480 138 496.5 176.5Q513 215 513 263Q513 311 496.5 349.5Q480 388 452.5 415Q425 442 388 457Q351 472 309 472Q266 472 228.5 457Q191 442 162.5 415Q134 388 117.5 349.5Q101 311 101 263Q101 215 117.5 176.5Q134 138 162.5 111Q191 84 228.5 69Q266 54 309 54ZM316 116Q246 116 203.5 156Q161 196 161 261Q161 295 172.5 323Q184 351 204.5 371Q225 391 253 401.5Q281 412 314 412Q360 412 390.5 395Q421 378 438 358L365 294Q348 316 320 316Q297 316 284.5 301Q272 286 272 261Q272 238 284 224Q296 210 318 210Q335 210 345 215.5Q355 221 361 228L429 167Q412 147 383 131.5Q354 116 316 116Z" glyph-name="copyright" horiz-adv-x="595" unicode="&#169;" /><glyph d="M294 44Q225 44 171 75L88 -8L8 72L91 155Q66 202 66 258Q66 313 91 360L8 444L88 524L170 441Q197 457 228 465.5Q259 474 294 474Q329 474 360 465.5Q391 457 417 441L500 524L580 444L496 360Q521 313 521 258Q521 201 496 156L580 72L500 -8L416 75Q362 44 294 44ZM294 151Q339 151 364.5 180.5Q390 210 390 258Q390 306 364.5 335.5Q339 365 294 365Q249 365 223 335.5Q197 306 197 258Q197 210 223 180.5Q249 151 294 151Z" glyph-name="currency" horiz-adv-x="588" unicode="&#164;" /><glyph d="M205 -9Q169 -9 138 5.5Q107 20 83.5 46.5Q60 73 46.5 110.5Q33 148 33 195Q33 253 49.5 297.5Q66 342 94.5 372.5Q123 403 160.5 419Q198 435 240 435Q286 435 321.5 418Q357 401 380 363L443 722H575L470 124Q466 99 488 99H518L501 0H451Q415 0 393 4.5Q371 9 359 17.5Q347 26 342 37Q337 48 335 61L334 68Q313 30 281.5 10.5Q250 -9 205 -9ZM258 105Q303 105 330 137.5Q357 170 357 221Q357 266 334.5 293Q312 320 270 320Q224 320 197.5 287.5Q171 255 171 201Q171 156 194 130.5Q217 105 258 105Z" glyph-name="d" horiz-adv-x="542" unicode="d" /><glyph d="M78 475 97 583H185L202 680H321L304 583H392L373 475H285L244 242H125L166 475Z" glyph-name="dagger" horiz-adv-x="355" unicode="&#8224;" /><glyph d="M80 486 97 583H185L203 680H322L305 583H392L375 486H287L278 435H366L349 338H261L244 241H125L142 338H54L71 435H159L168 486Z" glyph-name="daggerdbl" horiz-adv-x="355" unicode="&#8225;" /><glyph d="M649 540Q629 551 618 568Q607 585 607 611Q607 644 629.5 666Q652 688 684 688Q716 688 738.5 666Q761 644 761 609Q761 586 751.5 566Q742 546 728 526L654 420H590ZM205 -9Q169 -9 138 5.5Q107 20 83.5 46.5Q60 73 46.5 110.5Q33 148 33 195Q33 253 49.5 297.5Q66 342 94.5 372.5Q123 403 160.5 419Q198 435 240 435Q286 435 321.5 418Q357 401 380 363L443 722H575L470 124Q466 99 488 99H518L501 0H451Q415 0 393 4.5Q371 9 359 17.5Q347 26 342 37Q337 48 335 61L334 68Q313 30 281.5 10.5Q250 -9 205 -9ZM258 105Q303 105 330 137.5Q357 170 357 221Q357 266 334.5 293Q312 320 270 320Q224 320 197.5 287.5Q171 255 171 201Q171 156 194 130.5Q217 105 258 105Z" glyph-name="dcaron" horiz-adv-x="674" unicode="&#271;" /><glyph d="M279 490 299 599H421L443 722H575L553 599H618L598 490H534L470 124Q466 99 488 99H518L501 0H451Q415 0 393 4.5Q371 9 359 17.5Q347 26 342 37Q337 48 335 61L334 68Q313 30 281.5 10.5Q250 -9 205 -9Q169 -9 138 5.5Q107 20 83.5 46.5Q60 73 46.5 110.5Q33 148 33 195Q33 253 49.5 297.5Q66 342 94.5 372.5Q123 403 160.5 419Q198 435 240 435Q286 435 321.5 418Q357 401 380 363L402 490ZM258 105Q303 105 330 137.5Q357 170 357 221Q357 266 334.5 293Q312 320 270 320Q224 320 197.5 287.5Q171 255 171 201Q171 156 194 130.5Q217 105 258 105Z" glyph-name="dcroat" horiz-adv-x="542" unicode="&#273;" /><glyph d="M237 393Q206 393 179 404.5Q152 416 131.5 436Q111 456 99.5 482.5Q88 509 88 539Q88 571 100.5 598.5Q113 626 134.5 646Q156 666 184 677Q212 688 243 688Q274 688 301.5 677Q329 666 349 646.5Q369 627 381 601.5Q393 576 393 546Q393 513 380.5 485Q368 457 347 436.5Q326 416 297.5 404.5Q269 393 237 393ZM238 477Q264 477 281.5 495.5Q299 514 299 543Q299 570 283 587Q267 604 242 604Q216 604 199 585.5Q182 567 182 538Q182 512 197.5 494.5Q213 477 238 477Z" glyph-name="degree" horiz-adv-x="363" unicode="&#176;" /><glyph d="M196 268Q168 268 143.5 278Q119 288 100.5 305.5Q82 323 71 346.5Q60 370 60 398Q60 428 71 452.5Q82 477 101.5 494.5Q121 512 146 521.5Q171 531 200 531Q228 531 252.5 521.5Q277 512 295.5 495Q314 478 324.5 455Q335 432 335 404Q335 374 324 349Q313 324 294 306Q275 288 249.5 278Q224 268 196 268ZM197 346Q219 346 233.5 361.5Q248 377 248 403Q248 428 234 440.5Q220 453 199 453Q177 453 162.5 438Q148 423 148 397Q148 372 162 359Q176 346 197 346Z" glyph-name="degree.os" horiz-adv-x="325" /><glyph d="M196 268Q168 268 143.5 278Q119 288 100.5 305.5Q82 323 71 346.5Q60 370 60 398Q60 428 71 452.5Q82 477 101.5 494.5Q121 512 146 521.5Q171 531 200 531Q228 531 252.5 521.5Q277 512 295.5 495Q314 478 324.5 455Q335 432 335 404Q335 374 324 349Q313 324 294 306Q275 288 249.5 278Q224 268 196 268ZM197 346Q219 346 233.5 361.5Q248 377 248 403Q248 428 234 440.5Q220 453 199 453Q177 453 162.5 438Q148 423 148 397Q148 372 162 359Q176 346 197 346Z" glyph-name="degree.sc" horiz-adv-x="325" /><glyph d="M199 268Q171 268 146.5 278Q122 288 103.5 305.5Q85 323 74 346.5Q63 370 63 398Q63 428 74 452.5Q85 477 104.5 494.5Q124 512 149 521.5Q174 531 203 531Q231 531 255.5 521.5Q280 512 298.5 495Q317 478 327.5 455Q338 432 338 404Q338 374 327 349Q316 324 297 306Q278 288 252.5 278Q227 268 199 268ZM200 346Q222 346 236.5 361.5Q251 377 251 403Q251 428 237 440.5Q223 453 202 453Q180 453 165.5 438Q151 423 151 397Q151 372 165 359Q179 346 200 346Z" glyph-name="degree.sctab" horiz-adv-x="332" /><glyph d="M208 268Q180 268 155.5 278Q131 288 112.5 305.5Q94 323 83 346.5Q72 370 72 398Q72 428 83 452.5Q94 477 113.5 494.5Q133 512 158 521.5Q183 531 212 531Q240 531 264.5 521.5Q289 512 307.5 495Q326 478 336.5 455Q347 432 347 404Q347 374 336 349Q325 324 306 306Q287 288 261.5 278Q236 268 208 268ZM209 346Q231 346 245.5 361.5Q260 377 260 403Q260 428 246 440.5Q232 453 211 453Q189 453 174.5 438Q160 423 160 397Q160 372 174 359Q188 346 209 346Z" glyph-name="degree.tab" horiz-adv-x="350" /><glyph d="M257 393Q226 393 199 404.5Q172 416 151.5 436Q131 456 119.5 482.5Q108 509 108 539Q108 571 120.5 598.5Q133 626 154.5 646Q176 666 204 677Q232 688 263 688Q294 688 321.5 677Q349 666 369 646.5Q389 627 401 601.5Q413 576 413 546Q413 513 400.5 485Q388 457 367 436.5Q346 416 317.5 404.5Q289 393 257 393ZM258 477Q284 477 301.5 495.5Q319 514 319 543Q319 570 303 587Q287 604 262 604Q236 604 219 585.5Q202 567 202 538Q202 512 217.5 494.5Q233 477 258 477Z" glyph-name="degree.tablining" horiz-adv-x="400" /><glyph d="M412 508Q384 508 361.5 529.5Q339 551 339 582Q339 613 361.5 634.5Q384 656 412 656Q441 656 462.5 634.5Q484 613 484 582Q484 551 462.5 529.5Q441 508 412 508ZM212 508Q184 508 162 529.5Q140 551 140 582Q140 613 162 634.5Q184 656 212 656Q241 656 263 634.5Q285 613 285 582Q285 551 263 529.5Q241 508 212 508Z" glyph-name="dieresis" horiz-adv-x="490" unicode="&#168;" /><glyph d="M68 375H428L408 262H48ZM269 414Q237 414 214 436.5Q191 459 191 494Q191 529 214 551Q237 573 269 573Q301 573 324 551Q347 529 347 494Q347 459 324 436.5Q301 414 269 414ZM207 63Q175 63 152 85.5Q129 108 129 143Q129 178 152 200Q175 222 207 222Q239 222 262 200Q285 178 285 143Q285 108 262 85.5Q239 63 207 63Z" glyph-name="divide" horiz-adv-x="436" unicode="&#247;" /><glyph d="M233 347Q200 347 176 370Q152 393 152 430Q152 466 176 489.5Q200 513 233 513Q266 513 290 489.5Q314 466 314 430Q314 393 290 370Q266 347 233 347ZM188 21Q155 21 131 44Q107 67 107 104Q107 140 131 163.5Q155 187 188 187Q221 187 245 163.5Q269 140 269 104Q269 67 245 44Q221 21 188 21ZM40 213 60 323H386L366 213Z" glyph-name="divide.os" horiz-adv-x="403" /><glyph d="M224 347Q191 347 167 370Q143 393 143 430Q143 466 167 489.5Q191 513 224 513Q257 513 281 489.5Q305 466 305 430Q305 393 281 370Q257 347 224 347ZM179 21Q146 21 122 44Q98 67 98 104Q98 140 122 163.5Q146 187 179 187Q212 187 236 163.5Q260 140 260 104Q260 67 236 44Q212 21 179 21ZM31 213 51 323H377L357 213Z" glyph-name="divide.sc" horiz-adv-x="426" /><glyph d="M292 364Q260 364 237 386.5Q214 409 214 444Q214 479 237 501Q260 523 292 523Q324 523 347 501Q370 479 370 444Q370 409 347 386.5Q324 364 292 364ZM88 323H454L435 213H69ZM230 13Q198 13 175 35.5Q152 58 152 93Q152 128 175 150Q198 172 230 172Q262 172 285 150Q308 128 308 93Q308 58 285 35.5Q262 13 230 13Z" glyph-name="divide.sctab" horiz-adv-x="500" /><glyph d="M302 364Q270 364 247 386.5Q224 409 224 444Q224 479 247 501Q270 523 302 523Q334 523 357 501Q380 479 380 444Q380 409 357 386.5Q334 364 302 364ZM98 323H464L445 213H79ZM240 13Q208 13 185 35.5Q162 58 162 93Q162 128 185 150Q208 172 240 172Q272 172 295 150Q318 128 318 93Q318 58 295 35.5Q272 13 240 13Z" glyph-name="divide.tab" horiz-adv-x="520" /><glyph d="M344 426Q312 426 288 449Q264 472 264 508Q264 543 288 566Q312 589 344 589Q376 589 400 566Q424 543 424 508Q424 472 400 449Q376 426 344 426ZM116 375H524L504 262H96ZM277 48Q245 48 221 71Q197 94 197 130Q197 165 221 188Q245 211 277 211Q309 211 333 188Q357 165 357 130Q357 94 333 71Q309 48 277 48Z" glyph-name="divide.tablining" horiz-adv-x="580" /><glyph d="M190 -4Q154 2 124.5 15Q95 28 71 45.5Q47 63 28.5 83.5Q10 104 -3 124L107 202Q126 175 150 150.5Q174 126 211 116L242 291L236 294Q164 329 127.5 379Q91 429 93 497Q93 536 107 570.5Q121 605 148 631Q175 657 215.5 672.5Q256 688 309 688H313L328 773H393L377 681Q418 671 451.5 648.5Q485 626 511 588L404 514Q385 545 355 559L341 483Q338 469 336 455Q334 441 332 430Q330 417 328 406L334 403Q407 365 450.5 315.5Q494 266 494 194Q494 142 476.5 104.5Q459 67 427.5 42Q396 17 352 4.5Q308 -8 254 -9L235 -116H170ZM276 112Q356 120 356 184Q356 207 343.5 224.5Q331 242 302 260ZM291 569Q259 567 242.5 548Q226 529 226 505Q226 485 235.5 470Q245 455 268 439Z" glyph-name="dollar" horiz-adv-x="526" unicode="$" /><glyph d="M161 -3Q125 4 97 17.5Q69 31 48.5 48Q28 65 14.5 84.5Q1 104 -8 122L95 174Q106 152 125.5 131Q145 110 179 99L199 215Q115 243 83.5 284Q52 325 52 380Q52 416 66 444Q80 472 105 491.5Q130 511 165 521Q200 531 241 531H254L272 631H337L318 522Q363 511 393.5 488Q424 465 444 436L353 373Q345 388 332 400.5Q319 413 300 421L282 319Q360 293 401.5 253.5Q443 214 443 150Q443 108 426 77.5Q409 47 379.5 28Q350 9 310.5 0Q271 -9 225 -9L206 -116H141ZM242 92Q282 95 300 108.5Q318 122 318 141Q318 159 306.5 172Q295 185 261 196ZM237 433Q202 431 187.5 418.5Q173 406 173 388Q173 371 183.5 359.5Q194 348 221 338Z" glyph-name="dollar.os" horiz-adv-x="476" /><glyph d="M161 -3Q125 4 97 17.5Q69 31 48.5 48Q28 65 14.5 84.5Q1 104 -8 122L95 174Q106 152 125.5 131Q145 110 179 99L199 215Q115 243 83.5 284Q52 325 52 380Q52 416 66 444Q80 472 105 491.5Q130 511 165 521Q200 531 241 531H254L272 631H337L318 522Q363 511 393.5 488Q424 465 444 436L353 373Q345 388 332 400.5Q319 413 300 421L282 319Q360 293 401.5 253.5Q443 214 443 150Q443 108 426 77.5Q409 47 379.5 28Q350 9 310.5 0Q271 -9 225 -9L206 -116H141ZM242 92Q282 95 300 108.5Q318 122 318 141Q318 159 306.5 172Q295 185 261 196ZM237 433Q202 431 187.5 418.5Q173 406 173 388Q173 371 183.5 359.5Q194 348 221 338Z" glyph-name="dollar.sc" horiz-adv-x="476" /><glyph d="M173 -3Q137 4 109 17.5Q81 31 60.5 48Q40 65 26.5 84.5Q13 104 4 122L107 174Q118 152 137.5 131Q157 110 191 99L211 215Q127 243 95.5 284Q64 325 64 380Q64 416 78 444Q92 472 117 491.5Q142 511 177 521Q212 531 253 531H266L284 631H349L330 522Q375 511 405.5 488Q436 465 456 436L365 373Q357 388 344 400.5Q331 413 312 421L294 319Q372 293 413.5 253.5Q455 214 455 150Q455 108 438 77.5Q421 47 391.5 28Q362 9 322.5 0Q283 -9 237 -9L218 -116H153ZM254 92Q294 95 312 108.5Q330 122 330 141Q330 159 318.5 172Q307 185 273 196ZM249 433Q214 431 199.5 418.5Q185 406 185 388Q185 371 195.5 359.5Q206 348 233 338Z" glyph-name="dollar.sctab" horiz-adv-x="500" /><glyph d="M183 -3Q147 4 119 17.5Q91 31 70.5 48Q50 65 36.5 84.5Q23 104 14 122L117 174Q128 152 147.5 131Q167 110 201 99L221 215Q137 243 105.5 284Q74 325 74 380Q74 416 88 444Q102 472 127 491.5Q152 511 187 521Q222 531 263 531H276L294 631H359L340 522Q385 511 415.5 488Q446 465 466 436L375 373Q367 388 354 400.5Q341 413 322 421L304 319Q382 293 423.5 253.5Q465 214 465 150Q465 108 448 77.5Q431 47 401.5 28Q372 9 332.5 0Q293 -9 247 -9L228 -116H163ZM264 92Q304 95 322 108.5Q340 122 340 141Q340 159 328.5 172Q317 185 283 196ZM259 433Q224 431 209.5 418.5Q195 406 195 388Q195 371 205.5 359.5Q216 348 243 338Z" glyph-name="dollar.tab" horiz-adv-x="520" /><glyph d="M217 -4Q181 2 151.5 15Q122 28 98 45.5Q74 63 55.5 83.5Q37 104 24 124L134 202Q153 175 177 150.5Q201 126 238 116L269 291L263 294Q191 329 154.5 379Q118 429 120 497Q120 536 134 570.5Q148 605 175 631Q202 657 242.5 672.5Q283 688 336 688H340L355 773H420L404 681Q445 671 478.5 648.5Q512 626 538 588L431 514Q412 545 382 559L368 483Q365 469 363 455Q361 441 359 430Q357 417 355 406L361 403Q434 365 477.5 315.5Q521 266 521 194Q521 142 503.5 104.5Q486 67 454.5 42Q423 17 379 4.5Q335 -8 281 -9L262 -116H197ZM303 112Q383 120 383 184Q383 207 370.5 224.5Q358 242 329 260ZM318 569Q286 567 269.5 548Q253 529 253 505Q253 485 262.5 470Q272 455 295 439Z" glyph-name="dollar.tablining" horiz-adv-x="580" /><glyph d="M312 500Q279 500 254.5 522.5Q230 545 230 582Q230 618 254 640.5Q278 663 311 663Q345 663 369.5 640.5Q394 618 394 582Q394 545 370 522.5Q346 500 312 500Z" glyph-name="dotaccent" horiz-adv-x="490" unicode="&#729;" /><glyph d="M156 0Q120 0 95.5 5Q71 10 57 23.5Q43 37 39.5 61Q36 85 43 123L96 426H228L175 124Q171 99 193 99H223L206 0H156Z" glyph-name="dotlessi" horiz-adv-x="260" unicode="&#305;" /><glyph d="M117 522H252L160 0H25Z" glyph-name="dotlessi.sc" horiz-adv-x="257" /><glyph d="M171 174Q178 139 203.5 118.5Q229 98 276 98Q314 98 338.5 110Q363 122 380 135L457 49Q421 21 378.5 6Q336 -9 275 -9Q219 -9 175 7Q131 23 100.5 51.5Q70 80 53.5 119.5Q37 159 37 207Q37 259 56.5 301.5Q76 344 109 373.5Q142 403 185.5 419Q229 435 278 435Q335 435 377.5 415Q420 395 446.5 360Q473 325 483.5 277Q494 229 487 174ZM359 249Q360 286 337.5 308Q315 330 274 330Q234 330 208 310Q182 290 173 249Z" glyph-name="e" horiz-adv-x="527" unicode="e" /><glyph d="M173 162Q195 99 278 99Q314 99 338 110Q362 121 379 135L459 51Q424 22 381.5 6.5Q339 -9 277 -9Q219 -9 174 7.5Q129 24 98.5 53.5Q68 83 52 123Q36 163 36 210Q36 261 54 302.5Q72 344 102.5 373.5Q133 403 175 419Q217 435 265 435Q322 435 363 417.5Q404 400 431 368.5Q458 337 472 293Q486 249 489 196ZM345 255Q343 290 323 310Q303 330 266 330Q224 330 199 307Q174 284 168 236Z" glyph-name="e.alt" horiz-adv-x="515" /><glyph d="M171 174Q178 139 203.5 118.5Q229 98 276 98Q314 98 338.5 110Q363 122 380 135L457 49Q421 21 378.5 6Q336 -9 275 -9Q219 -9 175 7Q131 23 100.5 51.5Q70 80 53.5 119.5Q37 159 37 207Q37 259 56.5 301.5Q76 344 109 373.5Q142 403 185.5 419Q229 435 278 435Q335 435 377.5 415Q420 395 446.5 360Q473 325 483.5 277Q494 229 487 174ZM359 249Q360 286 337.5 308Q315 330 274 330Q234 330 208 310Q182 290 173 249ZM323 688H481L345 500H243Z" glyph-name="eacute" horiz-adv-x="515" unicode="&#233;" /><glyph d="M173 162Q195 99 278 99Q314 99 338 110Q362 121 379 135L459 51Q424 22 381.5 6.5Q339 -9 277 -9Q219 -9 174 7.5Q129 24 98.5 53.5Q68 83 52 123Q36 163 36 210Q36 261 54 302.5Q72 344 102.5 373.5Q133 403 175 419Q217 435 265 435Q322 435 363 417.5Q404 400 431 368.5Q458 337 472 293Q486 249 489 196ZM345 255Q343 290 323 310Q303 330 266 330Q224 330 199 307Q174 284 168 236ZM312 688H470L334 500H232Z" glyph-name="eacute.alt" horiz-adv-x="515" /><glyph d="M171 174Q178 139 203.5 118.5Q229 98 276 98Q314 98 338.5 110Q363 122 380 135L457 49Q421 21 378.5 6Q336 -9 275 -9Q219 -9 175 7Q131 23 100.5 51.5Q70 80 53.5 119.5Q37 159 37 207Q37 259 56.5 301.5Q76 344 109 373.5Q142 403 185.5 419Q229 435 278 435Q335 435 377.5 415Q420 395 446.5 360Q473 325 483.5 277Q494 229 487 174ZM359 249Q360 286 337.5 308Q315 330 274 330Q234 330 208 310Q182 290 173 249ZM307 500Q236 500 196 540Q156 580 153 640L254 655Q256 629 268.5 613.5Q281 598 308 598Q335 598 349 613.5Q363 629 368 655L467 640Q458 580 417 540Q376 500 307 500Z" glyph-name="ebreve" horiz-adv-x="527" unicode="&#277;" /><glyph d="M173 162Q195 99 278 99Q314 99 338 110Q362 121 379 135L459 51Q424 22 381.5 6.5Q339 -9 277 -9Q219 -9 174 7.5Q129 24 98.5 53.5Q68 83 52 123Q36 163 36 210Q36 261 54 302.5Q72 344 102.5 373.5Q133 403 175 419Q217 435 265 435Q322 435 363 417.5Q404 400 431 368.5Q458 337 472 293Q486 249 489 196ZM345 255Q343 290 323 310Q303 330 266 330Q224 330 199 307Q174 284 168 236ZM301 500Q230 500 190 540Q150 580 147 640L248 655Q250 629 262.5 613.5Q275 598 302 598Q329 598 343 613.5Q357 629 362 655L461 640Q452 580 411 540Q370 500 301 500Z" glyph-name="ebreve.alt" horiz-adv-x="515" /><glyph d="M171 174Q178 139 203.5 118.5Q229 98 276 98Q314 98 338.5 110Q363 122 380 135L457 49Q421 21 378.5 6Q336 -9 275 -9Q219 -9 175 7Q131 23 100.5 51.5Q70 80 53.5 119.5Q37 159 37 207Q37 259 56.5 301.5Q76 344 109 373.5Q142 403 185.5 419Q229 435 278 435Q335 435 377.5 415Q420 395 446.5 360Q473 325 483.5 277Q494 229 487 174ZM359 249Q360 286 337.5 308Q315 330 274 330Q234 330 208 310Q182 290 173 249ZM172 697H274L317 624L384 697H493L300 480H289Z" glyph-name="ecaron" horiz-adv-x="527" unicode="&#283;" /><glyph d="M173 162Q195 99 278 99Q314 99 338 110Q362 121 379 135L459 51Q424 22 381.5 6.5Q339 -9 277 -9Q219 -9 174 7.5Q129 24 98.5 53.5Q68 83 52 123Q36 163 36 210Q36 261 54 302.5Q72 344 102.5 373.5Q133 403 175 419Q217 435 265 435Q322 435 363 417.5Q404 400 431 368.5Q458 337 472 293Q486 249 489 196ZM345 255Q343 290 323 310Q303 330 266 330Q224 330 199 307Q174 284 168 236ZM169 697H271L314 624L381 697H490L297 480H286Z" glyph-name="ecaron.alt" horiz-adv-x="515" /><glyph d="M171 174Q178 139 203.5 118.5Q229 98 276 98Q314 98 338.5 110Q363 122 380 135L457 49Q421 21 378.5 6Q336 -9 275 -9Q219 -9 175 7Q131 23 100.5 51.5Q70 80 53.5 119.5Q37 159 37 207Q37 259 56.5 301.5Q76 344 109 373.5Q142 403 185.5 419Q229 435 278 435Q335 435 377.5 415Q420 395 446.5 360Q473 325 483.5 277Q494 229 487 174ZM359 249Q360 286 337.5 308Q315 330 274 330Q234 330 208 310Q182 290 173 249ZM324 716H335L452 500H350L307 572L240 500H131Z" glyph-name="ecircumflex" horiz-adv-x="515" unicode="&#234;" /><glyph d="M173 162Q195 99 278 99Q314 99 338 110Q362 121 379 135L459 51Q424 22 381.5 6.5Q339 -9 277 -9Q219 -9 174 7.5Q129 24 98.5 53.5Q68 83 52 123Q36 163 36 210Q36 261 54 302.5Q72 344 102.5 373.5Q133 403 175 419Q217 435 265 435Q322 435 363 417.5Q404 400 431 368.5Q458 337 472 293Q486 249 489 196ZM345 255Q343 290 323 310Q303 330 266 330Q224 330 199 307Q174 284 168 236ZM325 716H336L453 500H351L308 572L241 500H132Z" glyph-name="ecircumflex.alt" horiz-adv-x="515" /><glyph d="M171 174Q178 139 203.5 118.5Q229 98 276 98Q314 98 338.5 110Q363 122 380 135L457 49Q421 21 378.5 6Q336 -9 275 -9Q219 -9 175 7Q131 23 100.5 51.5Q70 80 53.5 119.5Q37 159 37 207Q37 259 56.5 301.5Q76 344 109 373.5Q142 403 185.5 419Q229 435 278 435Q335 435 377.5 415Q420 395 446.5 360Q473 325 483.5 277Q494 229 487 174ZM359 249Q360 286 337.5 308Q315 330 274 330Q234 330 208 310Q182 290 173 249ZM402 508Q374 508 351.5 529.5Q329 551 329 582Q329 613 351.5 634.5Q374 656 402 656Q431 656 452.5 634.5Q474 613 474 582Q474 551 452.5 529.5Q431 508 402 508ZM202 508Q174 508 152 529.5Q130 551 130 582Q130 613 152 634.5Q174 656 202 656Q231 656 253 634.5Q275 613 275 582Q275 551 253 529.5Q231 508 202 508Z" glyph-name="edieresis" horiz-adv-x="515" unicode="&#235;" /><glyph d="M173 162Q195 99 278 99Q314 99 338 110Q362 121 379 135L459 51Q424 22 381.5 6.5Q339 -9 277 -9Q219 -9 174 7.5Q129 24 98.5 53.5Q68 83 52 123Q36 163 36 210Q36 261 54 302.5Q72 344 102.5 373.5Q133 403 175 419Q217 435 265 435Q322 435 363 417.5Q404 400 431 368.5Q458 337 472 293Q486 249 489 196ZM345 255Q343 290 323 310Q303 330 266 330Q224 330 199 307Q174 284 168 236ZM408 508Q380 508 357.5 529.5Q335 551 335 582Q335 613 357.5 634.5Q380 656 408 656Q437 656 458.5 634.5Q480 613 480 582Q480 551 458.5 529.5Q437 508 408 508ZM208 508Q180 508 158 529.5Q136 551 136 582Q136 613 158 634.5Q180 656 208 656Q237 656 259 634.5Q281 613 281 582Q281 551 259 529.5Q237 508 208 508Z" glyph-name="edieresis.alt" horiz-adv-x="515" /><glyph d="M171 174Q178 139 203.5 118.5Q229 98 276 98Q314 98 338.5 110Q363 122 380 135L457 49Q421 21 378.5 6Q336 -9 275 -9Q219 -9 175 7Q131 23 100.5 51.5Q70 80 53.5 119.5Q37 159 37 207Q37 259 56.5 301.5Q76 344 109 373.5Q142 403 185.5 419Q229 435 278 435Q335 435 377.5 415Q420 395 446.5 360Q473 325 483.5 277Q494 229 487 174ZM359 249Q360 286 337.5 308Q315 330 274 330Q234 330 208 310Q182 290 173 249ZM292 500Q259 500 234.5 522.5Q210 545 210 582Q210 618 234 640.5Q258 663 291 663Q325 663 349.5 640.5Q374 618 374 582Q374 545 350 522.5Q326 500 292 500Z" glyph-name="edotaccent" horiz-adv-x="527" unicode="&#279;" /><glyph d="M173 162Q195 99 278 99Q314 99 338 110Q362 121 379 135L459 51Q424 22 381.5 6.5Q339 -9 277 -9Q219 -9 174 7.5Q129 24 98.5 53.5Q68 83 52 123Q36 163 36 210Q36 261 54 302.5Q72 344 102.5 373.5Q133 403 175 419Q217 435 265 435Q322 435 363 417.5Q404 400 431 368.5Q458 337 472 293Q486 249 489 196ZM345 255Q343 290 323 310Q303 330 266 330Q224 330 199 307Q174 284 168 236ZM305 500Q272 500 247.5 522.5Q223 545 223 582Q223 618 247 640.5Q271 663 304 663Q338 663 362.5 640.5Q387 618 387 582Q387 545 363 522.5Q339 500 305 500Z" glyph-name="edotaccent.alt" horiz-adv-x="515" /><glyph d="M171 174Q178 139 203.5 118.5Q229 98 276 98Q314 98 338.5 110Q363 122 380 135L457 49Q421 21 378.5 6Q336 -9 275 -9Q219 -9 175 7Q131 23 100.5 51.5Q70 80 53.5 119.5Q37 159 37 207Q37 259 56.5 301.5Q76 344 109 373.5Q142 403 185.5 419Q229 435 278 435Q335 435 377.5 415Q420 395 446.5 360Q473 325 483.5 277Q494 229 487 174ZM359 249Q360 286 337.5 308Q315 330 274 330Q234 330 208 310Q182 290 173 249ZM143 688H295L334 500H234Z" glyph-name="egrave" horiz-adv-x="515" unicode="&#232;" /><glyph d="M173 162Q195 99 278 99Q314 99 338 110Q362 121 379 135L459 51Q424 22 381.5 6.5Q339 -9 277 -9Q219 -9 174 7.5Q129 24 98.5 53.5Q68 83 52 123Q36 163 36 210Q36 261 54 302.5Q72 344 102.5 373.5Q133 403 175 419Q217 435 265 435Q322 435 363 417.5Q404 400 431 368.5Q458 337 472 293Q486 249 489 196ZM345 255Q343 290 323 310Q303 330 266 330Q224 330 199 307Q174 284 168 236ZM142 688H294L333 500H233Z" glyph-name="egrave.alt" horiz-adv-x="515" /><glyph d="M285 -9Q227 -9 182 6Q137 21 106 47.5Q75 74 59 110Q43 146 43 188Q43 258 82.5 307.5Q122 357 197 378Q163 399 147.5 430Q132 461 132 497Q132 538 149.5 573Q167 608 197 633.5Q227 659 266.5 673.5Q306 688 349 688Q392 688 428.5 675.5Q465 663 491 640.5Q517 618 532 587.5Q547 557 547 520Q547 501 541.5 479.5Q536 458 524 437.5Q512 417 492.5 398.5Q473 380 444 368Q473 356 492.5 338.5Q512 321 523.5 301.5Q535 282 540 260.5Q545 239 545 219Q545 171 526.5 129Q508 87 473.5 56.5Q439 26 391 8.5Q343 -9 285 -9ZM289 112Q341 112 373 144Q405 176 405 223Q405 267 377.5 292Q350 317 302 317Q248 317 216.5 287Q185 257 185 207Q185 165 213 138.5Q241 112 289 112ZM333 423Q367 423 389 446.5Q411 470 411 502Q411 531 392 550Q373 569 343 569Q311 569 288 548.5Q265 528 265 496Q265 466 283 444.5Q301 423 333 423Z" glyph-name="eight" horiz-adv-x="590" unicode="8" /><glyph d="M208 -8Q166 -8 131.5 2Q97 12 72 31Q47 50 33 76Q19 102 19 134Q19 182 49 215.5Q79 249 130 266Q80 296 80 351Q80 377 91.5 401Q103 425 125 444Q147 463 180 474Q213 485 255 485Q334 485 375.5 448.5Q417 412 417 359Q417 324 396 297.5Q375 271 336 257Q370 239 389 210.5Q408 182 408 149Q408 114 392 85Q376 56 348.5 35.5Q321 15 284.5 3.5Q248 -8 208 -8ZM213 93Q244 93 263.5 112Q283 131 283 160Q283 186 265 202.5Q247 219 218 219Q185 219 165.5 199.5Q146 180 146 150Q146 124 164 108.5Q182 93 213 93ZM246 301Q266 301 280.5 314Q295 327 295 347Q295 368 283 380Q271 392 250 392Q230 392 214 380.5Q198 369 198 347Q198 326 211 313.5Q224 301 246 301Z" glyph-name="eight.denominator" horiz-adv-x="443" /><glyph d="M242 195Q200 195 165.5 205Q131 215 106 234Q81 253 67 279Q53 305 53 337Q53 385 83 418.5Q113 452 164 469Q114 499 114 554Q114 580 125.5 604Q137 628 159 647Q181 666 214 677Q247 688 289 688Q368 688 409.5 651.5Q451 615 451 562Q451 527 430 500.5Q409 474 370 460Q404 442 423 413.5Q442 385 442 352Q442 317 426 288Q410 259 382.5 238.5Q355 218 318.5 206.5Q282 195 242 195ZM247 296Q278 296 297.5 315Q317 334 317 363Q317 389 299 405.5Q281 422 252 422Q219 422 199.5 402.5Q180 383 180 353Q180 327 198 311.5Q216 296 247 296ZM280 504Q300 504 314.5 517Q329 530 329 550Q329 571 317 583Q305 595 284 595Q264 595 248 583.5Q232 572 232 550Q232 529 245 516.5Q258 504 280 504Z" glyph-name="eight.numerator" horiz-adv-x="443" /><glyph d="M249 -9Q200 -9 160 5Q120 19 91.5 44Q63 69 47 102.5Q31 136 31 174Q31 223 63.5 269Q96 315 167 337Q139 357 126 384.5Q113 412 113 444Q113 481 127.5 513Q142 545 169 568Q196 591 234 604.5Q272 618 320 618Q369 618 405 605Q441 592 464.5 570Q488 548 499.5 519.5Q511 491 511 460Q511 415 483.5 380Q456 345 408 325Q434 312 450 295.5Q466 279 475 261Q484 243 487.5 224.5Q491 206 491 191Q491 143 471.5 105.5Q452 68 419 42.5Q386 17 342 4Q298 -9 249 -9ZM259 106Q301 106 328 130.5Q355 155 355 200Q355 235 332 258Q309 281 267 281Q225 281 197 256.5Q169 232 169 186Q169 153 193 129.5Q217 106 259 106ZM306 380Q334 380 354 399Q374 418 374 452Q374 478 358.5 494.5Q343 511 315 511Q287 511 266.5 492.5Q246 474 246 439Q246 414 262 397Q278 380 306 380Z" glyph-name="eight.os" horiz-adv-x="529" /><glyph d="M232 -9Q186 -9 148 2Q110 13 82.5 33.5Q55 54 40 83Q25 112 25 147Q25 199 58 236Q91 273 147 291Q119 308 105.5 331.5Q92 355 92 384Q92 412 104.5 439Q117 466 141.5 486Q166 506 201.5 518.5Q237 531 283 531Q327 531 360 520.5Q393 510 415.5 491.5Q438 473 449.5 447.5Q461 422 461 393Q461 354 438 325Q415 296 372 281Q410 261 430.5 230Q451 199 451 163Q451 124 433.5 92.5Q416 61 386 38.5Q356 16 316 3.5Q276 -9 232 -9ZM237 99Q272 99 294 120.5Q316 142 316 175Q316 204 295.5 222.5Q275 241 243 241Q206 241 184 219.5Q162 198 162 164Q162 136 182.5 117.5Q203 99 237 99ZM274 328Q296 328 313 342.5Q330 357 330 380Q330 404 316 417.5Q302 431 278 431Q255 431 237 418Q219 405 219 380Q219 357 234 342.5Q249 328 274 328Z" glyph-name="eight.sc" horiz-adv-x="493" /><glyph d="M238 -9Q194 -9 157 2Q120 13 93.5 33.5Q67 54 52.5 83Q38 112 38 147Q38 199 70 236Q102 273 156 291Q129 308 116 331.5Q103 355 103 384Q103 412 115 439Q127 466 150.5 486Q174 506 208.5 518.5Q243 531 288 531Q330 531 362.5 520.5Q395 510 416.5 491.5Q438 473 449 447.5Q460 422 460 393Q460 354 438 325Q416 296 374 281Q411 261 431 230Q451 199 451 163Q451 124 434 92.5Q417 61 387.5 38.5Q358 16 319.5 3.5Q281 -9 238 -9ZM243 99Q278 99 298.5 120.5Q319 142 319 175Q319 204 300 222.5Q281 241 249 241Q213 241 192 219.5Q171 198 171 164Q171 136 191 117.5Q211 99 243 99ZM279 328Q300 328 316 342.5Q332 357 332 380Q332 404 319 417.5Q306 431 283 431Q261 431 244 418Q227 405 227 380Q227 357 241 342.5Q255 328 279 328Z" glyph-name="eight.sctab" horiz-adv-x="500" /><glyph d="M128 -257Q92 -257 62.5 -248.5Q33 -240 12 -224Q-9 -208 -21 -186Q-33 -164 -33 -137Q-33 -96 -7.5 -67Q18 -38 61 -24Q19 1 19 48Q19 70 28.5 90.5Q38 111 57 127Q76 143 103.5 152.5Q131 162 167 162Q235 162 270 131Q305 100 305 55Q305 25 287 2Q269 -21 236 -32Q265 -47 281 -71Q297 -95 297 -124Q297 -154 283.5 -178.5Q270 -203 246.5 -220.5Q223 -238 192.5 -247.5Q162 -257 128 -257ZM132 -171Q158 -171 174.5 -155.5Q191 -140 191 -114Q191 -92 176 -78Q161 -64 136 -64Q108 -64 91.5 -80.5Q75 -97 75 -123Q75 -145 90.5 -158Q106 -171 132 -171ZM160 5Q177 5 189 16Q201 27 201 44Q201 62 191 72.5Q181 83 163 83Q146 83 132.5 73Q119 63 119 44Q119 27 130 16Q141 5 160 5Z" glyph-name="eight.subscript" horiz-adv-x="376" /><glyph d="M218 268Q182 268 152.5 276.5Q123 285 102 301Q81 317 69 339Q57 361 57 388Q57 429 82.5 458Q108 487 151 501Q109 526 109 573Q109 595 118.5 615.5Q128 636 147 652Q166 668 193.5 677.5Q221 687 257 687Q325 687 360 656Q395 625 395 580Q395 550 377 527Q359 504 326 493Q355 478 371 454Q387 430 387 401Q387 371 373.5 346.5Q360 322 336.5 304.5Q313 287 282.5 277.5Q252 268 218 268ZM222 354Q248 354 264.5 369.5Q281 385 281 411Q281 433 266 447Q251 461 226 461Q198 461 181.5 444.5Q165 428 165 402Q165 380 180.5 367Q196 354 222 354ZM250 530Q267 530 279 541Q291 552 291 569Q291 587 281 597.5Q271 608 253 608Q236 608 222.5 598Q209 588 209 569Q209 552 220 541Q231 530 250 530Z" glyph-name="eight.superscript" horiz-adv-x="376" /><glyph d="M249 -9Q203 -9 164.5 5Q126 19 97.5 44Q69 69 53 102.5Q37 136 37 174Q37 223 68.5 269Q100 315 169 337Q141 357 127 384.5Q113 412 113 444Q113 481 127.5 513Q142 545 169 568Q196 591 234 604.5Q272 618 320 618Q369 618 405 605Q441 592 464.5 570Q488 548 499.5 519.5Q511 491 511 460Q511 415 482.5 380Q454 345 406 325Q431 312 446.5 295.5Q462 279 470.5 261Q479 243 482 224.5Q485 206 485 191Q485 143 465.5 105.5Q446 68 413.5 42.5Q381 17 338 4Q295 -9 249 -9ZM259 106Q297 106 323 130.5Q349 155 349 200Q349 235 327 258Q305 281 267 281Q227 281 201 256.5Q175 232 175 186Q175 153 198 129.5Q221 106 259 106ZM306 380Q334 380 354 399Q374 418 374 452Q374 478 358.5 494.5Q343 511 315 511Q287 511 266.5 492.5Q246 474 246 439Q246 414 262 397Q278 380 306 380Z" glyph-name="eight.tab" horiz-adv-x="520" /><glyph d="M283 -9Q225 -9 180 6Q135 21 104 47.5Q73 74 57 110Q41 146 41 188Q41 258 80.5 307.5Q120 357 195 378Q161 399 145.5 430Q130 461 130 497Q130 538 147.5 573Q165 608 195 633.5Q225 659 264.5 673.5Q304 688 347 688Q390 688 426.5 675.5Q463 663 489 640.5Q515 618 530 587.5Q545 557 545 520Q545 501 539.5 479.5Q534 458 522 437.5Q510 417 490.5 398.5Q471 380 442 368Q471 356 490.5 338.5Q510 321 521.5 301.5Q533 282 538 260.5Q543 239 543 219Q543 171 524.5 129Q506 87 471.5 56.5Q437 26 389 8.5Q341 -9 283 -9ZM287 112Q339 112 371 144Q403 176 403 223Q403 267 375.5 292Q348 317 300 317Q246 317 214.5 287Q183 257 183 207Q183 165 211 138.5Q239 112 287 112ZM331 423Q365 423 387 446.5Q409 470 409 502Q409 531 390 550Q371 569 341 569Q309 569 286 548.5Q263 528 263 496Q263 466 281 444.5Q299 423 331 423Z" glyph-name="eight.tablining" horiz-adv-x="580" /><glyph d="M98 -6Q65 -6 41 17Q17 40 17 77Q17 113 41 136.5Q65 160 98 160Q131 160 155 136.5Q179 113 179 77Q179 40 155 17Q131 -6 98 -6ZM335 -6Q302 -6 278 17Q254 40 254 77Q254 113 278 136.5Q302 160 335 160Q368 160 392 136.5Q416 113 416 77Q416 40 392 17Q368 -6 335 -6ZM572 -6Q539 -6 515 17Q491 40 491 77Q491 113 515 136.5Q539 160 572 160Q605 160 629 136.5Q653 113 653 77Q653 40 629 17Q605 -6 572 -6Z" glyph-name="ellipsis" horiz-adv-x="714" unicode="&#8230;" /><glyph d="M171 174Q178 139 203.5 118.5Q229 98 276 98Q314 98 338.5 110Q363 122 380 135L457 49Q421 21 378.5 6Q336 -9 275 -9Q219 -9 175 7Q131 23 100.5 51.5Q70 80 53.5 119.5Q37 159 37 207Q37 259 56.5 301.5Q76 344 109 373.5Q142 403 185.5 419Q229 435 278 435Q335 435 377.5 415Q420 395 446.5 360Q473 325 483.5 277Q494 229 487 174ZM359 249Q360 286 337.5 308Q315 330 274 330Q234 330 208 310Q182 290 173 249ZM170 613H430L413 517H153Z" glyph-name="emacron" horiz-adv-x="527" unicode="&#275;" /><glyph d="M173 162Q195 99 278 99Q314 99 338 110Q362 121 379 135L459 51Q424 22 381.5 6.5Q339 -9 277 -9Q219 -9 174 7.5Q129 24 98.5 53.5Q68 83 52 123Q36 163 36 210Q36 261 54 302.5Q72 344 102.5 373.5Q133 403 175 419Q217 435 265 435Q322 435 363 417.5Q404 400 431 368.5Q458 337 472 293Q486 249 489 196ZM345 255Q343 290 323 310Q303 330 266 330Q224 330 199 307Q174 284 168 236ZM180 613H440L423 517H163Z" glyph-name="emacron.alt" horiz-adv-x="515" /><glyph d="M44 287H629L608 171H23Z" glyph-name="emdash" horiz-adv-x="644" unicode="&#8212;" /><glyph d="M54 332H718L697 216H33Z" glyph-name="emdash.up" horiz-adv-x="726" /><glyph d="M44 287H383L362 171H23Z" glyph-name="endash" horiz-adv-x="398" unicode="&#8211;" /><glyph d="M54 332H442L421 216H33Z" glyph-name="endash.up" horiz-adv-x="450" /><glyph d="M318 -240Q297 -240 277.5 -234.5Q258 -229 243 -217Q228 -205 219 -187.5Q210 -170 210 -146Q210 -112 225 -85.5Q240 -59 263 -39L296 -8Q291 -9 275 -9Q219 -9 175 7Q131 23 100.5 51.5Q70 80 53.5 119.5Q37 159 37 207Q37 259 56.5 301.5Q76 344 109 373.5Q142 403 185.5 419Q229 435 278 435Q335 435 377.5 415Q420 395 446.5 360Q473 325 483.5 277Q494 229 487 174H171Q178 139 203.5 118.5Q229 98 276 98Q314 98 338.5 110Q363 122 380 135L457 49Q446 40 434.5 32.5Q423 25 410 16Q397 7 383.5 -4.5Q370 -16 356 -34L328 -70Q310 -93 303 -107Q296 -121 296 -140Q296 -169 324 -169Q338 -169 347 -160.5Q356 -152 364 -141L429 -179Q414 -205 388.5 -222.5Q363 -240 318 -240ZM359 249Q360 286 337.5 308Q315 330 274 330Q234 330 208 310Q182 290 173 249Z" glyph-name="eogonek" horiz-adv-x="527" unicode="&#281;" /><glyph d="M318 -240Q297 -240 277.5 -234.5Q258 -229 243 -217Q228 -205 219 -187.5Q210 -170 210 -146Q210 -112 225 -85.5Q240 -59 263 -39L296 -8Q282 -9 277 -9Q219 -9 174 7.5Q129 24 98.5 53.5Q68 83 52 123Q36 163 36 210Q36 261 54 302.5Q72 344 102.5 373.5Q133 403 175 419Q217 435 265 435Q322 435 363 417.5Q404 400 431 368.5Q458 337 472 293Q486 249 489 196L173 162Q195 99 278 99Q314 99 338 110Q362 121 379 135L459 51Q448 42 436 34Q424 26 411 17Q398 8 384 -4Q370 -16 356 -34L328 -70Q310 -93 303 -107Q296 -121 296 -140Q296 -169 324 -169Q338 -169 347 -160.5Q356 -152 364 -141L429 -179Q414 -205 388.5 -222.5Q363 -240 318 -240ZM345 255Q343 290 323 310Q303 330 266 330Q224 330 198.5 307Q173 284 168 236Z" glyph-name="eogonek.alt" horiz-adv-x="515" /><glyph d="M80 462H442L422 350H60ZM49 287H411L391 175H29Z" glyph-name="equal" horiz-adv-x="432" unicode="=" /><glyph d="M70 408H397L377 293H50ZM42 244H369L348 129H21Z" glyph-name="equal.os" horiz-adv-x="397" /><glyph d="M70 408H397L377 293H50ZM42 244H369L348 129H21Z" glyph-name="equal.sc" horiz-adv-x="397" /><glyph d="M121 408H448L428 293H101ZM93 244H420L399 129H72Z" glyph-name="equal.sctab" horiz-adv-x="500" /><glyph d="M131 408H458L438 293H111ZM103 244H430L409 129H82Z" glyph-name="equal.tab" horiz-adv-x="520" /><glyph d="M129 462H542L523 350H110ZM99 287H512L492 175H79Z" glyph-name="equal.tablining" horiz-adv-x="580" /><glyph d="M240 479 191 544 254 594Q240 612 226 629.5Q212 647 198 664L281 738Q298 722 315 705Q332 688 349 669L415 721L465 656L399 604Q444 537 472.5 453Q501 369 501 261Q501 131 436.5 61Q372 -9 260 -9Q213 -9 172.5 7Q132 23 102 52.5Q72 82 54.5 123Q37 164 37 214Q37 266 55.5 307.5Q74 349 104 377Q134 405 171 420Q208 435 244 435Q282 435 307.5 426Q333 417 351 400Q343 435 330 466Q317 497 300 526ZM264 102Q312 102 337.5 136Q363 170 363 222Q363 268 339 296Q315 324 273 324Q225 324 199 292.5Q173 261 173 210Q173 161 197 131.5Q221 102 264 102Z" glyph-name="eth" horiz-adv-x="526" unicode="&#240;" /><glyph d="M145 680H293L184 231H82ZM112 -6Q79 -6 55 17Q31 40 31 77Q31 113 55 136.5Q79 160 112 160Q145 160 169.5 136.5Q194 113 194 77Q194 40 169.5 17Q145 -6 112 -6Z" glyph-name="exclam" horiz-adv-x="269" unicode="!" /><glyph d="M205 520Q172 520 147.5 543.5Q123 567 123 603Q123 640 147.5 663Q172 686 205 686Q238 686 262 663Q286 640 286 603Q286 567 262 543.5Q238 520 205 520ZM133 449H235L172 0H24Z" glyph-name="exclamdown" horiz-adv-x="269" unicode="&#161;" /><glyph d="M50 317 69 426H139L166 578Q180 654 219.5 694.5Q259 735 335 735Q378 735 408 721Q438 707 460 681L383 594Q375 605 366 611Q357 617 341 617Q324 617 313 608Q302 599 297 575L271 426H381L362 317H252L179 -97Q172 -136 161 -159Q150 -182 132.5 -193.5Q115 -205 90 -208.5Q65 -212 32 -212H-37L-18 -113H22Q33 -113 39.5 -108.5Q46 -104 49 -88L120 317Z" glyph-name="f" horiz-adv-x="372" unicode="f" /><glyph d="M50 317 69 426H139L161 552Q177 642 229 688.5Q281 735 378 735Q479 735 529 679.5Q579 624 561 521L534 369Q556 398 585 416.5Q614 435 655 435Q691 435 722.5 420.5Q754 406 777 379.5Q800 353 813.5 315.5Q827 278 827 231Q827 175 810.5 131Q794 87 766 55.5Q738 24 701.5 7.5Q665 -9 625 -9Q576 -9 539 12.5Q502 34 479 79L469 0H337L430 527Q439 578 423.5 600Q408 622 370 622Q332 622 315.5 602Q299 582 291 537L271 426H364L345 317H252L179 -97Q172 -136 161 -159Q150 -182 132.5 -193.5Q115 -205 90 -208.5Q65 -212 32 -212H-37L-18 -113H22Q33 -113 39.5 -108.5Q46 -104 49 -88L120 317ZM590 105Q636 105 662.5 137.5Q689 170 689 224Q689 269 666 294.5Q643 320 602 320Q557 320 530 287.5Q503 255 503 204Q503 159 525.5 132Q548 105 590 105Z" glyph-name="f_b" horiz-adv-x="857" /><glyph d="M50 317 69 426H139L166 578Q180 654 217.5 694.5Q255 735 324 735Q354 735 376 728.5Q398 722 415 707L370 605Q362 610 354.5 613.5Q347 617 336 617Q321 617 311.5 608Q302 599 297 575L271 426H358L339 317H252L179 -97Q172 -136 161 -159Q150 -182 132.5 -193.5Q115 -205 90 -208.5Q65 -212 32 -212H-37L-18 -113H22Q33 -113 39.5 -108.5Q46 -104 49 -88L120 317ZM625 -9Q576 -9 539 12.5Q502 34 479 79L469 0H337L464 722H596L534 369Q556 398 585 416.5Q614 435 655 435Q691 435 722.5 420.5Q754 406 777 379.5Q800 353 813.5 315.5Q827 278 827 231Q827 175 810.5 131Q794 87 766 55.5Q738 24 701.5 7.5Q665 -9 625 -9ZM590 105Q636 105 662.5 137.5Q689 170 689 224Q689 269 666 294.5Q643 320 602 320Q557 320 530 287.5Q503 255 503 204Q503 159 525.5 132Q548 105 590 105Z" glyph-name="f_b.alt" horiz-adv-x="857" /><glyph d="M50 317 69 426H139L163 558Q177 634 215 674.5Q253 715 327 715Q362 715 387 706Q412 697 430 680L368 583Q360 590 352 593.5Q344 597 333 597Q318 597 308.5 588Q299 579 294 555L271 426H412L434 552Q450 642 501 688.5Q552 735 651 735Q752 735 802 679.5Q852 624 834 521L807 369Q829 398 858 416.5Q887 435 928 435Q964 435 995.5 420.5Q1027 406 1050 379.5Q1073 353 1086.5 315.5Q1100 278 1100 231Q1100 175 1083.5 131Q1067 87 1039 55.5Q1011 24 974.5 7.5Q938 -9 898 -9Q849 -9 812 12.5Q775 34 752 79L742 0H610L703 527Q712 578 696.5 600Q681 622 643 622Q605 622 588.5 602Q572 582 564 537L544 426H637L618 317H525L456 -72Q449 -111 438 -134Q427 -157 409.5 -168.5Q392 -180 367 -183.5Q342 -187 309 -187H248L267 -88H299Q310 -88 316.5 -83.5Q323 -79 326 -63L393 317H252L179 -97Q172 -136 161 -159Q150 -182 132.5 -193.5Q115 -205 90 -208.5Q65 -212 32 -212H-37L-18 -113H22Q33 -113 39.5 -108.5Q46 -104 49 -88L120 317ZM863 105Q909 105 935.5 137.5Q962 170 962 224Q962 269 939 294.5Q916 320 875 320Q830 320 803 287.5Q776 255 776 204Q776 159 798.5 132Q821 105 863 105Z" glyph-name="f_f_b" horiz-adv-x="1130" /><glyph d="M50 317 69 426H139L163 558Q177 634 215 674.5Q253 715 327 715Q361 715 383.5 707Q406 699 425 682L368 583Q360 590 352 593.5Q344 597 333 597Q318 597 308.5 588Q299 579 294 555L271 426H412L439 578Q453 654 490.5 694.5Q528 735 597 735Q627 735 649 728.5Q671 722 688 707L643 605Q635 610 627.5 613.5Q620 617 609 617Q594 617 584.5 608Q575 599 570 575L544 426H631L612 317H525L456 -72Q449 -111 438 -134Q427 -157 409.5 -168.5Q392 -180 367 -183.5Q342 -187 309 -187H248L267 -88H299Q310 -88 316.5 -83.5Q323 -79 326 -63L393 317H252L179 -97Q172 -136 161 -159Q150 -182 132.5 -193.5Q115 -205 90 -208.5Q65 -212 32 -212H-37L-18 -113H22Q33 -113 39.5 -108.5Q46 -104 49 -88L120 317ZM898 -9Q849 -9 812 12.5Q775 34 752 79L742 0H610L737 722H869L807 369Q829 398 858 416.5Q887 435 928 435Q964 435 995.5 420.5Q1027 406 1050 379.5Q1073 353 1086.5 315.5Q1100 278 1100 231Q1100 175 1083.5 131Q1067 87 1039 55.5Q1011 24 974.5 7.5Q938 -9 898 -9ZM863 105Q909 105 935.5 137.5Q962 170 962 224Q962 269 939 294.5Q916 320 875 320Q830 320 803 287.5Q776 255 776 204Q776 159 798.5 132Q821 105 863 105Z" glyph-name="f_f_b.alt" horiz-adv-x="1130" /><glyph d="M524 317 453 -87Q446 -126 435 -149Q424 -172 406.5 -183.5Q389 -195 364 -198.5Q339 -202 306 -202H237L256 -103H296Q307 -103 313.5 -98.5Q320 -94 323 -78L393 317H252L179 -97Q172 -136 161 -159Q150 -182 132.5 -193.5Q115 -205 90 -208.5Q65 -212 32 -212H-37L-18 -113H22Q33 -113 39.5 -108.5Q46 -104 49 -88L120 317H50L69 426H139L163 558Q177 634 215 674.5Q253 715 327 715Q361 715 383.5 707Q406 699 425 682L368 583Q360 590 352 593.5Q344 597 333 597Q318 597 308.5 588Q299 579 294 555L271 426H412L437 568Q451 644 489 684.5Q527 725 601 725Q635 725 657.5 717Q680 709 699 692L642 593Q634 600 626 603.5Q618 607 607 607Q592 607 582.5 598Q573 589 568 565L543 426H684L711 578Q725 654 764.5 694.5Q804 735 880 735Q923 735 953 721Q983 707 1005 681L928 594Q920 605 911 611Q902 617 886 617Q869 617 858 608Q847 599 842 575L816 426H926L907 317H797L728 -72Q721 -111 710 -134Q699 -157 681.5 -168.5Q664 -180 639 -183.5Q614 -187 581 -187H520L539 -88H571Q582 -88 588.5 -83.5Q595 -79 598 -63L665 317Z" glyph-name="f_f_f" horiz-adv-x="917" /><glyph d="M1051 504Q1019 504 996 525.5Q973 547 973 582Q973 617 995.5 638Q1018 659 1050 659Q1082 659 1105.5 638Q1129 617 1129 582Q1129 547 1106 525.5Q1083 504 1051 504ZM728 -72Q721 -111 710 -134Q699 -157 681.5 -168.5Q664 -180 639 -183.5Q614 -187 581 -187H520L539 -88H571Q582 -88 588.5 -83.5Q595 -79 598 -63L665 317H524L453 -87Q446 -126 435 -149Q424 -172 406.5 -183.5Q389 -195 364 -198.5Q339 -202 306 -202H237L256 -103H296Q307 -103 313.5 -98.5Q320 -94 323 -78L393 317H252L179 -97Q172 -136 161 -159Q150 -182 132.5 -193.5Q115 -205 90 -208.5Q65 -212 32 -212H-37L-18 -113H22Q33 -113 39.5 -108.5Q46 -104 49 -88L120 317H50L69 426H139L163 558Q177 634 215 674.5Q253 715 327 715Q361 715 383.5 707Q406 699 425 682L368 583Q360 590 352 593.5Q344 597 333 597Q318 597 308.5 588Q299 579 294 555L271 426H412L437 568Q451 644 489 684.5Q527 725 601 725Q635 725 657.5 717Q680 709 699 692L642 593Q634 600 626 603.5Q618 607 607 607Q592 607 582.5 598Q573 589 568 565L543 426H684L711 578Q725 654 763 694.5Q801 735 877 735Q915 735 942 723.5Q969 712 994 689L917 602Q909 610 901.5 613.5Q894 617 883 617Q866 617 856.5 608Q847 599 842 575L816 426H1089L1036 124Q1032 99 1054 99H1084L1067 0H1017Q981 0 956.5 5Q932 10 918 23.5Q904 37 900.5 61Q897 85 904 123L938 317H797Z" glyph-name="f_f_f_i" horiz-adv-x="1121" /><glyph d="M524 317 453 -87Q446 -126 435 -149Q424 -172 406.5 -183.5Q389 -195 364 -198.5Q339 -202 306 -202H237L256 -103H296Q307 -103 313.5 -98.5Q320 -94 323 -78L392 317H252L179 -97Q172 -136 161 -159Q150 -182 132.5 -193.5Q115 -205 90 -208.5Q65 -212 32 -212H-37L-18 -113H22Q33 -113 39.5 -108.5Q46 -104 49 -88L120 317H50L69 426H139L163 558Q177 634 215 674.5Q253 715 327 715Q361 715 383.5 707Q406 699 425 682L368 583Q360 590 352 593.5Q344 597 333 597Q318 597 308.5 588Q299 579 294 555L271 426H412L437 568Q451 644 489 684.5Q527 725 601 725Q635 725 657.5 717Q680 709 699 692L642 593Q634 600 626 603.5Q618 607 607 607Q592 607 582.5 598Q573 589 568 565L543 426H684L706 552Q722 642 773 688.5Q824 735 923 735Q1024 735 1074 679.5Q1124 624 1106 521L1036 124Q1032 99 1054 99H1092L1075 0H1017Q981 0 956.5 5Q932 10 918 23.5Q904 37 900.5 61Q897 85 904 123L975 527Q984 578 968.5 600Q953 622 915 622Q877 622 860.5 602Q844 582 836 537L816 426H909L890 317H797L728 -72Q721 -111 710 -134Q699 -157 681.5 -168.5Q664 -180 639 -183.5Q614 -187 581 -187H520L539 -88H571Q582 -88 588.5 -83.5Q595 -79 598 -63L665 317Z" glyph-name="f_f_f_l" horiz-adv-x="1122" /><glyph d="M524 317 453 -87Q446 -126 435 -149Q424 -172 406.5 -183.5Q389 -195 364 -198.5Q339 -202 306 -202H237L256 -103H296Q307 -103 313.5 -98.5Q320 -94 323 -78L393 317H252L179 -97Q172 -136 161 -159Q150 -182 132.5 -193.5Q115 -205 90 -208.5Q65 -212 32 -212H-37L-18 -113H22Q33 -113 39.5 -108.5Q46 -104 49 -88L120 317H50L69 426H139L163 558Q177 634 215 674.5Q253 715 327 715Q361 715 383.5 707Q406 699 425 682L368 583Q360 590 352 593.5Q344 597 333 597Q318 597 308.5 588Q299 579 294 555L271 426H412L437 568Q451 644 489 684.5Q527 725 601 725Q635 725 657.5 717Q680 709 699 692L642 593Q634 600 626 603.5Q618 607 607 607Q592 607 582.5 598Q573 589 568 565L543 426H684L711 578Q725 654 762.5 694.5Q800 735 869 735Q899 735 921 728.5Q943 722 960 707L915 605Q907 610 899.5 613.5Q892 617 881 617Q866 617 856.5 608Q847 599 842 575L816 426H903L884 317H797L728 -72Q721 -111 710 -134Q699 -157 681.5 -168.5Q664 -180 639 -183.5Q614 -187 581 -187H520L539 -88H571Q582 -88 588.5 -83.5Q595 -79 598 -63L665 317ZM1017 0Q981 0 956.5 5Q932 10 918 23.5Q904 37 900.5 61Q897 85 904 123L1009 722H1141L1036 124Q1032 99 1054 99H1092L1075 0H1017Z" glyph-name="f_f_f_l.alt" horiz-adv-x="1122" /><glyph d="M252 317 179 -97Q172 -136 161 -159Q150 -182 132.5 -193.5Q115 -205 90 -208.5Q65 -212 32 -212H-37L-18 -113H22Q33 -113 39.5 -108.5Q46 -104 49 -88L120 317H50L69 426H139L163 558Q177 634 215 674.5Q253 715 327 715Q362 715 387 706Q412 697 430 680L368 583Q360 590 352 593.5Q344 597 333 597Q318 597 308.5 588Q299 579 294 555L271 426H412L434 552Q450 642 501 688.5Q552 735 651 735Q752 735 802 679.5Q852 624 834 521L804 353Q830 393 861.5 414Q893 435 939 435Q974 435 1001 421Q1028 407 1045.5 380.5Q1063 354 1069 317.5Q1075 281 1067 236L1047 124Q1043 99 1065 99H1095L1078 0H1035Q1001 0 975.5 6.5Q950 13 935 28Q920 43 915 67.5Q910 92 916 128L934 232Q942 275 925.5 296.5Q909 318 874 318Q834 318 812.5 297.5Q791 277 783 231L742 0H610L703 527Q712 578 696.5 600Q681 622 643 622Q605 622 588.5 602Q572 582 564 537L544 426H637L618 317H525L456 -72Q449 -111 438 -134Q427 -157 409.5 -168.5Q392 -180 367 -183.5Q342 -187 309 -187H248L267 -88H299Q310 -88 316.5 -83.5Q323 -79 326 -63L393 317Z" glyph-name="f_f_h" horiz-adv-x="1119" /><glyph d="M50 317 69 426H139L163 558Q177 634 215 674.5Q253 715 327 715Q361 715 383.5 707Q406 699 425 682L368 583Q360 590 352 593.5Q344 597 333 597Q318 597 308.5 588Q299 579 294 555L271 426H412L439 578Q453 654 490.5 694.5Q528 735 597 735Q627 735 649 728.5Q671 722 688 707L643 605Q635 610 627.5 613.5Q620 617 609 617Q594 617 584.5 608Q575 599 570 575L544 426H631L612 317H525L456 -72Q449 -111 438 -134Q427 -157 409.5 -168.5Q392 -180 367 -183.5Q342 -187 309 -187H248L267 -88H299Q310 -88 316.5 -83.5Q323 -79 326 -63L393 317H252L179 -97Q172 -136 161 -159Q150 -182 132.5 -193.5Q115 -205 90 -208.5Q65 -212 32 -212H-37L-18 -113H22Q33 -113 39.5 -108.5Q46 -104 49 -88L120 317ZM737 722H869L804 353Q830 393 861.5 414Q893 435 939 435Q974 435 1001 421Q1028 407 1045.5 380.5Q1063 354 1069 317.5Q1075 281 1067 236L1047 124Q1043 99 1065 99H1095L1078 0H1035Q1001 0 975.5 6.5Q950 13 935 28Q920 43 915 67.5Q910 92 916 128L934 232Q942 275 925.5 296.5Q909 318 874 318Q835 318 813 297.5Q791 277 783 231L742 0H610Z" glyph-name="f_f_h.alt" horiz-adv-x="1119" /><glyph d="M456 -72Q449 -111 438 -134Q427 -157 409.5 -168.5Q392 -180 367 -183.5Q342 -187 309 -187H248L267 -88H299Q310 -88 316.5 -83.5Q323 -79 326 -63L393 317H252L179 -97Q172 -136 161 -159Q150 -182 132.5 -193.5Q115 -205 90 -208.5Q65 -212 32 -212H-37L-18 -113H22Q33 -113 39.5 -108.5Q46 -104 49 -88L120 317H50L69 426H139L163 558Q177 634 215 674.5Q253 715 327 715Q361 715 383.5 707Q406 699 425 682L368 583Q360 590 352 593.5Q344 597 333 597Q318 597 308.5 588Q299 579 294 555L271 426H412L439 578Q453 654 491 694.5Q529 735 605 735Q643 735 670 723.5Q697 712 722 689L645 602Q637 610 629.5 613.5Q622 617 611 617Q594 617 584.5 608Q575 599 570 575L543 426H817L764 124Q760 99 782 99H812L795 0H745Q709 0 684.5 5Q660 10 646 23.5Q632 37 628.5 61Q625 85 632 123L666 317H525ZM783 688H941L805 500H703Z" glyph-name="f_f_iacute" horiz-adv-x="850" /><glyph d="M456 -72Q449 -111 438 -134Q427 -157 409.5 -168.5Q392 -180 367 -183.5Q342 -187 309 -187H248L267 -88H299Q310 -88 316.5 -83.5Q323 -79 326 -63L393 317H252L179 -97Q172 -136 161 -159Q150 -182 132.5 -193.5Q115 -205 90 -208.5Q65 -212 32 -212H-37L-18 -113H22Q33 -113 39.5 -108.5Q46 -104 49 -88L120 317H50L69 426H139L163 558Q177 634 215 674.5Q253 715 327 715Q361 715 383.5 707Q406 699 425 682L368 583Q360 590 352 593.5Q344 597 333 597Q318 597 308.5 588Q299 579 294 555L271 426H412L439 578Q453 654 491 694.5Q529 735 605 735Q643 735 670 723.5Q697 712 722 689L645 602Q637 610 629.5 613.5Q622 617 611 617Q594 617 584.5 608Q575 599 570 575L543 426H817L764 124Q760 99 782 99H812L795 0H745Q709 0 684.5 5Q660 10 646 23.5Q632 37 628.5 61Q625 85 632 123L666 317H525ZM811 716H822L939 500H837L794 572L727 500H618Z" glyph-name="f_f_icircumflex" horiz-adv-x="850" /><glyph d="M875 484Q846 484 824.5 504Q803 524 803 553Q803 582 824.5 602Q846 622 875 622Q902 622 923 602Q944 582 944 553Q944 524 923 504Q902 484 875 484ZM699 484Q672 484 651 504Q630 524 630 553Q630 582 651 602Q672 622 699 622Q728 622 749.5 602Q771 582 771 553Q771 524 749.5 504Q728 484 699 484ZM456 -72Q449 -111 438 -134Q427 -157 409.5 -168.5Q392 -180 367 -183.5Q342 -187 309 -187H248L267 -88H299Q310 -88 316.5 -83.5Q323 -79 326 -63L393 317H252L179 -97Q172 -136 161 -159Q150 -182 132.5 -193.5Q115 -205 90 -208.5Q65 -212 32 -212H-37L-18 -113H22Q33 -113 39.5 -108.5Q46 -104 49 -88L120 317H50L69 426H139L163 558Q177 634 215 674.5Q253 715 327 715Q361 715 383.5 707Q406 699 425 682L368 583Q360 590 352 593.5Q344 597 333 597Q318 597 308.5 588Q299 579 294 555L271 426H412L439 578Q453 654 488.5 694.5Q524 735 598 735Q629 735 652.5 727Q676 719 694 705L624 612Q616 617 605 617Q591 617 583 608Q575 599 570 575L543 426H817L764 124Q760 99 782 99H812L795 0H745Q709 0 684.5 5Q660 10 646 23.5Q632 37 628.5 61Q625 85 632 123L666 317H525Z" glyph-name="f_f_idieresis" horiz-adv-x="850" /><glyph d="M779 504Q747 504 724 525.5Q701 547 701 582Q701 617 723.5 638Q746 659 778 659Q810 659 833.5 638Q857 617 857 582Q857 547 834 525.5Q811 504 779 504ZM456 -72Q449 -111 438 -134Q427 -157 409.5 -168.5Q392 -180 367 -183.5Q342 -187 309 -187H248L267 -88H299Q310 -88 316.5 -83.5Q323 -79 326 -63L393 317H252L179 -97Q172 -136 161 -159Q150 -182 132.5 -193.5Q115 -205 90 -208.5Q65 -212 32 -212H-37L-18 -113H22Q33 -113 39.5 -108.5Q46 -104 49 -88L120 317H50L69 426H139L163 558Q177 634 215 674.5Q253 715 327 715Q361 715 383.5 707Q406 699 425 682L368 583Q360 590 352 593.5Q344 597 333 597Q318 597 308.5 588Q299 579 294 555L271 426H412L439 578Q453 654 491 694.5Q529 735 605 735Q643 735 670 723.5Q697 712 722 689L645 602Q637 610 629.5 613.5Q622 617 611 617Q594 617 584.5 608Q575 599 570 575L543 426H817L730 -68Q717 -142 680.5 -182Q644 -222 578 -222Q539 -222 511 -210Q483 -198 469 -184L533 -98Q546 -110 563 -110Q591 -110 597 -73L666 317H525Z" glyph-name="f_f_j" horiz-adv-x="850" /><glyph d="M637 426 618 317H525L456 -72Q449 -111 438 -134Q427 -157 409.5 -168.5Q392 -180 367 -183.5Q342 -187 309 -187H248L267 -88H299Q310 -88 316.5 -83.5Q323 -79 326 -63L393 317H252L179 -97Q172 -136 161 -159Q150 -182 132.5 -193.5Q115 -205 90 -208.5Q65 -212 32 -212H-37L-18 -113H22Q33 -113 39.5 -108.5Q46 -104 49 -88L120 317H50L69 426H139L163 558Q177 634 215 674.5Q253 715 327 715Q362 715 387 706Q412 697 430 680L368 583Q360 590 352 593.5Q344 597 333 597Q318 597 308.5 588Q299 579 294 555L271 426H412L434 552Q450 642 501 688.5Q552 735 651 735Q701 735 739.5 720.5Q778 706 802 679Q826 652 834.5 612Q843 572 834 521L804 354Q799 328 793 303.5Q787 279 780 257L941 426H1091L918 249L980 124Q988 107 995 103Q1002 99 1014 99H1045L1028 0H980Q952 0 933.5 5Q915 10 901.5 20.5Q888 31 878 47Q868 63 857 85L815 170L764 125L742 0H610L703 527Q712 578 696.5 600Q681 622 643 622Q605 622 588.5 602Q572 582 564 537L544 426Z" glyph-name="f_f_k" horiz-adv-x="1085" /><glyph d="M179 -97Q172 -136 161 -159Q150 -182 132.5 -193.5Q115 -205 90 -208.5Q65 -212 32 -212H-37L-18 -113H22Q33 -113 39.5 -108.5Q46 -104 49 -88L120 317H50L69 426H139L163 558Q177 634 215 674.5Q253 715 327 715Q361 715 383.5 707Q406 699 425 682L368 583Q360 590 352 593.5Q344 597 333 597Q318 597 308.5 588Q299 579 294 555L271 426H412L439 578Q453 654 490.5 694.5Q528 735 597 735Q627 735 649 728.5Q671 722 688 707L643 605Q635 610 627.5 613.5Q620 617 609 617Q594 617 584.5 608Q575 599 570 575L544 426H631L612 317H525L456 -72Q449 -111 438 -134Q427 -157 409.5 -168.5Q392 -180 367 -183.5Q342 -187 309 -187H248L267 -88H299Q310 -88 316.5 -83.5Q323 -79 326 -63L393 317H252ZM742 0H610L737 722H869L804 354Q799 328 793 303.5Q787 279 780 257L941 426H1091L918 249L980 124Q988 107 995 103Q1002 99 1014 99H1045L1028 0H980Q952 0 933.5 5Q915 10 901.5 20.5Q888 31 878 47Q868 63 857 85L815 170L764 125Z" glyph-name="f_f_k.alt" horiz-adv-x="1085" /><glyph d="M525 317 456 -72Q449 -111 438 -134Q427 -157 409.5 -168.5Q392 -180 367 -183.5Q342 -187 309 -187H248L267 -88H299Q310 -88 316.5 -83.5Q323 -79 326 -63L393 317H252L179 -97Q172 -136 161 -159Q150 -182 132.5 -193.5Q115 -205 90 -208.5Q65 -212 32 -212H-37L-18 -113H22Q33 -113 39.5 -108.5Q46 -104 49 -88L120 317H50L69 426H139L163 558Q177 634 215 674.5Q253 715 327 715Q361 715 383.5 707Q406 699 425 682L368 583Q360 590 352 593.5Q344 597 333 597Q318 597 308.5 588Q299 579 294 555L271 426H412L439 578Q453 654 491 694.5Q529 735 605 735Q643 735 670 723.5Q697 712 722 689L645 602Q637 610 629.5 613.5Q622 617 611 617Q594 617 584.5 608Q575 599 570 575L544 426H686L725 648H856L817 426H920L901 317H798L770 156Q764 124 771.5 113.5Q779 103 795 103Q810 103 821.5 108Q833 113 841 118L883 25Q866 12 841 1.5Q816 -9 772 -9Q740 -9 712.5 -1Q685 7 665.5 26.5Q646 46 638 78.5Q630 111 639 160L666 317Z" glyph-name="f_f_t" horiz-adv-x="917" /><glyph d="M50 317 69 426H139L161 552Q177 642 228 688.5Q279 735 378 735Q479 735 529 679.5Q579 624 561 521L531 353Q557 393 588.5 414Q620 435 666 435Q701 435 728 421Q755 407 772.5 380.5Q790 354 796 317.5Q802 281 794 236L774 124Q770 99 792 99H822L805 0H762Q728 0 702.5 6.5Q677 13 662 28Q647 43 642 67.5Q637 92 643 128L661 232Q669 275 652.5 296.5Q636 318 601 318Q561 318 539.5 297.5Q518 277 510 231L469 0H337L430 527Q439 578 423.5 600Q408 622 370 622Q332 622 315.5 602Q299 582 291 537L271 426H364L345 317H252L179 -97Q172 -136 161 -159Q150 -182 132.5 -193.5Q115 -205 90 -208.5Q65 -212 32 -212H-37L-18 -113H22Q33 -113 39.5 -108.5Q46 -104 49 -88L120 317Z" glyph-name="f_h" horiz-adv-x="846" /><glyph d="M50 317 69 426H139L166 578Q180 654 217.5 694.5Q255 735 324 735Q354 735 376 728.5Q398 722 415 707L370 605Q362 610 354.5 613.5Q347 617 336 617Q321 617 311.5 608Q302 599 297 575L271 426H358L339 317H252L179 -97Q172 -136 161 -159Q150 -182 132.5 -193.5Q115 -205 90 -208.5Q65 -212 32 -212H-37L-18 -113H22Q33 -113 39.5 -108.5Q46 -104 49 -88L120 317ZM464 722H596L531 353Q557 393 588.5 414Q620 435 666 435Q701 435 728 421Q755 407 772.5 380.5Q790 354 796 317.5Q802 281 794 236L774 124Q770 99 792 99H822L805 0H762Q728 0 702.5 6.5Q677 13 662 28Q647 43 642 67.5Q637 92 643 128L661 232Q669 275 652.5 296.5Q636 318 601 318Q562 318 540 297.5Q518 277 510 231L469 0H337Z" glyph-name="f_h.alt" horiz-adv-x="846" /><glyph d="M179 -97Q172 -136 161 -159Q150 -182 132.5 -193.5Q115 -205 90 -208.5Q65 -212 32 -212H-37L-18 -113H22Q33 -113 39.5 -108.5Q46 -104 49 -88L120 317H50L69 426H139L166 578Q180 654 218 694.5Q256 735 332 735Q370 735 397 723.5Q424 712 449 689L372 602Q364 610 356.5 613.5Q349 617 338 617Q321 617 311.5 608Q302 599 297 575L271 426H544L491 124Q487 99 509 99H539L522 0H472Q436 0 411.5 5Q387 10 373 23.5Q359 37 355.5 61Q352 85 359 123L393 317H252ZM510 688H668L532 500H430Z" glyph-name="f_iacute" horiz-adv-x="577" /><glyph d="M179 -97Q172 -136 161 -159Q150 -182 132.5 -193.5Q115 -205 90 -208.5Q65 -212 32 -212H-37L-18 -113H22Q33 -113 39.5 -108.5Q46 -104 49 -88L120 317H50L69 426H139L166 578Q180 654 218 694.5Q256 735 332 735Q370 735 397 723.5Q424 712 449 689L372 602Q364 610 356.5 613.5Q349 617 338 617Q321 617 311.5 608Q302 599 297 575L271 426H544L491 124Q487 99 509 99H539L522 0H472Q436 0 411.5 5Q387 10 373 23.5Q359 37 355.5 61Q352 85 359 123L393 317H252ZM538 716H549L666 500H564L521 572L454 500H345Z" glyph-name="f_icircumflex" horiz-adv-x="577" /><glyph d="M602 484Q573 484 551.5 504Q530 524 530 553Q530 582 551.5 602Q573 622 602 622Q629 622 650 602Q671 582 671 553Q671 524 650 504Q629 484 602 484ZM426 484Q399 484 378 504Q357 524 357 553Q357 582 378 602Q399 622 426 622Q455 622 476.5 602Q498 582 498 553Q498 524 476.5 504Q455 484 426 484ZM179 -97Q172 -136 161 -159Q150 -182 132.5 -193.5Q115 -205 90 -208.5Q65 -212 32 -212H-37L-18 -113H22Q33 -113 39.5 -108.5Q46 -104 49 -88L120 317H50L69 426H139L166 578Q180 654 215.5 694.5Q251 735 325 735Q356 735 379.5 727Q403 719 421 705L351 612Q343 617 332 617Q318 617 310 608Q302 599 297 575L271 426H544L491 124Q487 99 509 99H539L522 0H472Q436 0 411.5 5Q387 10 373 23.5Q359 37 355.5 61Q352 85 359 123L393 317H252Z" glyph-name="f_idieresis" horiz-adv-x="577" /><glyph d="M506 504Q474 504 451 525.5Q428 547 428 582Q428 617 450.5 638Q473 659 505 659Q537 659 560.5 638Q584 617 584 582Q584 547 561 525.5Q538 504 506 504ZM179 -97Q172 -136 161 -159Q150 -182 132.5 -193.5Q115 -205 90 -208.5Q65 -212 32 -212H-37L-18 -113H22Q33 -113 39.5 -108.5Q46 -104 49 -88L120 317H50L69 426H139L166 578Q180 654 218 694.5Q256 735 332 735Q370 735 397 723.5Q424 712 449 689L372 602Q364 610 356.5 613.5Q349 617 338 617Q321 617 311.5 608Q302 599 297 575L271 426H544L457 -68Q444 -142 407.5 -182Q371 -222 305 -222Q266 -222 238 -210Q210 -198 196 -184L260 -98Q273 -110 290 -110Q318 -110 324 -73L393 317H252Z" glyph-name="f_j" horiz-adv-x="577" /><glyph d="M364 426 345 317H252L179 -97Q172 -136 161 -159Q150 -182 132.5 -193.5Q115 -205 90 -208.5Q65 -212 32 -212H-37L-18 -113H22Q33 -113 39.5 -108.5Q46 -104 49 -88L120 317H50L69 426H139L161 552Q177 642 228 688.5Q279 735 378 735Q428 735 466.5 720.5Q505 706 529 679Q553 652 561.5 612Q570 572 561 521L531 354Q526 328 520 303.5Q514 279 507 257L668 426H818L645 249L707 124Q715 107 722 103Q729 99 741 99H772L755 0H707Q679 0 660.5 5Q642 10 628.5 20.5Q615 31 605 47Q595 63 584 85L542 170L491 125L469 0H337L430 527Q439 578 423.5 600Q408 622 370 622Q332 622 315.5 602Q299 582 291 537L271 426Z" glyph-name="f_k" horiz-adv-x="812" /><glyph d="M50 317 69 426H139L166 578Q180 654 217.5 694.5Q255 735 324 735Q354 735 376 728.5Q398 722 415 707L370 605Q362 610 354.5 613.5Q347 617 336 617Q321 617 311.5 608Q302 599 297 575L271 426H358L339 317H252L179 -97Q172 -136 161 -159Q150 -182 132.5 -193.5Q115 -205 90 -208.5Q65 -212 32 -212H-37L-18 -113H22Q33 -113 39.5 -108.5Q46 -104 49 -88L120 317ZM469 0H337L464 722H596L531 354Q526 328 520 303.5Q514 279 507 257L668 426H818L645 249L707 124Q715 107 722 103Q729 99 741 99H772L755 0H707Q679 0 660.5 5Q642 10 628.5 20.5Q615 31 605 47Q595 63 584 85L542 170L491 125Z" glyph-name="f_k.alt" horiz-adv-x="812" /><glyph d="M252 317 179 -97Q172 -136 161 -159Q150 -182 132.5 -193.5Q115 -205 90 -208.5Q65 -212 32 -212H-37L-18 -113H22Q33 -113 39.5 -108.5Q46 -104 49 -88L120 317H50L69 426H139L166 578Q180 654 218 694.5Q256 735 332 735Q370 735 397 723.5Q424 712 449 689L372 602Q364 610 356.5 613.5Q349 617 338 617Q321 617 311.5 608Q302 599 297 575L271 426H412L451 648H582L543 426H646L627 317H524L496 156Q490 124 497.5 113.5Q505 103 521 103Q536 103 547.5 108Q559 113 567 118L609 25Q592 12 567 1.5Q542 -9 498 -9Q466 -9 438.5 -1Q411 7 391.5 26.5Q372 46 364 78.5Q356 111 365 160L393 317Z" glyph-name="f_t" horiz-adv-x="643" /></font>
</defs>
</svg>
